<svg width="266" height="292" viewBox="0 0 266 292" fill="none" xmlns="http://www.w3.org/2000/svg">
<line y1="0.737018" x2="266" y2="0.737018" stroke="#E8E8E8" stroke-width="0.525963"/>
<line y1="97.6042" x2="266" y2="97.6042" stroke="#E8E8E8" stroke-width="0.525963"/>
<line y1="194.472" x2="266" y2="194.472" stroke="#E8E8E8" stroke-width="0.525963"/>
<line y1="291.34" x2="266" y2="291.34" stroke="#E8E8E8" stroke-width="0.525963"/>
<g opacity="0.4">
<path d="M47 264.5L6 277.008V291H266V26L211 152.5L170.5 249.5L129 264.5L88 277.5L47 264.5Z" fill="url(#paint0_linear)"/>
<path d="M47 264.5L6 277.008V291H266V26L211 152.5L170.5 249.5L129 264.5L88 277.5L47 264.5Z" fill="url(#paint1_linear)"/>
</g>
<path d="M47 264.679L47.2984 263.725L47.0159 263.637L46.7308 263.716L47 264.679ZM88 277.5L87.7016 278.454L87.995 278.546L88.2893 278.457L88 277.5ZM129 265.107L129.289 266.064L129.319 266.055L129.348 266.044L129 265.107ZM170.5 249.722L170.848 250.66L171.254 250.509L171.422 250.109L170.5 249.722ZM211 153.141L210.083 152.742L210.078 152.754L211 153.141ZM265.917 29.3989C266.137 28.8924 265.905 28.3033 265.399 28.083C264.892 27.8627 264.303 28.0947 264.083 28.6011L265.917 29.3989ZM6.7692 276.963L47.2692 265.643L46.7308 263.716L6.2308 275.037L6.7692 276.963ZM46.7016 265.634L87.7016 278.454L88.2984 276.546L47.2984 263.725L46.7016 265.634ZM88.2893 278.457L129.289 266.064L128.711 264.15L87.7107 276.543L88.2893 278.457ZM129.348 266.044L170.848 250.66L170.152 248.785L128.652 264.169L129.348 266.044ZM171.422 250.109L211.922 153.528L210.078 152.754L169.578 249.336L171.422 250.109ZM211.917 153.54L265.917 29.3989L264.083 28.6011L210.083 152.742L211.917 153.54Z" fill="#4CA9FC"/>
<circle cx="6.00065" cy="276.029" r="5.00065" fill="white" stroke="#4CA9FC" stroke-width="2"/>
<circle cx="47.0007" cy="265.028" r="5.00065" fill="white" stroke="#4CA9FC" stroke-width="2"/>
<circle cx="88.0007" cy="277.001" r="5.00065" fill="white" stroke="#4CA9FC" stroke-width="2"/>
<circle cx="129.001" cy="264.001" r="5.00065" fill="white" stroke="#4CA9FC" stroke-width="2"/>
<circle cx="170.001" cy="249.001" r="5.00065" fill="white" stroke="#4CA9FC" stroke-width="2"/>
<circle cx="211.001" cy="152.73" r="5.00065" fill="white" stroke="#4CA9FC" stroke-width="2"/>
<circle cx="253.001" cy="55.0055" r="5.00065" fill="white" stroke="#4CA9FC" stroke-width="2"/>
<defs>
<linearGradient id="paint0_linear" x1="219.748" y1="-34.8234" x2="63.2787" y2="-12.194" gradientUnits="userSpaceOnUse">
<stop stop-color="#A9D6FF"/>
<stop offset="1" stop-color="#B1DAFF" stop-opacity="0"/>
</linearGradient>
<linearGradient id="paint1_linear" x1="137.5" y1="-22.8309" x2="137.5" y2="292" gradientUnits="userSpaceOnUse">
<stop stop-color="white"/>
<stop offset="1" stop-color="white" stop-opacity="0"/>
</linearGradient>
</defs>
</svg>
