<svg width="1051" height="341" viewbox=" 0 0 100 100" fill="none" xmlns="http://www.w3.org/2000/svg">
<line y1="0.5" x2="1051" y2="0.5" stroke="#E8E8E8"/>
<line y1="113.5" x2="1051" y2="113.5" stroke="#E8E8E8"/>
<line y1="226.5" x2="1051" y2="226.5" stroke="#E8E8E8"/>
<line y1="339.5" x2="1051" y2="339.5" stroke="#E8E8E8"/>
<g opacity="0.4">
<path d="M208 308.5L42.5 323V340.5H1051V30L842 178L685 291L526 309L367 323.5L208 308.5Z" fill="url(#paint0_linear)"/>
<path d="M208 308.5L42.5 323V340.5H1051V30L842 178L685 291L526 309L367 323.5L208 308.5Z" fill="url(#paint1_linear)"/>
</g>
<path d="M208 308.5L208.141 307.007L208.005 306.994L207.869 307.006L208 308.5ZM367 323.5L366.859 324.993L366.998 325.006L367.136 324.994L367 323.5ZM526 309L526.136 310.494L526.152 310.492L526.169 310.49L526 309ZM685 291L685.169 292.49L685.558 292.446L685.876 292.217L685 291ZM842 178L841.131 176.777L841.124 176.783L842 178ZM1049.87 32.223C1050.54 31.7433 1050.7 30.8069 1050.22 30.1315C1049.74 29.4561 1048.81 29.2973 1048.13 29.777L1049.87 32.223ZM42.6309 324.494L208.131 309.994L207.869 307.006L42.3691 321.506L42.6309 324.494ZM207.859 309.993L366.859 324.993L367.141 322.007L208.141 307.007L207.859 309.993ZM367.136 324.994L526.136 310.494L525.864 307.506L366.864 322.006L367.136 324.994ZM526.169 310.49L685.169 292.49L684.831 289.51L525.831 307.51L526.169 310.49ZM685.876 292.217L842.876 179.217L841.124 176.783L684.124 289.783L685.876 292.217ZM842.869 179.223L1049.87 32.223L1048.13 29.777L841.131 176.777L842.869 179.223Z" fill="#4CA9FC"/>
<circle cx="42" cy="323" r="5" fill="white" stroke="#4CA9FC" stroke-width="4"/>
<circle cx="208" cy="309" r="5" fill="white" stroke="#4CA9FC" stroke-width="4"/>
<circle cx="367" cy="323" r="5" fill="white" stroke="#4CA9FC" stroke-width="4"/>
<circle cx="526" cy="309" r="5" fill="white" stroke="#4CA9FC" stroke-width="4"/>
<circle cx="685" cy="291" r="5" fill="white" stroke="#4CA9FC" stroke-width="4"/>
<circle cx="842" cy="178" r="5" fill="white" stroke="#4CA9FC" stroke-width="4"/>
<circle cx="1003" cy="64" r="5" fill="white" stroke="#4CA9FC" stroke-width="4"/>
<defs>
<linearGradient id="paint0_linear" x1="869.5" y1="-40.9986" x2="362.5" y2="205.501" gradientUnits="userSpaceOnUse">
<stop stop-color="#A9D6FF"/>
<stop offset="1" stop-color="#B1DAFF" stop-opacity="0"/>
</linearGradient>
<linearGradient id="paint1_linear" x1="546.75" y1="-27" x2="546.75" y2="340.5" gradientUnits="userSpaceOnUse">
<stop stop-color="white"/>
<stop offset="1" stop-color="white" stop-opacity="0"/>
</linearGradient>
</defs>
</svg>
