<svg width="148" height="229" viewBox="0 0 148 229" fill="none" xmlns="http://www.w3.org/2000/svg">
<path fill-rule="evenodd" clip-rule="evenodd" d="M129.24 0.274224C98.3104 0.274224 70.2178 12.6567 49.6486 32.7045V0.274224H0.0411377V228.712H49.6486V196.282C70.2178 216.343 98.3104 228.712 129.24 228.712H147.753V214.835H129.24C96.8441 214.835 67.9978 199.381 49.6486 175.452C43.9341 168.006 39.2474 159.738 35.7804 150.852V214.821H13.9093V14.1513H35.7804V78.1205C39.2474 69.2347 43.9341 60.9661 49.6486 53.5201C67.9978 29.5917 96.8441 14.1376 129.24 14.1376H133.885V36.0229H129.24C86.0045 36.0229 50.8271 71.2231 50.8271 114.486C50.8271 157.749 86.0045 192.95 129.24 192.95H147.753V143.31H129.24C113.357 143.31 100.434 130.379 100.434 114.486C100.434 98.5934 113.343 85.6624 129.24 85.6624H147.753V71.7853H129.24C105.71 71.7853 86.5663 90.9417 86.5663 114.486C86.5663 138.031 105.71 157.187 129.24 157.187H133.885V179.072H129.24C93.6511 179.072 64.6952 150.112 64.6952 114.486C64.6952 78.8747 93.6511 49.9 129.24 49.9H147.753V0.260498H129.24V0.274224Z" fill="black"/>
</svg>
