<svg width="710" height="1136" viewBox="0 0 710 1136" fill="none" xmlns="http://www.w3.org/2000/svg">
<g filter="url(#filter0_d)">
<path d="M147.516 1111.89C145.281 1110.87 143.566 1109.06 142.777 1106.84C140.869 1101.51 137.42 1091.83 137.209 1091.11C137.035 1090.47 138.384 1085.41 139.443 1081.64C140.176 1079.05 142.121 1076.93 144.742 1075.88L156.533 1071.13L178.959 1061.04C180.307 1060.45 181.791 1060.16 183.274 1060.21L222.732 1061.61C223.734 1061.64 224.755 1061.52 225.718 1061.24L235.236 1058.58C236.43 1058.25 237.683 1058.14 238.916 1058.27L255.562 1060.05C257.488 1060.25 259.299 1061.03 260.744 1062.26C264.155 1065.2 270.301 1070.56 270.512 1071.11C270.782 1071.87 276.774 1079.05 277.044 1080.06C277.179 1080.55 277.179 1082.13 277.159 1083.67C277.121 1085.78 276.273 1087.79 274.77 1089.35L274.424 1089.71C272.786 1091.41 271.938 1093.64 272.054 1095.93L272.15 1097.72C272.323 1101.15 270.32 1104.36 267.064 1105.88L264.289 1107.19C263.557 1107.53 262.787 1107.79 261.977 1107.93L250.572 1110.07C249.917 1110.2 249.281 1110.38 248.684 1110.63L240.9 1113.84L230.111 1118.2C228.454 1118.87 226.624 1119.07 224.851 1118.76L216.143 1117.29C214.717 1117.05 213.234 1117.13 211.846 1117.52L199.265 1121.1C197.666 1121.55 195.971 1121.59 194.372 1121.2L177.841 1117.32C176.03 1116.91 174.142 1117 172.389 1117.61L169.229 1118.72C166.879 1119.54 164.278 1119.43 162.024 1118.41L147.516 1111.89Z" fill="#4A4A4A"/>
<path d="M432.253 49.6247C425.413 52.9428 403.45 65.0547 401.966 65.3267C386.264 68.1915 362.624 71.1288 357.731 71.1288C353.993 71.1288 336.037 67.8651 327.714 66.3058C324.862 65.78 321.953 65.5987 319.063 65.7981L202.694 73.6854L178.958 80.6661C172.08 82.6787 166.57 87.5198 163.892 93.8115C160.038 102.877 153.97 115.932 148.286 122.84C141.138 131.543 107.615 150.981 92.7989 159.339C88.3484 161.86 85.4391 166.193 84.9382 171.07L82.9923 190.417C82.4529 201.096 62.2425 217.941 48.6404 228.094C49.2377 231.177 49.2184 234.169 50.7019 237.196C52.1662 240.152 54.979 241.983 57.3873 244.377C61.414 248.347 63.5333 258.302 69.3325 259.063C73.0124 259.517 75.8445 257.123 79.5822 256.942C83.3199 256.779 87.5585 257.431 90.8337 255.781C93.743 254.313 96.1513 250.523 99.5999 249.87C102.952 249.236 107.172 251.756 110.235 252.772C110.524 257.613 110.235 258.737 106.305 261.638C102.952 264.104 101.796 265.264 101.411 269.561C100.64 278.283 105.669 279.733 110.216 285.989C114.647 292.117 107.499 297.049 107.711 303.431C107.923 310.249 114.878 315.126 120.658 318.825C127.209 322.977 136.013 321.726 134.453 331.064C133.432 337.174 129.482 343.611 125.263 348.271C120.215 353.892 116.747 357.772 119.791 365.478C121.063 368.633 122.662 371.389 123.375 374.671C124.184 378.351 123.452 382.376 124.28 386.003C125.475 391.116 131.12 398.042 136.341 400.145C143.855 403.173 151.06 400.073 151.06 409.864C151.06 416.391 152.794 426.382 142.968 425.058C139.539 424.587 137.805 422.647 134.588 421.287C130.792 419.71 126.226 420.362 122.007 420.38C117.941 420.38 113.183 420.997 109.522 419.655C106.806 418.658 104.513 416.119 102.162 414.433C96.9412 410.716 87.3465 409.374 85.1309 416.645C84.2061 419.71 86.8263 425.222 85.0731 427.887C82.1253 432.293 78.4262 428.322 76.5959 426.291C74.2647 423.735 71.7215 422.502 69.4481 420.036C66.8086 417.189 67.7334 413.962 62.9746 414.234C53.9965 414.778 59.9883 424.424 57.8883 429.573C54.9212 436.935 47.5615 436.173 40.6256 436.826C36.8687 437.207 33.0539 437.406 29.5282 438.53C25.3859 439.818 24.7887 441.993 22.8235 445.311C20.8969 448.575 18.6427 451.005 16.2344 453.688C13.8839 456.354 12.5353 459.871 11.2444 463.262C8.27739 470.986 10.6664 474.594 17.872 478.438C24.2492 481.828 29.8942 482.517 34.1136 488.7C40.0091 497.313 45.0954 488.301 50.0276 484.657C57.1947 479.363 60.2388 486.688 64.8627 490.332C71.6637 495.663 79.1198 492.889 82.1639 502.535C85.2465 512.199 83.0501 525.635 82.6455 535.661C82.2409 545.869 83.8786 555.407 84.0327 565.433C84.129 573.665 83.9942 581.299 86.6722 588.932C88.8493 595.151 94.3402 596.547 98.2127 601.588C102.374 606.991 103.646 615.404 105.611 621.569C107.884 628.785 106.574 634.696 114.878 637.924C119.367 639.682 131.929 644.759 124.145 650.797C121.409 652.919 117.094 652.066 113.992 654.17C110.524 656.49 109.599 660.044 110.004 663.924C110.389 667.46 111.507 669.98 114.03 672.736C116.246 675.148 120.87 675.964 122.527 678.484C126.13 683.96 119.772 692.718 116.631 696.942C108.289 708.166 94.9182 712.136 86.5181 722.671C81.3547 729.162 82.4914 732.589 85.3428 739.388C88.0979 746.006 85.7859 754.166 82.1253 760.149C78.1179 766.713 69.8912 767.474 65.2287 772.986C61.6067 777.265 63.5911 783.43 62.0883 788.471C60.4122 794.11 58.8516 802.16 55.0176 806.965C51.1065 811.879 43.3229 814.29 41.666 821.216C39.8935 828.578 46.0009 832.077 50.1817 836.701C52.7634 839.547 54.4588 843.119 57.1947 845.948C60.0076 848.849 63.6296 849.955 64.4388 853.872C65.7875 860.29 63.6296 869.211 59.4681 873.998C56.5589 877.334 54.2855 877.968 54.2469 882.828C54.2277 886.237 54.3433 889.79 56.0387 892.564C58.0424 895.883 60.2966 896.463 60.0654 900.832C59.8727 904.549 58.4663 908.103 56.0772 910.932C51.8386 915.936 47.8312 921.575 45.2881 927.685C42.61 934.177 44.3247 941.629 52.5322 943.188C59.391 944.493 69.6215 941.955 70.3729 951.13C70.6619 954.647 69.0435 957.802 66.4618 960.359C63.6104 963.187 61.4718 966.288 58.447 969.189C53.5533 973.885 46.8486 976.586 50.8946 984.292C53.4955 989.206 59.7378 998.254 58.3314 1003.57C57.4644 1006.74 53.8616 1009.01 54.4203 1012.8C54.8827 1015.91 57.6571 1018.18 60.6626 1018.65C64.1306 1019.21 68.215 1018.23 71.7986 1018.23C76.4032 1018.23 80.0253 1019.07 84.3602 1019.9C91.8741 1021.35 99.5614 1027.01 105.977 1021.05C108.829 1018.38 111.237 1015.55 113.106 1012.31C115.552 1008.1 116.747 1008.55 121.217 1006.34C126.476 1003.73 128.403 992.633 134.453 994.247C138.248 995.262 139.366 998.852 140.348 1001.79C141.947 1006.63 141.678 1006.32 147.053 1006.81C150.964 1007.16 154.856 1008.06 158.998 1007.65C160.963 1007.45 162.774 1007.19 164.547 1006.36C167.745 1004.87 166.146 1005.76 167.533 1003C170.635 996.876 173.467 990.439 176.858 984.528C180.538 978.109 185.065 972.924 190.113 967.249C195.643 961.048 195.99 956.678 205.777 957.167C209.572 957.349 213.021 956.714 216.489 955.572C221.98 953.759 231.478 946.524 233.405 956.388C234.445 961.791 228.53 966.596 227.066 971.89C224.966 979.379 228.241 983.893 236.006 985.797C239.531 986.686 242.653 985.979 246.255 986.631C249.473 987.23 252.613 988.027 256.158 988.191C263.942 988.571 267.005 983.621 271.148 978.526C274.153 974.809 275.964 973.83 274.847 968.88C274.153 965.889 272.284 962.752 270.897 959.978C267.853 953.904 263.537 950.622 263.229 943.768C262.863 935.609 265.194 931.729 271.302 926.235C274.192 923.642 275.926 920.197 280.068 919.834C284.557 919.417 286.349 921.938 289.123 924.331C291.589 926.434 295.038 927.994 297.042 930.604C299.758 934.122 297.966 935.029 297.138 939.09C295.963 944.874 299.122 954.121 304.613 957.222C312.878 961.9 314.516 951.003 319.757 948.7C328.465 944.856 331.066 954.738 331.374 960.431C331.548 963.695 331.008 967.684 334.939 968.717C337.925 969.515 342.549 966.85 344.726 965.018C349.774 960.758 347.462 952.181 343.377 947.086C341.508 944.747 338.194 942.318 337.212 939.38C336.229 936.389 336.981 932.527 336.672 929.408C335.96 922.88 331.259 919.037 325.055 916.426C320.778 914.612 309.468 910.877 307.657 906.399C305.172 900.343 312.801 892.292 317.868 890.334C329.64 885.819 347.731 879.582 357.403 890.914C360.158 894.16 359.773 895.937 358.867 900.016C358.077 903.679 355.187 905.692 354.109 909.264C351.912 916.426 359.33 918.456 363.722 922.336C368.867 926.869 372.084 931.439 380.677 928.828C388.923 926.344 391.273 917.713 386.977 911.294C383.875 906.653 375.648 901.993 376.342 896.299C376.958 891.313 383.259 883.517 388.73 882.773C396.514 881.722 404.336 887.524 407.457 893.67C411.06 900.796 417.071 901.141 425.278 900.742C433.313 900.379 436.703 894.341 443.427 891.422C449.207 888.902 456.606 891.15 461.364 894.722C465.044 897.46 473.733 906.743 478.627 903.498C484.388 899.69 481.613 888.412 482.731 882.646C483.829 877.044 486.738 867.942 490.379 863.445C496.814 855.503 500.494 873.254 506.891 864.66C508.837 862.067 507.507 857.643 510.32 855.431C513.056 853.291 516.851 854.76 519.703 855.757C522.188 856.646 526.465 857.335 528.7 858.966C531.436 860.979 531.59 864.442 533.96 866.727C539.277 871.876 548.872 868.105 555.77 868.721C565.422 869.592 570.778 867.071 578.908 863.101C585.883 859.71 592.125 856.736 599.427 854.053C606.324 851.533 613.241 851.242 619.792 847.997C625.495 845.15 627.826 837.517 632.276 832.948C637.709 827.327 642.141 821.126 647.477 815.759C652.795 810.428 659.211 806.766 664.046 801.163C666.435 798.407 667.302 794.527 669.268 791.481C672.755 786.15 676.049 781.454 677.205 775.09C678.361 768.707 677.61 762.125 679.016 755.761C680.635 748.4 681.81 740.893 682.542 733.532C683.91 719.77 691.886 709.417 691.867 694.93C691.848 687.623 691.212 679.989 693.216 673.153C695.489 665.284 697.05 657.27 698.398 649.22C698.976 645.775 700.518 641.895 699.824 638.304C699.015 634.08 696.53 634.152 692.272 633.3C687.609 632.394 685.259 631.813 681.906 634.968C678.939 637.76 678.227 640.009 673.564 640.027C664.605 640.063 667.977 629.456 667.302 623.69C666.859 620.01 664.644 618.885 663.353 615.658C662.216 612.775 662.813 608.859 662.813 605.668C662.794 590.401 663.796 575.206 667.746 560.81C671.926 545.507 668.979 530.729 669.807 515.009C670.115 508.845 673.468 503.169 676.03 497.494C679.093 490.677 678.4 483.642 677.013 476.752C675.625 469.898 679.787 464.078 679.421 457.26C679.074 450.606 677.726 443.498 675.934 437.134C672.138 423.68 665.318 409.846 663.372 396.048C662.351 388.904 663.372 380.962 663.372 373.728C663.353 369.848 663.989 365.496 663.333 361.67C662.756 358.189 660.81 355.252 659.307 352.042C656.224 345.46 652.178 339.894 648.248 333.602C644.626 327.782 638.191 323.304 634.665 317.066C631.409 311.3 628.654 305.299 625.822 299.279C624.57 296.578 623.876 293.622 621.911 291.193C619.464 288.165 615.187 286.714 612.509 283.831C609.407 280.495 607.615 276.034 605.631 272.045C602.568 265.899 600.333 259.335 599.061 252.753C596.711 240.841 590.622 226.481 581.625 217.578C576.828 212.809 570.605 209.582 564.343 206.572C558.139 203.617 552.841 198.649 547.273 194.642C541.185 190.236 536.079 186.029 532.534 179.483C529.432 173.718 524.442 170.363 520.396 165.323C511.592 154.353 512.324 140.138 508.451 127.518C506.428 121.009 503.866 113.629 501.265 107.428C498.992 102.007 495.08 97.2203 493.327 91.5813C491.728 86.4501 491.054 81.754 487.49 77.2392C485.255 74.3925 483 71.4552 481.266 68.3547C477.779 62.1355 475.833 55.4812 472.539 49.2802C468.763 42.1907 466.797 34.7749 463.696 27.3772C460.786 20.4509 459.939 12.473 456.451 6C456.49 6.14505 433.794 48.8813 432.253 49.6247Z" fill="#4A4A4A"/>
<mask id="mask0" mask-type="alpha" maskUnits="userSpaceOnUse" x="10" y="6" width="690" height="1018">
<path d="M432.253 49.6247C425.413 52.9428 403.45 65.0547 401.966 65.3267C386.264 68.1915 362.624 71.1288 357.731 71.1288C353.993 71.1288 336.037 67.8651 327.714 66.3058C324.862 65.78 321.953 65.5987 319.063 65.7981L202.694 73.6854L178.958 80.6661C172.08 82.6787 166.57 87.5198 163.892 93.8115C160.038 102.877 153.97 115.932 148.286 122.84C141.138 131.543 107.615 150.981 92.7989 159.339C88.3484 161.86 85.4391 166.193 84.9382 171.07L82.9923 190.417C82.4529 201.096 62.2425 217.941 48.6404 228.094C49.2377 231.177 49.2184 234.169 50.7019 237.196C52.1662 240.152 54.979 241.983 57.3873 244.377C61.414 248.347 63.5333 258.302 69.3325 259.063C73.0124 259.517 75.8445 257.123 79.5822 256.942C83.3199 256.779 87.5585 257.431 90.8337 255.781C93.743 254.313 96.1513 250.523 99.5999 249.87C102.952 249.236 107.172 251.756 110.235 252.772C110.524 257.613 110.235 258.737 106.305 261.638C102.952 264.104 101.796 265.264 101.411 269.561C100.64 278.283 105.669 279.733 110.216 285.989C114.647 292.117 107.499 297.049 107.711 303.431C107.923 310.249 114.878 315.126 120.658 318.825C127.209 322.977 136.013 321.726 134.453 331.064C133.432 337.174 129.482 343.611 125.263 348.271C120.215 353.892 116.747 357.772 119.791 365.478C121.063 368.633 122.662 371.389 123.375 374.671C124.184 378.351 123.452 382.376 124.28 386.003C125.475 391.116 131.12 398.042 136.341 400.145C143.855 403.173 151.06 400.073 151.06 409.864C151.06 416.391 152.794 426.382 142.968 425.058C139.539 424.587 137.805 422.647 134.588 421.287C130.792 419.71 126.226 420.362 122.007 420.38C117.941 420.38 113.183 420.997 109.522 419.655C106.806 418.658 104.513 416.119 102.162 414.433C96.9412 410.716 87.3465 409.374 85.1309 416.645C84.2061 419.71 86.8263 425.222 85.0731 427.887C82.1253 432.293 78.4262 428.322 76.5959 426.291C74.2647 423.735 71.7215 422.502 69.4481 420.036C66.8086 417.189 67.7334 413.962 62.9746 414.234C53.9965 414.778 59.9883 424.424 57.8883 429.573C54.9212 436.935 47.5615 436.173 40.6256 436.826C36.8687 437.207 33.0539 437.406 29.5282 438.53C25.3859 439.818 24.7887 441.993 22.8235 445.311C20.8969 448.575 18.6427 451.005 16.2344 453.688C13.8839 456.354 12.5353 459.871 11.2444 463.262C8.27739 470.986 10.6664 474.594 17.872 478.438C24.2492 481.828 29.8942 482.517 34.1136 488.7C40.0091 497.313 45.0954 488.301 50.0276 484.657C57.1947 479.363 60.2388 486.688 64.8627 490.332C71.6637 495.663 79.1198 492.889 82.1639 502.535C85.2465 512.199 83.0501 525.635 82.6455 535.661C82.2409 545.869 83.8786 555.407 84.0327 565.433C84.129 573.665 83.9942 581.299 86.6722 588.932C88.8493 595.151 94.3402 596.547 98.2127 601.588C102.374 606.991 103.646 615.404 105.611 621.569C107.884 628.785 106.574 634.696 114.878 637.924C119.367 639.682 131.929 644.759 124.145 650.797C121.409 652.919 117.094 652.066 113.992 654.17C110.524 656.49 109.599 660.044 110.004 663.924C110.389 667.46 111.507 669.98 114.03 672.736C116.246 675.148 120.87 675.964 122.527 678.484C126.13 683.96 119.772 692.718 116.631 696.942C108.289 708.166 94.9182 712.136 86.5181 722.671C81.3547 729.162 82.4914 732.589 85.3428 739.388C88.0979 746.006 85.7859 754.166 82.1253 760.149C78.1179 766.713 69.8912 767.474 65.2287 772.986C61.6067 777.265 63.5911 783.43 62.0883 788.471C60.4122 794.11 58.8516 802.16 55.0176 806.965C51.1065 811.879 43.3229 814.29 41.666 821.216C39.8935 828.578 46.0009 832.077 50.1817 836.701C52.7634 839.547 54.4588 843.119 57.1947 845.948C60.0076 848.849 63.6296 849.955 64.4388 853.872C65.7875 860.29 63.6296 869.211 59.4681 873.998C56.5589 877.334 54.2855 877.968 54.2469 882.828C54.2277 886.237 54.3433 889.79 56.0387 892.564C58.0424 895.883 60.2966 896.463 60.0654 900.832C59.8727 904.549 58.4663 908.103 56.0772 910.932C51.8386 915.936 47.8312 921.575 45.2881 927.685C42.61 934.177 44.3247 941.629 52.5322 943.188C59.391 944.493 69.6215 941.955 70.3729 951.13C70.6619 954.647 69.0435 957.802 66.4618 960.359C63.6104 963.187 61.4718 966.288 58.447 969.189C53.5533 973.885 46.8486 976.586 50.8946 984.292C53.4955 989.206 59.7378 998.254 58.3314 1003.57C57.4644 1006.74 53.8616 1009.01 54.4203 1012.8C54.8827 1015.91 57.6571 1018.18 60.6626 1018.65C64.1306 1019.21 68.215 1018.23 71.7986 1018.23C76.4032 1018.23 80.0253 1019.07 84.3602 1019.9C91.8741 1021.35 99.5614 1027.01 105.977 1021.05C108.829 1018.38 111.237 1015.55 113.106 1012.31C115.552 1008.1 116.747 1008.55 121.217 1006.34C126.476 1003.73 128.403 992.633 134.453 994.247C138.248 995.262 139.366 998.852 140.348 1001.79C141.947 1006.63 141.678 1006.32 147.053 1006.81C150.964 1007.16 154.856 1008.06 158.998 1007.65C160.963 1007.45 162.774 1007.19 164.547 1006.36C167.745 1004.87 166.146 1005.76 167.533 1003C170.635 996.876 173.467 990.439 176.858 984.528C180.538 978.109 185.065 972.924 190.113 967.249C195.643 961.048 195.99 956.678 205.777 957.167C209.572 957.349 213.021 956.714 216.489 955.572C221.98 953.759 231.478 946.524 233.405 956.388C234.445 961.791 228.53 966.596 227.066 971.89C224.966 979.379 228.241 983.893 236.006 985.797C239.531 986.686 242.653 985.979 246.255 986.631C249.473 987.23 252.613 988.027 256.158 988.191C263.942 988.571 267.005 983.621 271.148 978.526C274.153 974.809 275.964 973.83 274.847 968.88C274.153 965.889 272.284 962.752 270.897 959.978C267.853 953.904 263.537 950.622 263.229 943.768C262.863 935.609 265.194 931.729 271.302 926.235C274.192 923.642 275.926 920.197 280.068 919.834C284.557 919.417 286.349 921.938 289.123 924.331C291.589 926.434 295.038 927.994 297.042 930.604C299.758 934.122 297.966 935.029 297.138 939.09C295.963 944.874 299.122 954.121 304.613 957.222C312.878 961.9 314.516 951.003 319.757 948.7C328.465 944.856 331.066 954.738 331.374 960.431C331.548 963.695 331.008 967.684 334.939 968.717C337.925 969.515 342.549 966.85 344.726 965.018C349.774 960.758 347.462 952.181 343.377 947.086C341.508 944.747 338.194 942.318 337.212 939.38C336.229 936.389 336.981 932.527 336.672 929.408C335.96 922.88 331.259 919.037 325.055 916.426C320.778 914.612 309.468 910.877 307.657 906.399C305.172 900.343 312.801 892.292 317.868 890.334C329.64 885.819 347.731 879.582 357.403 890.914C360.158 894.16 359.773 895.937 358.867 900.016C358.077 903.679 355.187 905.692 354.109 909.264C351.912 916.426 359.33 918.456 363.722 922.336C368.867 926.869 372.084 931.439 380.677 928.828C388.923 926.344 391.273 917.713 386.977 911.294C383.875 906.653 375.648 901.993 376.342 896.299C376.958 891.313 383.259 883.517 388.73 882.773C396.514 881.722 404.336 887.524 407.457 893.67C411.06 900.796 417.071 901.141 425.278 900.742C433.313 900.379 436.703 894.341 443.427 891.422C449.207 888.902 456.606 891.15 461.364 894.722C465.044 897.46 473.733 906.743 478.627 903.498C484.388 899.69 481.613 888.412 482.731 882.646C483.829 877.044 486.738 867.942 490.379 863.445C496.814 855.503 500.494 873.254 506.891 864.66C508.837 862.067 507.507 857.643 510.32 855.431C513.056 853.291 516.851 854.76 519.703 855.757C522.188 856.646 526.465 857.335 528.7 858.966C531.436 860.979 531.59 864.442 533.96 866.727C539.277 871.876 548.872 868.105 555.77 868.721C565.422 869.592 570.778 867.071 578.908 863.101C585.883 859.71 592.125 856.736 599.427 854.053C606.324 851.533 613.241 851.242 619.792 847.997C625.495 845.15 627.826 837.517 632.276 832.948C637.709 827.327 642.141 821.126 647.477 815.759C652.795 810.428 659.211 806.766 664.046 801.163C666.435 798.407 667.302 794.527 669.268 791.481C672.755 786.15 676.049 781.454 677.205 775.09C678.361 768.707 677.61 762.125 679.016 755.761C680.635 748.4 681.81 740.893 682.542 733.532C683.91 719.77 691.886 709.417 691.867 694.93C691.848 687.623 691.212 679.989 693.216 673.153C695.489 665.284 697.05 657.27 698.398 649.22C698.976 645.775 700.518 641.895 699.824 638.304C699.015 634.08 696.53 634.152 692.272 633.3C687.609 632.394 685.259 631.813 681.906 634.968C678.939 637.76 678.227 640.009 673.564 640.027C664.605 640.063 667.977 629.456 667.302 623.69C666.859 620.01 664.644 618.885 663.353 615.658C662.216 612.775 662.813 608.859 662.813 605.668C662.794 590.401 663.796 575.206 667.746 560.81C671.926 545.507 668.979 530.729 669.807 515.009C670.115 508.845 673.468 503.169 676.03 497.494C679.093 490.677 678.4 483.642 677.013 476.752C675.625 469.898 679.787 464.078 679.421 457.26C679.074 450.606 677.726 443.498 675.934 437.134C672.138 423.68 665.318 409.846 663.372 396.048C662.351 388.904 663.372 380.962 663.372 373.728C663.353 369.848 663.989 365.496 663.333 361.67C662.756 358.189 660.81 355.252 659.307 352.042C656.224 345.46 652.178 339.894 648.248 333.602C644.626 327.782 638.191 323.304 634.665 317.066C631.409 311.3 628.654 305.299 625.822 299.279C624.57 296.578 623.876 293.622 621.911 291.193C619.464 288.165 615.187 286.714 612.509 283.831C609.407 280.495 607.615 276.034 605.631 272.045C602.568 265.899 600.333 259.335 599.061 252.753C596.711 240.841 590.622 226.481 581.625 217.578C576.828 212.809 570.605 209.582 564.343 206.572C558.139 203.617 552.841 198.649 547.273 194.642C541.185 190.236 536.079 186.029 532.534 179.483C529.432 173.718 524.442 170.363 520.396 165.323C511.592 154.353 512.324 140.138 508.451 127.518C506.428 121.009 503.866 113.629 501.265 107.428C498.992 102.007 495.08 97.2203 493.327 91.5813C491.728 86.4501 491.054 81.754 487.49 77.2392C485.255 74.3925 483 71.4552 481.266 68.3547C477.779 62.1355 475.833 55.4812 472.539 49.2802C468.763 42.1907 466.797 34.7749 463.696 27.3772C460.786 20.4509 459.939 12.473 456.451 6C456.49 6.14505 433.794 48.8813 432.253 49.6247Z" fill="white"/>
</mask>
<g mask="url(#mask0)">
<mask id="path-4-inside-1" fill="white">
<path d="M704.939 717.469L675.589 718.827C675.043 718.864 674.497 718.956 673.989 719.121L657.519 724.535C656.485 724.865 655.392 724.92 654.338 724.682L625.028 718.185C622.55 717.635 619.935 718.093 617.827 719.451L590.702 736.849C589.493 737.62 588.009 737.877 586.585 737.546L572.027 734.243C569.1 733.582 566.075 734.188 563.714 735.931L547.908 747.493C547.576 747.732 547.166 747.86 546.756 747.86H518.714C518.461 747.86 518.226 747.805 517.973 747.713L493.853 737.987C492.975 737.638 492.019 737.491 491.082 737.565C466.845 739.583 424.968 742.997 421.69 742.997C419.68 742.997 414.957 742.098 408.752 740.519C407.815 740.281 407.229 739.382 407.425 738.482L411.288 720.865C411.796 718.516 410.644 716.166 408.4 715.01L366.933 693.759C366.757 693.667 366.601 693.557 366.484 693.429L347.243 674.324C347.321 673.976 347.399 673.609 347.438 673.242L350.736 637.07C351.204 636.942 351.653 636.758 352.082 636.519L380.671 620.003C382.407 618.993 383.422 617.177 383.305 615.25L382.407 600.623C382.31 599.155 381.568 597.797 380.358 596.861L365.235 585.299C364.864 585.024 364.649 584.602 364.63 584.143L362.347 526.794C362.288 525.583 361.8 524.426 360.942 523.527L356.57 518.902C356.375 518.701 356.239 518.444 356.18 518.187L354.307 509.598C354.17 508.974 354.443 508.332 355.029 507.983L364.864 501.982C366.484 500.991 367.44 499.266 367.401 497.467C367.245 492.237 366.933 483.153 366.503 480.951C366.054 478.694 369.45 476.712 370.504 476.161C372.26 475.225 377.021 476.418 380.612 478.106C384.398 479.886 392.145 477.519 393.589 476.601C394.545 475.996 395.326 475.519 396.633 459.204C396.692 458.488 397.258 457.919 398.019 457.791L416.05 454.928C421.338 453.882 430.568 452.304 432.891 452.542C433.788 452.634 435.603 453.827 437.808 456.91C438.686 458.139 440.091 458.947 441.653 459.149L445.36 459.626C446.785 459.809 448.209 459.461 449.38 458.672L463.665 448.89C465.07 447.918 465.909 446.431 465.948 444.798C466.045 440.815 466.455 427.51 467.333 423.656C468.036 421.105 481.871 404.625 501.776 382.622C502.069 382.291 502.342 381.943 502.596 381.557C509.933 381.374 517.719 381.3 519.124 381.484C519.885 381.759 522.461 382.31 534.814 384.016C535.165 384.071 535.497 384.09 535.848 384.09C536.277 384.09 536.706 384.053 537.136 383.98L538.385 383.759C548.61 381.979 562.27 379.575 562.973 379.447C563.656 379.318 564.319 379.19 572.164 372.069C572.691 371.574 573.393 371.28 574.135 371.243C579.462 370.876 592.615 369.94 599.562 369.115C607.133 368.197 611.134 371.17 611.251 371.262L615.681 374.896C616.969 375.96 618.627 376.547 620.344 376.547H627.506C629.77 376.547 631.916 375.519 633.243 373.794C638.61 366.821 641.147 364.435 641.81 364.123C645.069 362.728 670.457 349.074 671.53 348.506L669.598 345.312C660.505 350.194 642.669 359.719 640.19 360.783C639.488 361.095 637.595 361.902 630.102 371.647C629.516 372.418 628.54 372.877 627.526 372.877H620.364C619.583 372.877 618.842 372.62 618.257 372.143L613.807 368.491C613.593 368.326 608.48 364.362 599.074 365.481C592.224 366.307 579.15 367.224 573.862 367.591C572.203 367.702 570.642 368.362 569.451 369.445C564.963 373.519 562.66 375.428 561.938 375.905C559.538 376.327 543.244 379.171 537.682 380.144L536.433 380.364C536.082 380.419 535.75 380.438 535.399 380.383C526.364 379.135 521.505 378.327 520.627 378.089C520.002 377.813 517.953 377.465 502.576 377.887C502.186 377.373 501.678 376.951 501.21 376.602C491.999 370.051 469.246 360.012 468.231 359.572C465.304 358.36 461.811 356.782 460.777 356.14C460.62 355.351 460.523 352.947 460.952 347.882C461.108 346.083 460.269 344.358 458.708 343.275L455.117 340.779C454.005 340.009 452.639 339.66 451.273 339.77L429.885 341.715C426.549 341.862 398.448 343.147 393.882 343.495C392.282 342.413 386.72 336.375 377.743 325.089C376.69 323.767 375.05 322.996 373.275 322.996C370.523 322.996 366.737 323.345 364.376 324.96C363.557 325.511 361.098 327.199 356.414 348.083C356.278 348.726 355.712 349.203 355.029 349.295C344.686 350.543 337.486 351.295 335.788 351.295C334.149 351.203 327.241 346.799 321.445 342.523L326.636 301.818C326.714 301.25 326.675 300.681 326.558 300.13C324.352 289.743 320.567 271.281 320.372 268.033C320.313 266.968 321.972 264.344 326.909 260.417C328.255 259.352 328.997 257.774 328.938 256.122C328.88 254.471 328.041 252.966 326.636 251.975L321.972 248.708C320.996 248.029 319.786 247.644 318.557 247.644H298.594C294.945 247.644 283.86 243.772 268.932 237.275C268.073 236.908 267.664 235.99 267.995 235.128L284.251 193.084C284.446 192.57 284.563 192.038 284.582 191.505C284.934 184.532 285.363 167.85 281.597 163.794C279.684 161.739 276.972 156.27 274.357 149.131C273.713 147.406 272.21 146.103 270.337 145.681C267.586 145.039 262.063 143.662 256.014 141.515C251.369 139.882 250.881 130.063 251.955 121.42C252.228 119.236 251.077 117.125 249.028 116.079C241.105 112.005 226.742 105.197 219.932 105.656C212.809 106.114 205.667 98.0028 203.696 93.3414C201.276 87.7808 169.39 83.8168 155.788 82.3854L155.359 86.0374C175.361 88.1479 198.134 92.1119 200.047 94.7362C202.349 100.132 210.526 109.987 220.166 109.363C225.162 109.087 237.338 114.318 247.135 119.346C247.779 119.676 248.149 120.355 248.071 121.034C247.096 128.779 246.647 142.176 254.628 145.002C260.853 147.204 266.551 148.636 269.381 149.296C269.986 149.443 270.454 149.828 270.649 150.397C272.308 154.894 275.547 162.95 278.631 166.272C280.445 168.235 281.304 178.788 280.66 191.395C280.66 191.561 280.621 191.726 280.563 191.891L264.307 233.935C263.273 236.596 264.561 239.477 267.273 240.652C276.465 244.652 292.759 251.351 298.574 251.351H318.537C318.928 251.351 319.298 251.461 319.63 251.681L324.294 254.948C324.918 255.37 325.016 255.957 325.035 256.269C325.055 256.801 324.821 257.297 324.372 257.646C318.869 262.032 316.293 265.5 316.449 268.271C316.703 272.419 321.699 296.166 322.713 300.882C322.752 301.048 322.752 301.231 322.733 301.415L317.425 343.128C317.386 343.44 317.269 343.734 317.054 343.973C300.818 363.444 282.67 384.897 278.455 389.247C277.382 388.714 275.411 387.797 271.723 386.108C269.791 385.228 267.547 385.411 265.829 386.604L230.255 411.104C229.747 411.452 229.084 411.544 228.499 411.306C223.405 409.379 210.702 404.882 202.74 404.662C198.232 404.534 189.47 405.984 179.342 407.672C167.302 409.672 153.642 411.93 144.568 411.93V415.6C153.993 415.6 167.829 413.306 180.025 411.287C189.529 409.709 198.486 408.222 202.642 408.333C210.175 408.534 223.23 413.269 227.035 414.701C227.425 414.847 227.816 414.939 228.225 414.994L245.613 439.476C245.73 439.622 245.788 439.788 245.847 439.971C248.149 448.927 249.164 454.653 248.988 455.68C248.423 458.084 238.295 477.005 235.972 478.602C233.533 479.997 233.553 484.089 243.973 517.398C245.105 521.031 246.003 523.894 246.237 524.867C247.076 528.299 253.73 531.822 269.205 537.071C270.122 537.383 270.786 537.603 271.079 537.713C272.425 538.245 276.426 543.714 277.694 547.146C278.065 548.449 275.684 554.578 270.552 563.406C270.103 564.176 269.869 565.039 269.869 565.902V589.374C269.869 590.438 269.869 592.236 281.753 599.082C282.104 599.284 282.358 599.596 282.475 599.963L291.842 630.115C291.9 630.316 291.998 630.5 292.076 630.702C276.894 637.804 254.316 648.154 250.608 649.311C249.847 648.797 248.091 646.87 245.671 643.034C245.476 642.722 245.32 642.374 245.222 642.007L243.564 636.097C243.29 635.106 242.802 634.189 242.158 633.381L238.158 628.426C236.109 625.875 232.655 624.793 229.377 625.637L191.148 635.62C189.49 636.042 187.733 635.529 186.621 634.281L180.025 626.793C178.796 625.398 177.079 624.444 175.205 624.114L160.277 621.471C158.325 621.122 156.296 621.453 154.598 622.389L115.648 643.53L117.599 646.705L156.53 625.618C157.428 625.123 158.501 624.958 159.535 625.123L174.464 627.766C175.459 627.949 176.356 628.445 177 629.179L183.596 636.666C185.665 639.015 189.041 640.006 192.163 639.199L230.391 629.234C232.109 628.775 233.943 629.362 235.016 630.702L239.017 635.657C239.368 636.079 239.602 636.556 239.758 637.088L241.417 642.998C241.612 643.695 241.905 644.337 242.276 644.961C247.408 653.109 249.574 653.109 250.491 653.109C252.657 653.109 275.645 642.557 294.945 633.491C295.51 633.73 296.115 633.877 296.759 633.913L346.774 637.18L343.496 672.948C343.418 673.847 343.028 674.71 342.384 675.389L327.767 690.969C327.533 691.226 327.26 691.447 326.987 691.63L302.321 707.926C300.721 708.991 299.569 710.532 299.042 712.294L287.802 750.852C287.275 752.668 287.451 754.614 288.31 756.339L300.233 779.921C300.838 781.095 300.799 782.508 300.174 783.665L289.207 803.778C288.407 805.246 286.729 806.146 284.992 806.072L250.94 804.567C249.984 804.531 249.028 804.641 248.11 804.898L226.059 811.192C225.532 811.339 225.005 811.394 224.459 811.358L184.631 808.917C182.855 808.807 181.313 807.724 180.708 806.146L174.151 789.317C172.941 786.215 169.78 784.123 166.268 784.123H164.96C162.482 784.123 160.14 785.151 158.54 786.913L155.32 790.491C154.11 791.849 152.1 792.345 150.324 791.721L146.48 790.418C145.661 790.124 144.939 789.629 144.431 788.968L140.294 783.72C138.616 781.573 135.903 780.38 133.074 780.526L106.417 781.903C103.724 782.05 101.246 783.389 99.8021 785.536L79.9756 814.661C79.156 815.89 77.7315 816.606 76.1899 816.606H66.9987C65.7888 816.606 64.6374 816.147 63.7788 815.34L45.8452 798.163L43.0547 800.732L60.9883 817.909C62.5494 819.414 64.735 820.277 66.9791 820.277H76.1704C79.0585 820.277 81.6929 818.918 83.254 816.643L103.08 787.518C103.861 786.381 105.188 785.647 106.632 785.573L133.289 784.197C134.811 784.123 136.255 784.766 137.152 785.904L141.289 791.152C142.265 792.382 143.592 793.318 145.114 793.85L148.998 795.208C152.295 796.364 156.062 795.428 158.325 792.896L161.545 789.317C162.404 788.363 163.653 787.812 164.98 787.812H166.287C168.16 787.812 169.858 788.932 170.522 790.583L177.079 807.412C178.23 810.348 181.098 812.385 184.416 812.587L224.225 815.028C225.24 815.083 226.235 814.991 227.211 814.698L249.262 808.403C249.75 808.256 250.257 808.201 250.784 808.219L284.836 809.724C285.48 809.761 286.105 809.688 286.729 809.596L292.31 848.85C292.876 852.814 295.237 856.375 298.769 858.595L317.932 870.634C319.884 871.864 321.328 873.589 322.128 875.644L334.636 907.852L338.305 906.585L325.797 874.378C324.704 871.57 322.733 869.221 320.098 867.569L300.935 855.53C298.32 853.897 296.584 851.273 296.174 848.336L290.456 808.017C291.373 807.32 292.154 806.458 292.72 805.43L303.687 785.316C304.877 783.132 304.916 780.526 303.804 778.324L291.881 754.742C291.412 753.824 291.315 752.778 291.608 751.806L302.848 713.249C303.121 712.294 303.745 711.468 304.604 710.9L329.27 694.603C329.797 694.254 330.304 693.832 330.734 693.373L345.35 677.793L363.635 695.961C364.044 696.383 364.532 696.732 365.059 696.989L406.527 718.24C407.249 718.607 407.62 719.378 407.464 720.13L403.6 737.748C402.995 740.556 404.81 743.327 407.737 744.061C412.44 745.254 418.665 746.667 421.709 746.667C425.846 746.667 480.525 742.116 491.453 741.217C491.765 741.18 492.058 741.235 492.351 741.345L516.47 751.072C517.192 751.365 517.953 751.512 518.734 751.512H546.776C548.044 751.512 549.293 751.108 550.308 750.374L566.114 738.813C567.539 737.767 569.373 737.4 571.13 737.803L585.687 741.107C588.166 741.676 590.8 741.217 592.907 739.859L620.032 722.461C621.223 721.69 622.725 721.434 624.13 721.745L653.441 728.242C655.216 728.627 657.07 728.554 658.807 727.985L675.277 722.571C675.433 722.516 675.609 722.479 675.804 722.479L705.134 721.121L704.939 717.469ZM295.589 629.124L286.222 598.972C285.831 597.724 284.973 596.659 283.802 595.98C276.972 592.035 274.337 589.851 273.791 589.135V565.938C273.791 565.681 273.85 565.424 273.986 565.204C279.88 555.074 282.377 548.614 281.382 545.99C280.133 542.631 275.664 535.566 272.581 534.373C272.249 534.245 271.527 534.006 270.532 533.657C252.169 527.436 250.198 524.757 250.042 524.078C249.769 522.995 248.91 520.224 247.72 516.407C245.027 507.818 237.982 485.282 238.509 481.41C242.529 477.941 252.247 458.947 252.813 456.488C253.223 454.726 252.15 448.89 249.652 439.145C249.496 438.558 249.242 437.989 248.871 437.475L232.343 414.187C232.421 414.15 232.499 414.113 232.557 414.077L268.132 389.577C268.678 389.192 269.4 389.137 270.005 389.412C276.601 392.44 277.538 392.954 277.655 393.009C279.645 394.238 279.645 394.238 298.555 371.923C307.785 361.04 317.405 349.515 320.118 346.23C324.84 349.662 332.646 354.965 335.749 354.965C338.344 354.965 349.233 353.699 355.497 352.928C357.839 352.653 359.732 351.001 360.22 348.836C363.147 335.824 365.625 328.851 366.659 327.933C367.83 327.144 370.23 326.685 373.275 326.667C373.821 326.667 374.309 326.887 374.621 327.291C390.72 347.551 392.535 347.349 393.862 347.184C395.423 347.001 416.382 346.01 430.178 345.386L451.663 343.44C452.073 343.404 452.483 343.514 452.795 343.734L456.386 346.23C456.854 346.56 457.108 347.056 457.049 347.588C456.23 357.113 457.127 357.957 457.791 358.581C459.02 359.737 464.406 362.013 466.611 362.912C466.845 363.022 489.95 373.207 498.829 379.538C498.966 379.649 499.083 379.722 499.161 379.795C499.083 379.906 498.966 380.052 498.771 380.254C483.179 397.468 464.406 418.848 463.489 422.886C462.572 426.941 462.143 439.494 462.025 444.706C462.006 445.183 461.772 445.624 461.342 445.917L447.058 455.699C446.707 455.937 446.277 456.047 445.868 455.974L442.16 455.497C441.692 455.442 441.282 455.203 441.028 454.855C439.194 452.304 436.384 449.202 433.281 448.89C429.612 448.541 416.694 451.056 415.308 451.331L397.355 454.176C394.838 454.579 392.926 456.525 392.73 458.929C392.008 467.866 391.364 472.362 390.994 473.739C389.198 474.473 384.105 475.647 382.349 474.821C380.827 474.106 372.982 470.637 368.591 472.968C364.201 475.298 362.034 478.455 362.678 481.648C362.952 483.061 363.264 489.026 363.518 497.596C363.537 498.147 363.244 498.642 362.757 498.936L352.921 504.937C350.989 506.111 350.033 508.258 350.502 510.369L352.375 518.957C352.57 519.857 353.019 520.701 353.663 521.38L358.034 526.005C358.288 526.28 358.444 526.61 358.444 526.977L360.727 584.327C360.786 585.832 361.527 587.245 362.776 588.181L377.9 599.742C378.251 600.018 378.485 600.421 378.504 600.862L379.402 615.488C379.441 616.057 379.129 616.608 378.622 616.901L350.033 633.418C349.741 633.583 349.389 633.675 349.058 633.638L297.072 630.243C296.369 630.206 295.764 629.748 295.589 629.124Z"/>
</mask>
<path d="M704.939 717.469L675.589 718.827C675.043 718.864 674.497 718.956 673.989 719.121L657.519 724.535C656.485 724.865 655.392 724.92 654.338 724.682L625.028 718.185C622.55 717.635 619.935 718.093 617.827 719.451L590.702 736.849C589.493 737.62 588.009 737.877 586.585 737.546L572.027 734.243C569.1 733.582 566.075 734.188 563.714 735.931L547.908 747.493C547.576 747.732 547.166 747.86 546.756 747.86H518.714C518.461 747.86 518.226 747.805 517.973 747.713L493.853 737.987C492.975 737.638 492.019 737.491 491.082 737.565C466.845 739.583 424.968 742.997 421.69 742.997C419.68 742.997 414.957 742.098 408.752 740.519C407.815 740.281 407.229 739.382 407.425 738.482L411.288 720.865C411.796 718.516 410.644 716.166 408.4 715.01L366.933 693.759C366.757 693.667 366.601 693.557 366.484 693.429L347.243 674.324C347.321 673.976 347.399 673.609 347.438 673.242L350.736 637.07C351.204 636.942 351.653 636.758 352.082 636.519L380.671 620.003C382.407 618.993 383.422 617.177 383.305 615.25L382.407 600.623C382.31 599.155 381.568 597.797 380.358 596.861L365.235 585.299C364.864 585.024 364.649 584.602 364.63 584.143L362.347 526.794C362.288 525.583 361.8 524.426 360.942 523.527L356.57 518.902C356.375 518.701 356.239 518.444 356.18 518.187L354.307 509.598C354.17 508.974 354.443 508.332 355.029 507.983L364.864 501.982C366.484 500.991 367.44 499.266 367.401 497.467C367.245 492.237 366.933 483.153 366.503 480.951C366.054 478.694 369.45 476.712 370.504 476.161C372.26 475.225 377.021 476.418 380.612 478.106C384.398 479.886 392.145 477.519 393.589 476.601C394.545 475.996 395.326 475.519 396.633 459.204C396.692 458.488 397.258 457.919 398.019 457.791L416.05 454.928C421.338 453.882 430.568 452.304 432.891 452.542C433.788 452.634 435.603 453.827 437.808 456.91C438.686 458.139 440.091 458.947 441.653 459.149L445.36 459.626C446.785 459.809 448.209 459.461 449.38 458.672L463.665 448.89C465.07 447.918 465.909 446.431 465.948 444.798C466.045 440.815 466.455 427.51 467.333 423.656C468.036 421.105 481.871 404.625 501.776 382.622C502.069 382.291 502.342 381.943 502.596 381.557C509.933 381.374 517.719 381.3 519.124 381.484C519.885 381.759 522.461 382.31 534.814 384.016C535.165 384.071 535.497 384.09 535.848 384.09C536.277 384.09 536.706 384.053 537.136 383.98L538.385 383.759C548.61 381.979 562.27 379.575 562.973 379.447C563.656 379.318 564.319 379.19 572.164 372.069C572.691 371.574 573.393 371.28 574.135 371.243C579.462 370.876 592.615 369.94 599.562 369.115C607.133 368.197 611.134 371.17 611.251 371.262L615.681 374.896C616.969 375.96 618.627 376.547 620.344 376.547H627.506C629.77 376.547 631.916 375.519 633.243 373.794C638.61 366.821 641.147 364.435 641.81 364.123C645.069 362.728 670.457 349.074 671.53 348.506L669.598 345.312C660.505 350.194 642.669 359.719 640.19 360.783C639.488 361.095 637.595 361.902 630.102 371.647C629.516 372.418 628.54 372.877 627.526 372.877H620.364C619.583 372.877 618.842 372.62 618.257 372.143L613.807 368.491C613.593 368.326 608.48 364.362 599.074 365.481C592.224 366.307 579.15 367.224 573.862 367.591C572.203 367.702 570.642 368.362 569.451 369.445C564.963 373.519 562.66 375.428 561.938 375.905C559.538 376.327 543.244 379.171 537.682 380.144L536.433 380.364C536.082 380.419 535.75 380.438 535.399 380.383C526.364 379.135 521.505 378.327 520.627 378.089C520.002 377.813 517.953 377.465 502.576 377.887C502.186 377.373 501.678 376.951 501.21 376.602C491.999 370.051 469.246 360.012 468.231 359.572C465.304 358.36 461.811 356.782 460.777 356.14C460.62 355.351 460.523 352.947 460.952 347.882C461.108 346.083 460.269 344.358 458.708 343.275L455.117 340.779C454.005 340.009 452.639 339.66 451.273 339.77L429.885 341.715C426.549 341.862 398.448 343.147 393.882 343.495C392.282 342.413 386.72 336.375 377.743 325.089C376.69 323.767 375.05 322.996 373.275 322.996C370.523 322.996 366.737 323.345 364.376 324.96C363.557 325.511 361.098 327.199 356.414 348.083C356.278 348.726 355.712 349.203 355.029 349.295C344.686 350.543 337.486 351.295 335.788 351.295C334.149 351.203 327.241 346.799 321.445 342.523L326.636 301.818C326.714 301.25 326.675 300.681 326.558 300.13C324.352 289.743 320.567 271.281 320.372 268.033C320.313 266.968 321.972 264.344 326.909 260.417C328.255 259.352 328.997 257.774 328.938 256.122C328.88 254.471 328.041 252.966 326.636 251.975L321.972 248.708C320.996 248.029 319.786 247.644 318.557 247.644H298.594C294.945 247.644 283.86 243.772 268.932 237.275C268.073 236.908 267.664 235.99 267.995 235.128L284.251 193.084C284.446 192.57 284.563 192.038 284.582 191.505C284.934 184.532 285.363 167.85 281.597 163.794C279.684 161.739 276.972 156.27 274.357 149.131C273.713 147.406 272.21 146.103 270.337 145.681C267.586 145.039 262.063 143.662 256.014 141.515C251.369 139.882 250.881 130.063 251.955 121.42C252.228 119.236 251.077 117.125 249.028 116.079C241.105 112.005 226.742 105.197 219.932 105.656C212.809 106.114 205.667 98.0028 203.696 93.3414C201.276 87.7808 169.39 83.8168 155.788 82.3854L155.359 86.0374C175.361 88.1479 198.134 92.1119 200.047 94.7362C202.349 100.132 210.526 109.987 220.166 109.363C225.162 109.087 237.338 114.318 247.135 119.346C247.779 119.676 248.149 120.355 248.071 121.034C247.096 128.779 246.647 142.176 254.628 145.002C260.853 147.204 266.551 148.636 269.381 149.296C269.986 149.443 270.454 149.828 270.649 150.397C272.308 154.894 275.547 162.95 278.631 166.272C280.445 168.235 281.304 178.788 280.66 191.395C280.66 191.561 280.621 191.726 280.563 191.891L264.307 233.935C263.273 236.596 264.561 239.477 267.273 240.652C276.465 244.652 292.759 251.351 298.574 251.351H318.537C318.928 251.351 319.298 251.461 319.63 251.681L324.294 254.948C324.918 255.37 325.016 255.957 325.035 256.269C325.055 256.801 324.821 257.297 324.372 257.646C318.869 262.032 316.293 265.5 316.449 268.271C316.703 272.419 321.699 296.166 322.713 300.882C322.752 301.048 322.752 301.231 322.733 301.415L317.425 343.128C317.386 343.44 317.269 343.734 317.054 343.973C300.818 363.444 282.67 384.897 278.455 389.247C277.382 388.714 275.411 387.797 271.723 386.108C269.791 385.228 267.547 385.411 265.829 386.604L230.255 411.104C229.747 411.452 229.084 411.544 228.499 411.306C223.405 409.379 210.702 404.882 202.74 404.662C198.232 404.534 189.47 405.984 179.342 407.672C167.302 409.672 153.642 411.93 144.568 411.93V415.6C153.993 415.6 167.829 413.306 180.025 411.287C189.529 409.709 198.486 408.222 202.642 408.333C210.175 408.534 223.23 413.269 227.035 414.701C227.425 414.847 227.816 414.939 228.225 414.994L245.613 439.476C245.73 439.622 245.788 439.788 245.847 439.971C248.149 448.927 249.164 454.653 248.988 455.68C248.423 458.084 238.295 477.005 235.972 478.602C233.533 479.997 233.553 484.089 243.973 517.398C245.105 521.031 246.003 523.894 246.237 524.867C247.076 528.299 253.73 531.822 269.205 537.071C270.122 537.383 270.786 537.603 271.079 537.713C272.425 538.245 276.426 543.714 277.694 547.146C278.065 548.449 275.684 554.578 270.552 563.406C270.103 564.176 269.869 565.039 269.869 565.902V589.374C269.869 590.438 269.869 592.236 281.753 599.082C282.104 599.284 282.358 599.596 282.475 599.963L291.842 630.115C291.9 630.316 291.998 630.5 292.076 630.702C276.894 637.804 254.316 648.154 250.608 649.311C249.847 648.797 248.091 646.87 245.671 643.034C245.476 642.722 245.32 642.374 245.222 642.007L243.564 636.097C243.29 635.106 242.802 634.189 242.158 633.381L238.158 628.426C236.109 625.875 232.655 624.793 229.377 625.637L191.148 635.62C189.49 636.042 187.733 635.529 186.621 634.281L180.025 626.793C178.796 625.398 177.079 624.444 175.205 624.114L160.277 621.471C158.325 621.122 156.296 621.453 154.598 622.389L115.648 643.53L117.599 646.705L156.53 625.618C157.428 625.123 158.501 624.958 159.535 625.123L174.464 627.766C175.459 627.949 176.356 628.445 177 629.179L183.596 636.666C185.665 639.015 189.041 640.006 192.163 639.199L230.391 629.234C232.109 628.775 233.943 629.362 235.016 630.702L239.017 635.657C239.368 636.079 239.602 636.556 239.758 637.088L241.417 642.998C241.612 643.695 241.905 644.337 242.276 644.961C247.408 653.109 249.574 653.109 250.491 653.109C252.657 653.109 275.645 642.557 294.945 633.491C295.51 633.73 296.115 633.877 296.759 633.913L346.774 637.18L343.496 672.948C343.418 673.847 343.028 674.71 342.384 675.389L327.767 690.969C327.533 691.226 327.26 691.447 326.987 691.63L302.321 707.926C300.721 708.991 299.569 710.532 299.042 712.294L287.802 750.852C287.275 752.668 287.451 754.614 288.31 756.339L300.233 779.921C300.838 781.095 300.799 782.508 300.174 783.665L289.207 803.778C288.407 805.246 286.729 806.146 284.992 806.072L250.94 804.567C249.984 804.531 249.028 804.641 248.11 804.898L226.059 811.192C225.532 811.339 225.005 811.394 224.459 811.358L184.631 808.917C182.855 808.807 181.313 807.724 180.708 806.146L174.151 789.317C172.941 786.215 169.78 784.123 166.268 784.123H164.96C162.482 784.123 160.14 785.151 158.54 786.913L155.32 790.491C154.11 791.849 152.1 792.345 150.324 791.721L146.48 790.418C145.661 790.124 144.939 789.629 144.431 788.968L140.294 783.72C138.616 781.573 135.903 780.38 133.074 780.526L106.417 781.903C103.724 782.05 101.246 783.389 99.8021 785.536L79.9756 814.661C79.156 815.89 77.7315 816.606 76.1899 816.606H66.9987C65.7888 816.606 64.6374 816.147 63.7788 815.34L45.8452 798.163L43.0547 800.732L60.9883 817.909C62.5494 819.414 64.735 820.277 66.9791 820.277H76.1704C79.0585 820.277 81.6929 818.918 83.254 816.643L103.08 787.518C103.861 786.381 105.188 785.647 106.632 785.573L133.289 784.197C134.811 784.123 136.255 784.766 137.152 785.904L141.289 791.152C142.265 792.382 143.592 793.318 145.114 793.85L148.998 795.208C152.295 796.364 156.062 795.428 158.325 792.896L161.545 789.317C162.404 788.363 163.653 787.812 164.98 787.812H166.287C168.16 787.812 169.858 788.932 170.522 790.583L177.079 807.412C178.23 810.348 181.098 812.385 184.416 812.587L224.225 815.028C225.24 815.083 226.235 814.991 227.211 814.698L249.262 808.403C249.75 808.256 250.257 808.201 250.784 808.219L284.836 809.724C285.48 809.761 286.105 809.688 286.729 809.596L292.31 848.85C292.876 852.814 295.237 856.375 298.769 858.595L317.932 870.634C319.884 871.864 321.328 873.589 322.128 875.644L334.636 907.852L338.305 906.585L325.797 874.378C324.704 871.57 322.733 869.221 320.098 867.569L300.935 855.53C298.32 853.897 296.584 851.273 296.174 848.336L290.456 808.017C291.373 807.32 292.154 806.458 292.72 805.43L303.687 785.316C304.877 783.132 304.916 780.526 303.804 778.324L291.881 754.742C291.412 753.824 291.315 752.778 291.608 751.806L302.848 713.249C303.121 712.294 303.745 711.468 304.604 710.9L329.27 694.603C329.797 694.254 330.304 693.832 330.734 693.373L345.35 677.793L363.635 695.961C364.044 696.383 364.532 696.732 365.059 696.989L406.527 718.24C407.249 718.607 407.62 719.378 407.464 720.13L403.6 737.748C402.995 740.556 404.81 743.327 407.737 744.061C412.44 745.254 418.665 746.667 421.709 746.667C425.846 746.667 480.525 742.116 491.453 741.217C491.765 741.18 492.058 741.235 492.351 741.345L516.47 751.072C517.192 751.365 517.953 751.512 518.734 751.512H546.776C548.044 751.512 549.293 751.108 550.308 750.374L566.114 738.813C567.539 737.767 569.373 737.4 571.13 737.803L585.687 741.107C588.166 741.676 590.8 741.217 592.907 739.859L620.032 722.461C621.223 721.69 622.725 721.434 624.13 721.745L653.441 728.242C655.216 728.627 657.07 728.554 658.807 727.985L675.277 722.571C675.433 722.516 675.609 722.479 675.804 722.479L705.134 721.121L704.939 717.469ZM295.589 629.124L286.222 598.972C285.831 597.724 284.973 596.659 283.802 595.98C276.972 592.035 274.337 589.851 273.791 589.135V565.938C273.791 565.681 273.85 565.424 273.986 565.204C279.88 555.074 282.377 548.614 281.382 545.99C280.133 542.631 275.664 535.566 272.581 534.373C272.249 534.245 271.527 534.006 270.532 533.657C252.169 527.436 250.198 524.757 250.042 524.078C249.769 522.995 248.91 520.224 247.72 516.407C245.027 507.818 237.982 485.282 238.509 481.41C242.529 477.941 252.247 458.947 252.813 456.488C253.223 454.726 252.15 448.89 249.652 439.145C249.496 438.558 249.242 437.989 248.871 437.475L232.343 414.187C232.421 414.15 232.499 414.113 232.557 414.077L268.132 389.577C268.678 389.192 269.4 389.137 270.005 389.412C276.601 392.44 277.538 392.954 277.655 393.009C279.645 394.238 279.645 394.238 298.555 371.923C307.785 361.04 317.405 349.515 320.118 346.23C324.84 349.662 332.646 354.965 335.749 354.965C338.344 354.965 349.233 353.699 355.497 352.928C357.839 352.653 359.732 351.001 360.22 348.836C363.147 335.824 365.625 328.851 366.659 327.933C367.83 327.144 370.23 326.685 373.275 326.667C373.821 326.667 374.309 326.887 374.621 327.291C390.72 347.551 392.535 347.349 393.862 347.184C395.423 347.001 416.382 346.01 430.178 345.386L451.663 343.44C452.073 343.404 452.483 343.514 452.795 343.734L456.386 346.23C456.854 346.56 457.108 347.056 457.049 347.588C456.23 357.113 457.127 357.957 457.791 358.581C459.02 359.737 464.406 362.013 466.611 362.912C466.845 363.022 489.95 373.207 498.829 379.538C498.966 379.649 499.083 379.722 499.161 379.795C499.083 379.906 498.966 380.052 498.771 380.254C483.179 397.468 464.406 418.848 463.489 422.886C462.572 426.941 462.143 439.494 462.025 444.706C462.006 445.183 461.772 445.624 461.342 445.917L447.058 455.699C446.707 455.937 446.277 456.047 445.868 455.974L442.16 455.497C441.692 455.442 441.282 455.203 441.028 454.855C439.194 452.304 436.384 449.202 433.281 448.89C429.612 448.541 416.694 451.056 415.308 451.331L397.355 454.176C394.838 454.579 392.926 456.525 392.73 458.929C392.008 467.866 391.364 472.362 390.994 473.739C389.198 474.473 384.105 475.647 382.349 474.821C380.827 474.106 372.982 470.637 368.591 472.968C364.201 475.298 362.034 478.455 362.678 481.648C362.952 483.061 363.264 489.026 363.518 497.596C363.537 498.147 363.244 498.642 362.757 498.936L352.921 504.937C350.989 506.111 350.033 508.258 350.502 510.369L352.375 518.957C352.57 519.857 353.019 520.701 353.663 521.38L358.034 526.005C358.288 526.28 358.444 526.61 358.444 526.977L360.727 584.327C360.786 585.832 361.527 587.245 362.776 588.181L377.9 599.742C378.251 600.018 378.485 600.421 378.504 600.862L379.402 615.488C379.441 616.057 379.129 616.608 378.622 616.901L350.033 633.418C349.741 633.583 349.389 633.675 349.058 633.638L297.072 630.243C296.369 630.206 295.764 629.748 295.589 629.124Z" fill="#404040" stroke="#4A4A4A" stroke-width="2" mask="url(#path-4-inside-1)"/>
</g>
</g>
<defs>
<filter id="filter0_d" x="0" y="0" width="710" height="1135.47" filterUnits="userSpaceOnUse" color-interpolation-filters="sRGB">
<feFlood flood-opacity="0" result="BackgroundImageFix"/>
<feColorMatrix in="SourceAlpha" type="matrix" values="0 0 0 0 0 0 0 0 0 0 0 0 0 0 0 0 0 0 127 0"/>
<feOffset dy="4"/>
<feGaussianBlur stdDeviation="5"/>
<feColorMatrix type="matrix" values="0 0 0 0 0 0 0 0 0 0 0 0 0 0 0 0 0 0 0.2 0"/>
<feBlend mode="normal" in2="BackgroundImageFix" result="effect1_dropShadow"/>
<feBlend mode="normal" in="SourceGraphic" in2="effect1_dropShadow" result="shape"/>
</filter>
</defs>
</svg>
