<svg width="169" height="25" viewBox="0 0 169 25" fill="none" xmlns="http://www.w3.org/2000/svg">
<g opacity="0.6">
<mask id="mask0" mask-type="alpha" maskUnits="userSpaceOnUse" x="0" y="0" width="25" height="25">
<path fill-rule="evenodd" clip-rule="evenodd" d="M0.271484 0.000244141H24.2023V24.1319H0.271484V0.000244141Z" fill="white"/>
</mask>
<g mask="url(#mask0)">
<path fill-rule="evenodd" clip-rule="evenodd" d="M12.2369 0.000244141C5.62837 0.000244141 0.271484 5.40241 0.271484 12.0661C0.271484 18.7298 5.62837 24.132 12.2369 24.132C17.8544 24.132 22.5622 20.226 23.8494 14.9618H18.8058C17.6971 17.516 15.1787 19.3056 12.2369 19.3056C8.27183 19.3056 5.05764 16.0644 5.05764 12.0661C5.05764 8.06776 8.27183 4.82659 12.2369 4.82659H19.4161H21.8095H24.2023V0.000244141H12.2369Z" fill="#404040"/>
</g>
<mask id="mask1" mask-type="alpha" maskUnits="userSpaceOnUse" x="0" y="0" width="169" height="25">
<path fill-rule="evenodd" clip-rule="evenodd" d="M0.271484 24.1317H168.782V0H0.271484V24.1317Z" fill="white"/>
</mask>
<g mask="url(#mask1)">
<path fill-rule="evenodd" clip-rule="evenodd" d="M14.1992 12.223H23.9978V7.28247H14.1992V12.223Z" fill="#404040"/>
<path fill-rule="evenodd" clip-rule="evenodd" d="M40.5664 0C46.8286 0 51.0215 3.80577 51.9435 8.6549H46.7989C46.2687 6.45583 43.949 4.70806 40.6779 4.70806C36.5398 4.70806 33.4643 7.78132 33.4643 12.0659C33.4643 16.3226 36.5398 19.424 40.6779 19.424C43.949 19.424 46.6327 17.2536 47.0242 15.1672H52.1663C51.4675 19.7901 46.8831 24.1317 40.5664 24.1317C33.5488 24.1317 28.377 19.0292 28.377 12.0659C28.377 5.10255 33.5488 0 40.5664 0Z" fill="#404040"/>
<path fill-rule="evenodd" clip-rule="evenodd" d="M73.6236 12.0659C73.6236 7.72515 70.5505 4.62411 66.4125 4.62411C62.2741 4.62411 59.1989 7.72515 59.1989 12.0659C59.1989 16.3791 62.2741 19.5089 66.4125 19.5089C70.5505 19.5089 73.6236 16.3791 73.6236 12.0659ZM54.1113 12.0659C54.1113 5.10255 59.3401 0 66.4125 0C73.485 0 78.7134 5.10255 78.7134 12.0659C78.7134 19.0292 73.485 24.1317 66.4125 24.1317C59.3401 24.1317 54.1113 19.0292 54.1113 12.0659Z" fill="#404040"/>
<path fill-rule="evenodd" clip-rule="evenodd" d="M100.252 12.0659C100.252 7.72515 97.1792 4.62411 93.0412 4.62411C88.9028 4.62411 85.8276 7.72515 85.8276 12.0659C85.8276 16.3791 88.9028 19.5089 93.0412 19.5089C97.1792 19.5089 100.252 16.3791 100.252 12.0659ZM80.7402 12.0659C80.7402 5.10255 85.969 0 93.0414 0C100.114 0 105.342 5.10255 105.342 12.0659C105.342 19.0292 100.114 24.1317 93.0414 24.1317C85.969 24.1317 80.7402 19.0292 80.7402 12.0659Z" fill="#404040"/>
<path fill-rule="evenodd" clip-rule="evenodd" d="M125.961 5.1315H118.552V23.5683H113.464V5.1315H106.055V0.592285H125.961V5.1315Z" fill="#404040"/>
<path fill-rule="evenodd" clip-rule="evenodd" d="M128.709 0.592285H145.651V5.04629H133.796V9.72563H144.673V14.18H133.796V19.114H145.902V23.5683H128.709V0.592285Z" fill="#404040"/>
<path fill-rule="evenodd" clip-rule="evenodd" d="M154.411 11.7836H158.27C160.953 11.7836 162.576 10.6279 162.576 8.45755C162.576 6.2872 160.953 5.13149 158.27 5.13149H154.411V11.7836ZM162.884 23.5683L158.466 16.3225H154.412V23.5683H149.324V0.592285H158.493C164.282 0.592285 167.664 3.69333 167.664 8.45757C167.664 11.6148 166.182 14.0398 163.499 15.3082L168.782 23.5683H162.884Z" fill="#404040"/>
</g>
</g>
</svg>
