<svg width="170" height="25" viewBox="0 0 170 25" fill="none" xmlns="http://www.w3.org/2000/svg">
<g clip-path="url(#clip0)">
<mask id="mask0" mask-type="alpha" maskUnits="userSpaceOnUse" x="0" y="0" width="25" height="25">
<path fill-rule="evenodd" clip-rule="evenodd" d="M0.271484 0.00012207H24.2023V24.1318H0.271484V0.00012207Z" fill="white"/>
</mask>
<g mask="url(#mask0)">
<path fill-rule="evenodd" clip-rule="evenodd" d="M12.2369 0.00012207C5.62837 0.00012207 0.271484 5.40229 0.271484 12.066C0.271484 18.7297 5.62837 24.1318 12.2369 24.1318C17.8544 24.1318 22.5622 20.2259 23.8494 14.9617H18.8058C17.6971 17.5159 15.1787 19.3055 12.2369 19.3055C8.27183 19.3055 5.05764 16.0643 5.05764 12.066C5.05764 8.06764 8.27183 4.82646 12.2369 4.82646H19.4161H21.8095H24.2023V0.00012207H12.2369Z" fill="#F3E600"/>
</g>
<mask id="mask1" mask-type="alpha" maskUnits="userSpaceOnUse" x="0" y="0" width="169" height="25">
<path fill-rule="evenodd" clip-rule="evenodd" d="M0.271484 24.1317H168.782V0H0.271484V24.1317Z" fill="white"/>
</mask>
<g mask="url(#mask1)">
<path fill-rule="evenodd" clip-rule="evenodd" d="M14.1992 12.223H23.9978V7.28238H14.1992V12.223Z" fill="#F3E600"/>
<path fill-rule="evenodd" clip-rule="evenodd" d="M40.5664 -3.05176e-05C46.8286 -3.05176e-05 51.0215 3.80574 51.9435 8.65487H46.7989C46.2687 6.4558 43.949 4.70803 40.6779 4.70803C36.5398 4.70803 33.4643 7.78129 33.4643 12.0658C33.4643 16.3226 36.5398 19.4239 40.6779 19.4239C43.949 19.4239 46.6327 17.2536 47.0242 15.1672H52.1663C51.4675 19.79 46.8831 24.1317 40.5664 24.1317C33.5488 24.1317 28.377 19.0291 28.377 12.0658C28.377 5.10252 33.5488 -3.05176e-05 40.5664 -3.05176e-05Z" fill="white"/>
<path fill-rule="evenodd" clip-rule="evenodd" d="M73.6226 12.0658C73.6226 7.72512 70.5496 4.62408 66.4115 4.62408C62.2731 4.62408 59.1979 7.72512 59.1979 12.0658C59.1979 16.3791 62.2731 19.5088 66.4115 19.5088C70.5496 19.5088 73.6226 16.3791 73.6226 12.0658ZM54.1104 12.0658C54.1104 5.10252 59.3391 -3.05176e-05 66.4116 -3.05176e-05C73.484 -3.05176e-05 78.7125 5.10252 78.7125 12.0658C78.7125 19.0291 73.484 24.1317 66.4116 24.1317C59.3391 24.1317 54.1104 19.0291 54.1104 12.0658Z" fill="white"/>
<path fill-rule="evenodd" clip-rule="evenodd" d="M100.251 12.0658C100.251 7.72512 97.1783 4.62408 93.0402 4.62408C88.9018 4.62408 85.8266 7.72512 85.8266 12.0658C85.8266 16.3791 88.9018 19.5088 93.0402 19.5088C97.1783 19.5088 100.251 16.3791 100.251 12.0658ZM80.7393 12.0658C80.7393 5.10252 85.968 -3.05176e-05 93.0405 -3.05176e-05C100.113 -3.05176e-05 105.341 5.10252 105.341 12.0658C105.341 19.0291 100.113 24.1317 93.0405 24.1317C85.968 24.1317 80.7393 19.0291 80.7393 12.0658Z" fill="white"/>
<path fill-rule="evenodd" clip-rule="evenodd" d="M125.96 5.13146H118.551V23.5683H113.463V5.13146H106.054V0.592255H125.96V5.13146Z" fill="white"/>
<path fill-rule="evenodd" clip-rule="evenodd" d="M128.71 0.592285H145.652V5.04629H133.797V9.72563H144.674V14.18H133.797V19.114H145.903V23.5683H128.71V0.592285Z" fill="white"/>
<path fill-rule="evenodd" clip-rule="evenodd" d="M154.411 11.7836H158.27C160.953 11.7836 162.576 10.6279 162.576 8.45752C162.576 6.28717 160.953 5.13145 158.27 5.13145H154.411V11.7836ZM162.884 23.5683L158.466 16.3225H154.412V23.5683H149.324V0.592255H158.493C164.282 0.592255 167.664 3.6933 167.664 8.45753C167.664 11.6148 166.182 14.0398 163.499 15.3082L168.782 23.5683H162.884Z" fill="white"/>
</g>
</g>
<defs>
<clipPath id="clip0">
<rect width="169.01" height="24.2212" fill="white"/>
</clipPath>
</defs>
</svg>
