<svg width="32" height="29" viewBox="0 0 32 29" fill="none" xmlns="http://www.w3.org/2000/svg">
<path d="M0.25 29L2.525 22.175C0.558778 19.267 -0.152512 15.8232 0.523382 12.484C1.19928 9.14485 3.21636 6.13744 6.19959 4.021C9.18283 1.90455 12.9292 0.823087 16.7422 0.977687C20.5551 1.13229 24.1752 2.51243 26.9292 4.8615C29.6833 7.21057 31.384 10.3687 31.7151 13.7487C32.0462 17.1288 30.9852 20.5007 28.7293 23.2375C26.4734 25.9743 23.1762 27.8898 19.4506 28.6279C15.7251 29.3659 11.8249 28.8763 8.475 27.25L0.25 29Z" fill="white"/>
<path d="M16 15V15.0183" stroke="#00A743" stroke-width="2.75" stroke-linecap="round" stroke-linejoin="round"/>
<path d="M9 15V15.0183" stroke="#00A743" stroke-width="2.75" stroke-linecap="round" stroke-linejoin="round"/>
<path d="M23 15V15.0183" stroke="#00A743" stroke-width="2.75" stroke-linecap="round" stroke-linejoin="round"/>
</svg>
