<svg width="24" height="24" viewBox="0 0 24 24" fill="none" xmlns="http://www.w3.org/2000/svg">
<path d="M3 10.44V12.188H5.254L7.002 19.755H9.486L11.418 12.188H13.442L15.328 19.755H17.835L19.56 12.188H21.745V10.44H19.928L21.4 4H19.123L17.743 10.44H15.19L13.58 4H11.51L9.854 10.44H7.324L5.967 4H3.368L4.84 10.44H3ZM8.451 15.753L7.692 12.188H9.417L8.52 15.753H8.451ZM16.524 15.753L15.627 12.188H17.352L16.593 15.753H16.524ZM12.407 8.255H12.476L13.028 10.44H11.855L12.407 8.255Z" fill="#00A743"/>
</svg>
