<svg width="24" height="24" viewBox="0 0 24 24" fill="none" xmlns="http://www.w3.org/2000/svg">
<path d="M11.9916 21.949C6.66666 21.9444 2.27933 17.7679 2.01274 12.4497C1.74615 7.13142 5.69381 2.53708 10.9916 2V6.04C7.98219 6.54858 5.83548 9.23721 6.00571 12.2845C6.17594 15.3318 8.60875 17.7646 11.6561 17.9349C14.7034 18.1051 17.392 15.9584 17.9006 12.949H21.9406C21.4204 18.0555 17.1235 21.9421 11.9906 21.949H11.9916ZM21.9416 10.949H17.9016C17.476 8.4347 15.506 6.46506 12.9916 6.04V2C17.7186 2.48398 21.4561 6.22098 21.9406 10.948L21.9416 10.949Z" fill="#00A743"/>
</svg>
