<svg width="30" height="31" viewBox="0 0 30 31" fill="none" xmlns="http://www.w3.org/2000/svg">
<g opacity="0.6">
<path d="M22.5 0H7.5C3.35786 0 0 3.43498 0 7.67224V23.0167C0 27.254 3.35786 30.689 7.5 30.689H22.5C26.6421 30.689 30 27.254 30 23.0167V7.67224C30 3.43498 26.6421 0 22.5 0Z" fill="#404040"/>
<path d="M15.0002 21.165C18.1425 21.165 20.6899 18.5591 20.6899 15.3445C20.6899 12.1299 18.1425 9.52393 15.0002 9.52393C11.8579 9.52393 9.31055 12.1299 9.31055 15.3445C9.31055 18.5591 11.8579 21.165 15.0002 21.165Z" stroke="white" stroke-width="2" stroke-linecap="round" stroke-linejoin="round"/>
<path d="M22.6646 7.64819V7.64919" stroke="white" stroke-width="2.75" stroke-linecap="round" stroke-linejoin="round"/>
</g>
</svg>
