<svg width="92" height="92" viewBox="0 0 92 92" fill="none" xmlns="http://www.w3.org/2000/svg">
<circle cx="46" cy="46" r="46" fill="#F2F0FB"/>
<path d="M51.9524 15.7523L53.3833 12.3845C55.6319 16.8048 65.648 34.4857 66.0568 37.0115C66.4656 39.5374 66.8744 42.9052 66.4656 44.3786C66.0568 45.852 63.8083 53.4295 65.0347 52.5876C66.2612 51.7456 68.3053 51.1142 68.1009 51.5352C67.8965 51.9561 66.8744 58.4812 66.4656 59.3232C66.0568 60.1651 64.6259 63.5329 64.6259 64.1644C64.6259 64.7958 62.173 66.0588 61.5597 66.4797C60.9465 66.9007 58.4935 66.0588 56.8582 66.0588C55.2229 66.0588 55.4273 66.4798 54.8141 67.9532C54.2009 69.4266 52.5656 69.4266 51.5435 69.6371C50.5215 69.8475 49.9082 69.4266 49.295 68.7951C48.6817 68.1637 45.4111 68.7951 43.5714 69.4266C41.7317 70.058 33.7596 77.8461 32.5332 77.8461C31.3067 77.8461 30.489 76.5831 30.489 76.3727C30.489 76.1622 28.6493 66.0588 28.4449 65.4273C28.2405 64.7959 30.0802 61.6385 30.2846 61.4281C30.489 61.2176 30.489 59.7442 30.489 59.1127C30.489 58.4812 32.5332 56.1659 32.942 55.5344C33.3508 54.903 30.6934 49.4303 30.6934 47.7464C30.6934 46.0625 30.6934 44.3786 31.1023 43.9576C31.5111 43.5366 30.8979 42.4842 30.6934 42.2737C30.489 42.0632 28.2405 43.1157 27.8317 43.1157C27.4229 43.1157 27.4229 41.4318 27.4229 40.8003C27.4229 40.1688 30.0802 39.3269 30.8979 38.9059C31.7155 38.4849 33.1464 40.3793 33.7596 40.8003C34.3729 41.2213 35.1906 41.2213 35.5993 40.3793C35.9264 39.7058 34.3729 37.0115 33.5552 35.7486L35.5993 34.0647C33.964 32.3808 32.3287 30.6969 32.5332 29.6445C32.7376 28.592 32.3288 25.0138 32.1244 24.3823C31.92 23.7508 34.7818 21.8564 35.1906 21.4355C35.5994 21.0145 36.0082 19.9621 36.0082 19.3306C36.0082 18.6991 40.9141 15.7523 41.9362 16.5943C42.7538 17.2678 47.1828 17.2959 49.295 17.2257L51.9524 15.7523Z" fill="#9D8BF1"/>
<path d="M67.1957 36.0163C67.1957 36.0125 67.1957 35.9932 67.1957 35.9932C67.2153 35.758 67.2309 35.5189 67.2309 35.276C67.2348 30.4484 63.2745 26.5386 58.3847 26.5386C53.4949 26.5386 49.5386 30.4484 49.5386 35.2722C49.5386 35.5151 49.5542 35.7503 49.5737 35.9894C49.5737 35.9894 49.5737 36.0086 49.5737 36.0125C49.5815 36.1127 49.5933 36.2091 49.605 36.3055C49.7885 37.9057 51.0227 45.6175 58.3496 53.9192L58.3847 53.9617L58.4199 53.9192C65.7468 45.6214 66.9848 37.9096 67.1684 36.3094C67.1801 36.213 67.1879 36.1127 67.1957 36.0163Z" fill="#7963E2" stroke="#F2F0FB" stroke-linejoin="round"/>
<ellipse cx="58.3848" cy="35.1571" rx="4.02098" ry="3.91758" fill="#F2F0FB"/>
<path d="M41.5543 54.8144C41.5543 54.8119 41.5543 54.7993 41.5543 54.7993C41.567 54.6464 41.5771 54.491 41.5771 54.3331C41.5797 51.1952 39.0055 48.6538 35.8271 48.6538C32.6488 48.6538 30.0771 51.1952 30.0771 54.3306C30.0771 54.4885 30.0873 54.6414 30.1 54.7968C30.1 54.7968 30.1 54.8093 30.1 54.8119C30.1051 54.877 30.1127 54.9397 30.1203 55.0023C30.2396 56.0425 31.0418 61.0551 35.8043 66.4512L35.8271 66.4788L35.85 66.4512C40.6125 61.0576 41.4172 56.045 41.5365 55.0048C41.5441 54.9422 41.5492 54.877 41.5543 54.8144Z" fill="#7963E2" stroke="#F2F0FB" stroke-linejoin="round"/>
<ellipse cx="35.8275" cy="54.2561" rx="2.61364" ry="2.54643" fill="#F2F0FB"/>
<path d="M46.0374 29.1279C46.0374 29.1257 46.0374 29.1151 46.0374 29.1151C46.0482 28.9849 46.0569 28.8527 46.0569 28.7183C46.059 26.0476 43.8681 23.8845 41.163 23.8845C38.4578 23.8845 36.269 26.0476 36.269 28.7162C36.269 28.8506 36.2777 28.9807 36.2885 29.1129C36.2885 29.1129 36.2885 29.1236 36.2885 29.1257C36.2928 29.1812 36.2993 29.2345 36.3058 29.2879C36.4073 30.1731 37.0901 34.4395 41.1435 39.0322L41.163 39.0557L41.1824 39.0322C45.2358 34.4416 45.9208 30.1753 46.0223 29.29C46.0288 29.2367 46.0331 29.1812 46.0374 29.1279Z" fill="#7963E2" stroke="#F2F0FB" stroke-linejoin="round"/>
<ellipse cx="41.1625" cy="28.6527" rx="2.22451" ry="2.16731" fill="#F2F0FB"/>
</svg>
