<svg width="92" height="92" viewBox="0 0 92 92" fill="none" xmlns="http://www.w3.org/2000/svg">
<circle cx="46" cy="46" r="46" fill="#E8F6F9"/>
<path d="M68.2831 48.2978C70.4024 49.4009 71.1417 50.5764 70.8797 52.3422C70.6572 53.8372 69.5321 54.7653 67.4451 55.1047C69.4154 55.9497 70.4401 57.3093 69.9448 59.4507C69.6021 60.9295 68.7353 61.5668 66.6609 62.0597C67.0754 62.3071 67.4917 62.5129 67.865 62.782C68.9722 63.58 69.48 65.0714 69.1175 66.375C68.7138 67.8213 67.5922 68.7999 66.1709 68.9335C65.7851 68.9696 65.3975 68.9931 65.0117 68.9931C59.2944 68.9967 53.5753 68.9985 47.858 68.9949C44.9527 68.9931 42.1568 68.4478 39.5691 67.0955C38.6844 66.6332 37.8895 65.9814 37.0891 65.3693C36.6979 65.0696 36.5597 64.6182 36.5615 64.0946C36.5813 59.4092 36.5777 54.7237 36.5867 50.0365C36.5903 48.3844 36.6046 46.7341 36.6154 45.082C36.6208 44.1955 36.9527 43.4841 37.7082 42.9912C40.3569 41.2687 42.3793 38.9233 44.19 36.3738C46.1029 33.6781 47.7037 30.8037 49.0621 27.7884C49.3259 27.2052 49.5538 26.5931 49.8983 26.0623C50.4618 25.1974 51.368 24.8598 52.3478 24.7857C53.6327 24.6882 54.8099 25.0186 55.7628 25.9323C56.7067 26.8386 56.949 27.9743 56.5954 29.1967C55.7395 32.1614 54.8332 35.1117 53.945 38.0656C53.8247 38.4665 53.6812 38.8619 53.5645 39.2645C53.2469 40.3623 53.927 41.3445 55.054 41.3481C57.9467 41.359 60.8413 41.3373 63.734 41.3319C65.3311 41.3283 66.93 41.2994 68.5253 41.3391C70.2965 41.3843 71.7034 42.8486 71.7752 44.6487C71.8488 46.4507 70.5585 47.9908 68.7945 48.2111C68.6492 48.2255 68.5038 48.258 68.2831 48.2978Z" fill="#4CA9FC"/>
<path d="M21.2364 54.8557C21.2364 51.6869 21.2454 48.5164 21.231 45.3476C21.2256 44.2372 21.5935 43.3362 22.593 42.809C22.9466 42.6212 23.3826 42.5111 23.7846 42.5075C26.2628 42.4804 28.741 42.4804 31.2193 42.4984C32.5867 42.5075 33.6095 43.5059 33.719 44.8763C33.7352 45.0713 33.7495 45.2663 33.7495 45.4595C33.7513 51.7826 33.7477 58.1075 33.7531 64.4306C33.7549 65.6277 33.344 66.581 32.2152 67.0811C31.8599 67.2382 31.4382 67.296 31.0452 67.2996C28.7303 67.3195 26.4171 67.3104 24.1022 67.3086C22.2521 67.3086 21.2382 66.2849 21.2364 64.4089C21.2328 61.585 21.2364 58.7611 21.2364 55.9372C21.2364 55.5761 21.2364 55.2168 21.2364 54.8557ZM27.4669 63.6109C28.5508 63.6307 29.4768 62.7315 29.4876 61.6482C29.4965 60.6461 28.5975 59.7072 27.6015 59.6801C26.4728 59.6476 25.5665 60.5179 25.554 61.6464C25.5396 62.6918 26.4189 63.5928 27.4669 63.6109Z" fill="#4CA9FC"/>
<path d="M74.0976 31.0002C72.0648 32.8929 70.7839 35.6788 70.0957 37.584C69.8727 38.1899 69.006 38.1899 68.7894 37.584C68.0948 35.6788 66.8203 32.8991 64.7874 31.0002C64.5071 30.7379 64.5071 30.3006 64.7874 30.0383C66.8203 28.1456 68.1011 25.3596 68.7894 23.4544C69.0124 22.8485 69.879 22.8485 70.0957 23.4544C70.7903 25.3596 72.0648 28.1393 74.0976 30.0383C74.378 30.2944 74.378 30.7379 74.0976 31.0002Z" fill="#168EFA"/>
<path d="M64.424 19.801C62.9456 21.137 62.014 23.1036 61.5135 24.4484C61.3513 24.8761 60.721 24.8761 60.5634 24.4484C60.0583 23.1036 59.1314 21.1414 57.6529 19.801C57.449 19.6158 57.449 19.3072 57.6529 19.122C59.1314 17.786 60.0629 15.8194 60.5634 14.4746C60.7256 14.0469 61.3559 14.0469 61.5135 14.4746C62.0187 15.8194 62.9456 17.7816 64.424 19.122C64.6279 19.3028 64.6279 19.6158 64.424 19.801Z" fill="#168EFA"/>
</svg>
