<svg width="271" height="324" viewBox="0 0 271 324" fill="none" xmlns="http://www.w3.org/2000/svg">
<g opacity="0.4">
<path d="M255.62 205.98C240.228 257.716 192.31 295.446 135.573 295.446C66.4165 295.446 10.3379 239.384 10.3379 170.211" stroke="#9CE99E" stroke-width="10" stroke-miterlimit="10"/>
<path d="M13.8857 140.507C27.2169 85.6791 76.6383 44.9761 135.572 44.9761C204.729 44.9761 260.807 101.038 260.807 170.211" stroke="#9CE99E" stroke-width="10" stroke-miterlimit="10"/>
<path d="M256.068 187.541C255.671 186.953 254.805 186.953 254.408 187.542L240.536 208.16C240.089 208.824 240.565 209.718 241.366 209.718H269.121C269.921 209.718 270.397 208.824 269.95 208.159L256.068 187.541Z" fill="#9CE99E"/>
<path d="M14.9309 155.366C15.3273 155.954 16.1939 155.954 16.5901 155.365L30.4623 134.747C30.9093 134.083 30.4333 133.189 29.6326 133.189L1.87788 133.189C1.0771 133.189 0.601137 134.083 1.04839 134.748L14.9309 155.366Z" fill="#9CE99E"/>
</g>
<path d="M75.5953 319.494C74.9505 319.201 74.4558 318.678 74.2279 318.039C73.6776 316.502 72.6827 313.708 72.6216 313.499C72.5715 313.316 72.9606 311.856 73.2663 310.768C73.4776 310.02 74.0389 309.408 74.7949 309.105L78.1966 307.734L84.6665 304.826C85.0556 304.653 85.4836 304.57 85.9116 304.585L97.2951 304.988C97.5841 304.999 97.8787 304.962 98.1566 304.883L100.902 304.115C101.247 304.02 101.608 303.989 101.964 304.026L106.766 304.538C107.322 304.596 107.845 304.821 108.262 305.176C109.245 306.024 111.019 307.572 111.08 307.729C111.158 307.949 112.886 310.02 112.964 310.313C113.003 310.455 113.003 310.91 112.997 311.354C112.986 311.961 112.742 312.542 112.308 312.992L112.208 313.096C111.736 313.588 111.491 314.231 111.524 314.89L111.552 315.408C111.602 316.397 111.024 317.323 110.085 317.762L109.284 318.139C109.073 318.238 108.851 318.311 108.617 318.353L105.327 318.971C105.138 319.007 104.954 319.06 104.782 319.133L102.537 320.059L99.4239 321.314C98.9459 321.508 98.4178 321.565 97.9065 321.476L95.3941 321.053C94.9828 320.984 94.5548 321.005 94.1546 321.121L90.525 322.151C90.0636 322.282 89.5745 322.292 89.1132 322.182L84.3441 321.063C83.8216 320.943 83.2769 320.969 82.7711 321.147L81.8595 321.466C81.1814 321.701 80.431 321.67 79.7807 321.377L75.5953 319.494Z" fill="#515151"/>
<path d="M157.741 13.0315C155.768 13.9888 149.432 17.4831 149.004 17.5616C144.474 18.3881 137.653 19.2355 136.242 19.2355C135.163 19.2355 129.983 18.2939 127.582 17.844C126.759 17.6923 125.92 17.64 125.086 17.6976L91.5137 19.973L84.6658 21.987C82.6815 22.5676 81.0918 23.9643 80.3192 25.7794C79.2075 28.3949 77.4566 32.1612 75.8169 34.1542C73.7548 36.6651 64.0832 42.2727 59.8089 44.6842C58.5249 45.4113 57.6856 46.6615 57.5411 48.0686L56.9797 53.6501C56.824 56.7311 50.9933 61.5907 47.0691 64.52C47.2415 65.4093 47.2359 66.2724 47.6639 67.146C48.0863 67.9986 48.8978 68.527 49.5926 69.2175C50.7543 70.363 51.3657 73.2349 53.0388 73.4546C54.1005 73.5853 54.9175 72.8948 55.9958 72.8425C57.0742 72.7954 58.297 72.9838 59.2419 72.5077C60.0812 72.084 60.776 70.9908 61.771 70.8024C62.7381 70.6194 63.9554 71.3465 64.8392 71.6394C64.9226 73.0361 64.8392 73.3604 63.7053 74.1973C62.7381 74.9088 62.4046 75.2435 62.2935 76.4833C62.0711 78.9994 63.5218 79.4179 64.8336 81.2225C66.112 82.9906 64.0499 84.4135 64.111 86.2548C64.1722 88.2216 66.1787 89.6287 67.8462 90.6958C69.7361 91.8937 72.2762 91.5328 71.826 94.2268C71.5314 95.9896 70.392 97.8466 69.1747 99.191C67.7184 100.813 66.7179 101.932 67.5961 104.155C67.963 105.065 68.4243 105.86 68.63 106.807C68.8634 107.869 68.6522 109.03 68.8912 110.077C69.2358 111.552 70.8644 113.55 72.3707 114.157C74.5385 115.03 76.6173 114.136 76.6173 116.961C76.6173 118.844 77.1176 121.726 74.2828 121.344C73.2934 121.208 72.7932 120.648 71.8649 120.256C70.7699 119.801 69.4526 119.989 68.2353 119.995C67.0625 119.995 65.6896 120.172 64.6335 119.785C63.8498 119.498 63.1883 118.765 62.5102 118.279C61.0039 117.206 58.2359 116.819 57.5967 118.917C57.3299 119.801 58.0858 121.391 57.58 122.16C56.7295 123.431 55.6623 122.286 55.1343 121.7C54.4617 120.962 53.728 120.607 53.0722 119.895C52.3107 119.074 52.5775 118.143 51.2046 118.221C48.6144 118.378 50.343 121.161 49.7372 122.647C48.8812 124.77 46.7579 124.551 44.7569 124.739C43.673 124.849 42.5724 124.906 41.5553 125.231C40.3602 125.602 40.1879 126.23 39.621 127.187C39.0651 128.129 38.4148 128.83 37.72 129.604C37.0419 130.373 36.6528 131.388 36.2804 132.366C35.4244 134.594 36.1136 135.635 38.1925 136.744C40.0323 137.722 41.6609 137.921 42.8782 139.705C44.579 142.19 46.0464 139.59 47.4693 138.538C49.5371 137.011 50.4153 139.124 51.7493 140.176C53.7114 141.714 55.8624 140.913 56.7407 143.696C57.63 146.484 56.9964 150.36 56.8796 153.253C56.7629 156.198 57.2354 158.95 57.2798 161.842C57.3076 164.217 57.2687 166.419 58.0413 168.622C58.6694 170.416 60.2535 170.819 61.3708 172.273C62.5714 173.832 62.9382 176.259 63.5052 178.037C64.1611 180.119 63.7831 181.825 66.1787 182.756C67.4738 183.263 71.0979 184.728 68.8523 186.47C68.063 187.082 66.8179 186.836 65.9231 187.443C64.9226 188.112 64.6558 189.138 64.7725 190.257C64.8836 191.277 65.206 192.004 65.9342 192.799C66.5734 193.495 67.9074 193.73 68.3854 194.458C69.4248 196.037 67.5906 198.564 66.6845 199.783C64.2778 203.021 60.4203 204.166 57.9969 207.205C56.5072 209.078 56.8352 210.067 57.6578 212.028C58.4526 213.938 57.7856 216.292 56.7295 218.018C55.5734 219.911 53.2 220.131 51.8549 221.721C50.8099 222.956 51.3824 224.734 50.9489 226.189C50.4653 227.815 50.0151 230.138 48.909 231.524C47.7806 232.942 45.535 233.638 45.057 235.636C44.5457 237.76 46.3077 238.769 47.5138 240.103C48.2586 240.924 48.7478 241.955 49.5371 242.771C50.3486 243.608 51.3935 243.927 51.627 245.057C52.0161 246.909 51.3935 249.482 50.1929 250.863C49.3536 251.826 48.6977 252.009 48.6866 253.411C48.6811 254.394 48.7144 255.419 49.2036 256.22C49.7816 257.177 50.4319 257.344 50.3652 258.605C50.3097 259.677 49.9039 260.703 49.2147 261.519C47.9918 262.962 46.8357 264.589 46.102 266.352C45.3294 268.225 45.8241 270.375 48.1919 270.825C50.1707 271.201 53.1222 270.469 53.339 273.116C53.4223 274.131 52.9554 275.041 52.2106 275.778C51.388 276.594 50.771 277.489 49.8983 278.326C48.4865 279.681 46.5522 280.46 47.7195 282.683C48.4698 284.101 50.2708 286.711 49.865 288.244C49.6149 289.159 48.5755 289.813 48.7366 290.906C48.8701 291.806 49.6705 292.46 50.5376 292.596C51.5381 292.758 52.7164 292.476 53.7503 292.476C55.0787 292.476 56.1237 292.716 57.3743 292.957C59.5421 293.375 61.7599 295.007 63.6108 293.286C64.4334 292.517 65.1282 291.701 65.6674 290.765C66.3733 289.551 66.7179 289.682 68.0074 289.044C69.5249 288.291 70.0807 285.089 71.826 285.555C72.921 285.848 73.2434 286.884 73.5269 287.731C73.9882 289.128 73.9104 289.039 75.4612 289.18C76.5895 289.279 77.7123 289.541 78.9073 289.421C79.4743 289.363 79.9968 289.29 80.5081 289.049C81.4308 288.62 80.9695 288.877 81.3697 288.082C82.2646 286.313 83.0817 284.456 84.0599 282.751C85.1216 280.899 86.4278 279.403 87.8841 277.766C89.4793 275.977 89.5794 274.716 92.403 274.858C93.498 274.91 94.4929 274.727 95.4934 274.397C97.0776 273.874 99.8178 271.787 100.374 274.633C100.674 276.192 98.9674 277.578 98.545 279.105C97.9391 281.266 98.884 282.568 101.124 283.117C102.141 283.374 103.042 283.17 104.081 283.358C105.009 283.531 105.915 283.761 106.938 283.808C109.184 283.918 110.067 282.49 111.262 281.02C112.13 279.947 112.652 279.665 112.33 278.237C112.13 277.374 111.59 276.469 111.19 275.668C110.312 273.916 109.067 272.969 108.978 270.992C108.872 268.638 109.545 267.519 111.307 265.934C112.141 265.186 112.641 264.192 113.836 264.087C115.131 263.967 115.648 264.694 116.448 265.384C117.16 265.991 118.155 266.441 118.733 267.194C119.517 268.209 119 268.471 118.761 269.642C118.422 271.311 119.333 273.979 120.917 274.873C123.302 276.223 123.774 273.079 125.286 272.415C127.799 271.306 128.549 274.157 128.638 275.799C128.688 276.741 128.532 277.892 129.666 278.19C130.528 278.42 131.862 277.651 132.49 277.123C133.946 275.893 133.279 273.419 132.101 271.949C131.562 271.274 130.606 270.573 130.322 269.726C130.039 268.863 130.255 267.749 130.166 266.849C129.961 264.966 128.605 263.857 126.815 263.104C125.581 262.581 122.318 261.503 121.796 260.211C121.079 258.464 123.28 256.141 124.741 255.576C128.138 254.274 133.357 252.474 136.147 255.744C136.942 256.68 136.831 257.193 136.57 258.37C136.342 259.426 135.508 260.007 135.197 261.037C134.563 263.104 136.703 263.689 137.97 264.809C139.454 266.117 140.383 267.435 142.862 266.682C145.241 265.965 145.919 263.475 144.679 261.623C143.784 260.284 141.411 258.94 141.611 257.297C141.789 255.859 143.606 253.609 145.185 253.395C147.431 253.092 149.687 254.765 150.588 256.539C151.627 258.595 153.361 258.694 155.729 258.579C158.047 258.474 159.025 256.732 160.965 255.89C162.633 255.163 164.767 255.812 166.14 256.842C167.202 257.632 169.708 260.31 171.12 259.374C172.782 258.275 171.982 255.022 172.304 253.358C172.621 251.742 173.46 249.116 174.511 247.819C176.367 245.528 177.429 250.649 179.274 248.169C179.836 247.421 179.452 246.145 180.264 245.507C181.053 244.889 182.148 245.313 182.971 245.601C183.688 245.857 184.922 246.056 185.566 246.527C186.356 247.107 186.4 248.106 187.084 248.766C188.618 250.251 191.386 249.163 193.376 249.341C196.161 249.592 197.706 248.865 200.051 247.719C202.064 246.741 203.865 245.883 205.971 245.109C207.961 244.382 209.956 244.298 211.846 243.362C213.492 242.541 214.164 240.338 215.448 239.02C217.016 237.399 218.294 235.61 219.834 234.061C221.368 232.523 223.219 231.467 224.614 229.85C225.303 229.055 225.553 227.936 226.12 227.057C227.126 225.519 228.077 224.164 228.41 222.328C228.744 220.487 228.527 218.588 228.933 216.752C229.4 214.628 229.739 212.463 229.95 210.339C230.344 206.368 232.646 203.382 232.64 199.202C232.635 197.094 232.451 194.892 233.029 192.92C233.685 190.649 234.135 188.337 234.524 186.015C234.691 185.021 235.136 183.901 234.936 182.866C234.702 181.647 233.985 181.668 232.757 181.422C231.412 181.16 230.734 180.993 229.766 181.903C228.91 182.709 228.705 183.357 227.36 183.363C224.775 183.373 225.748 180.313 225.553 178.649C225.425 177.588 224.786 177.263 224.414 176.332C224.086 175.5 224.258 174.371 224.258 173.45C224.253 169.045 224.542 164.662 225.681 160.508C226.887 156.094 226.037 151.83 226.276 147.295C226.365 145.516 227.332 143.879 228.071 142.242C228.955 140.275 228.755 138.245 228.355 136.258C227.954 134.28 229.155 132.601 229.049 130.634C228.949 128.715 228.56 126.664 228.043 124.828C226.948 120.947 224.981 116.955 224.419 112.975C224.125 110.914 224.419 108.622 224.419 106.535C224.414 105.416 224.597 104.16 224.408 103.057C224.241 102.052 223.68 101.205 223.246 100.279C222.357 98.3802 221.19 96.7742 220.056 94.9591C219.011 93.28 217.155 91.9879 216.137 90.1884C215.198 88.525 214.403 86.7935 213.586 85.0569C213.225 84.2774 213.025 83.4248 212.458 82.7238C211.752 81.8503 210.518 81.4318 209.745 80.6001C208.85 79.6376 208.333 78.3507 207.761 77.1999C206.877 75.4266 206.232 73.533 205.866 71.6342C205.187 68.1974 203.431 64.0545 200.835 61.4861C199.451 60.1103 197.656 59.1792 195.849 58.3109C194.06 57.4582 192.531 56.0249 190.925 54.8689C189.168 53.5978 187.695 52.3842 186.673 50.4958C185.778 48.8323 184.338 47.8646 183.171 46.4104C180.631 43.2457 180.842 39.1446 179.725 35.5038C179.141 33.6259 178.402 31.4969 177.651 29.7079C176.995 28.1438 175.867 26.7628 175.361 25.136C174.9 23.6556 174.705 22.3008 173.677 20.9983C173.032 20.177 172.382 19.3296 171.882 18.4351C170.876 16.6409 170.314 14.7211 169.364 12.9321C168.274 10.8868 167.707 8.74736 166.813 6.61312C165.973 4.61489 165.729 2.31326 164.723 0.445801C164.734 0.487649 158.186 12.8171 157.741 13.0315Z" fill="#515151"/>
<mask id="mask0" mask-type="alpha" maskUnits="userSpaceOnUse" x="35" y="0" width="200" height="295">
<path d="M157.741 13.0315C155.768 13.9888 149.432 17.4831 149.004 17.5616C144.474 18.3881 137.653 19.2355 136.242 19.2355C135.163 19.2355 129.983 18.2939 127.582 17.844C126.759 17.6923 125.92 17.64 125.086 17.6976L91.5137 19.973L84.6658 21.987C82.6815 22.5676 81.0918 23.9643 80.3192 25.7794C79.2075 28.3949 77.4566 32.1612 75.8169 34.1542C73.7548 36.6651 64.0832 42.2727 59.8089 44.6842C58.5249 45.4113 57.6856 46.6615 57.5411 48.0686L56.9797 53.6501C56.824 56.7311 50.9933 61.5907 47.0691 64.52C47.2415 65.4093 47.2359 66.2724 47.6639 67.146C48.0863 67.9986 48.8978 68.527 49.5926 69.2175C50.7543 70.363 51.3657 73.2349 53.0388 73.4546C54.1005 73.5853 54.9175 72.8948 55.9958 72.8425C57.0742 72.7954 58.297 72.9838 59.2419 72.5077C60.0812 72.084 60.776 70.9908 61.771 70.8024C62.7381 70.6194 63.9554 71.3465 64.8392 71.6394C64.9226 73.0361 64.8392 73.3604 63.7053 74.1973C62.7381 74.9088 62.4046 75.2435 62.2935 76.4833C62.0711 78.9994 63.5219 79.4179 64.8336 81.2226C66.112 82.9906 64.0499 84.4135 64.111 86.2548C64.1722 88.2216 66.1787 89.6287 67.8462 90.6959C69.7361 91.8937 72.2762 91.5328 71.826 94.2268C71.5314 95.9896 70.392 97.8466 69.1747 99.191C67.7184 100.813 66.7179 101.932 67.5961 104.155C67.963 105.065 68.4243 105.86 68.63 106.807C68.8634 107.869 68.6522 109.03 68.8912 110.077C69.2358 111.552 70.8644 113.55 72.3707 114.157C74.5385 115.03 76.6173 114.136 76.6173 116.961C76.6173 118.844 77.1176 121.726 74.2828 121.344C73.2934 121.208 72.7932 120.648 71.8649 120.256C70.7699 119.801 69.4526 119.989 68.2353 119.995C67.0625 119.995 65.6896 120.172 64.6335 119.785C63.8498 119.498 63.1883 118.765 62.5102 118.279C61.0039 117.206 58.2359 116.819 57.5967 118.917C57.3299 119.801 58.0858 121.391 57.58 122.16C56.7295 123.431 55.6623 122.286 55.1343 121.7C54.4617 120.962 53.728 120.607 53.0722 119.895C52.3107 119.074 52.5775 118.143 51.2046 118.221C48.6144 118.378 50.343 121.161 49.7372 122.647C48.8812 124.77 46.7579 124.551 44.7569 124.739C43.673 124.849 42.5724 124.906 41.5553 125.231C40.3602 125.602 40.1879 126.23 39.621 127.187C39.0651 128.129 38.4148 128.83 37.72 129.604C37.0419 130.373 36.6528 131.388 36.2804 132.366C35.4244 134.594 36.1136 135.635 38.1925 136.744C40.0323 137.722 41.6609 137.921 42.8782 139.705C44.579 142.19 46.0464 139.59 47.4693 138.538C49.5371 137.011 50.4153 139.124 51.7493 140.176C53.7114 141.714 55.8624 140.913 56.7407 143.696C57.63 146.484 56.9964 150.36 56.8796 153.253C56.7629 156.198 57.2354 158.95 57.2798 161.842C57.3076 164.217 57.2687 166.419 58.0413 168.622C58.6694 170.416 60.2535 170.819 61.3708 172.273C62.5714 173.832 62.9382 176.259 63.5052 178.037C64.1611 180.119 63.7831 181.825 66.1787 182.756C67.4738 183.263 71.0979 184.728 68.8523 186.47C68.063 187.082 66.8179 186.836 65.9231 187.443C64.9226 188.112 64.6558 189.138 64.7725 190.257C64.8836 191.277 65.206 192.004 65.9342 192.799C66.5734 193.495 67.9074 193.73 68.3854 194.458C69.4248 196.037 67.5906 198.564 66.6845 199.783C64.2778 203.021 60.4203 204.166 57.9969 207.205C56.5072 209.078 56.8352 210.067 57.6578 212.028C58.4526 213.938 57.7856 216.292 56.7295 218.018C55.5734 219.911 53.2 220.131 51.8549 221.721C50.8099 222.956 51.3824 224.734 50.9489 226.189C50.4653 227.815 50.0151 230.138 48.909 231.524C47.7806 232.942 45.535 233.638 45.057 235.636C44.5457 237.76 46.3077 238.769 47.5138 240.103C48.2586 240.924 48.7478 241.955 49.5371 242.771C50.3486 243.608 51.3935 243.927 51.627 245.057C52.0161 246.909 51.3935 249.482 50.1929 250.863C49.3536 251.826 48.6977 252.009 48.6866 253.411C48.6811 254.394 48.7144 255.419 49.2036 256.22C49.7816 257.177 50.4319 257.344 50.3652 258.605C50.3097 259.677 49.9039 260.703 49.2147 261.519C47.9918 262.962 46.8357 264.589 46.102 266.352C45.3294 268.225 45.8241 270.375 48.1919 270.825C50.1707 271.201 53.1222 270.469 53.339 273.116C53.4223 274.131 52.9554 275.041 52.2106 275.778C51.388 276.594 50.771 277.489 49.8983 278.326C48.4865 279.681 46.5522 280.46 47.7195 282.683C48.4698 284.101 50.2708 286.711 49.865 288.244C49.6149 289.159 48.5755 289.813 48.7366 290.906C48.8701 291.806 49.6705 292.46 50.5376 292.596C51.5381 292.758 52.7164 292.476 53.7503 292.476C55.0787 292.476 56.1237 292.716 57.3743 292.957C59.5421 293.375 61.7599 295.007 63.6108 293.286C64.4334 292.517 65.1282 291.701 65.6674 290.765C66.3733 289.551 66.7179 289.682 68.0074 289.044C69.5249 288.291 70.0807 285.089 71.826 285.555C72.921 285.848 73.2434 286.884 73.5269 287.731C73.9882 289.128 73.9104 289.039 75.4612 289.18C76.5895 289.279 77.7123 289.541 78.9073 289.421C79.4743 289.363 79.9968 289.29 80.5081 289.049C81.4308 288.62 80.9695 288.877 81.3697 288.082C82.2646 286.313 83.0817 284.456 84.0599 282.751C85.1216 280.899 86.4278 279.403 87.8841 277.766C89.4793 275.977 89.5794 274.716 92.403 274.858C93.498 274.91 94.4929 274.727 95.4934 274.397C97.0776 273.874 99.8178 271.787 100.374 274.633C100.674 276.192 98.9674 277.578 98.545 279.105C97.9391 281.266 98.884 282.568 101.124 283.117C102.141 283.374 103.042 283.17 104.081 283.358C105.009 283.531 105.915 283.761 106.938 283.808C109.184 283.918 110.067 282.49 111.262 281.02C112.13 279.947 112.652 279.665 112.33 278.237C112.13 277.374 111.59 276.469 111.19 275.668C110.312 273.916 109.067 272.969 108.978 270.992C108.872 268.638 109.545 267.519 111.307 265.934C112.141 265.186 112.641 264.192 113.836 264.087C115.131 263.967 115.648 264.694 116.448 265.384C117.16 265.991 118.155 266.441 118.733 267.194C119.517 268.209 119 268.471 118.761 269.642C118.422 271.311 119.333 273.979 120.917 274.873C123.302 276.223 123.774 273.079 125.286 272.415C127.799 271.306 128.549 274.157 128.638 275.799C128.688 276.741 128.532 277.892 129.666 278.19C130.528 278.42 131.862 277.651 132.49 277.123C133.946 275.893 133.279 273.419 132.101 271.949C131.562 271.274 130.606 270.573 130.322 269.726C130.039 268.863 130.255 267.749 130.166 266.849C129.961 264.966 128.605 263.857 126.815 263.104C125.581 262.581 122.318 261.503 121.796 260.211C121.079 258.464 123.28 256.141 124.741 255.576C128.138 254.274 133.357 252.474 136.147 255.744C136.942 256.68 136.831 257.193 136.57 258.37C136.342 259.426 135.508 260.007 135.197 261.037C134.563 263.104 136.703 263.689 137.97 264.809C139.454 266.117 140.383 267.435 142.862 266.682C145.241 265.965 145.919 263.475 144.679 261.623C143.784 260.284 141.411 258.94 141.611 257.297C141.789 255.859 143.606 253.609 145.185 253.395C147.431 253.092 149.687 254.765 150.588 256.539C151.627 258.595 153.361 258.694 155.729 258.579C158.047 258.474 159.025 256.732 160.965 255.89C162.633 255.163 164.767 255.812 166.14 256.842C167.202 257.632 169.708 260.31 171.12 259.374C172.782 258.275 171.982 255.022 172.304 253.358C172.621 251.742 173.46 249.116 174.511 247.819C176.367 245.528 177.429 250.649 179.274 248.169C179.836 247.421 179.452 246.145 180.264 245.507C181.053 244.889 182.148 245.313 182.971 245.601C183.688 245.857 184.922 246.056 185.566 246.527C186.356 247.107 186.4 248.106 187.084 248.766C188.618 250.251 191.386 249.163 193.376 249.341C196.161 249.592 197.706 248.865 200.051 247.719C202.064 246.741 203.865 245.883 205.971 245.109C207.961 244.382 209.956 244.298 211.846 243.362C213.492 242.541 214.164 240.338 215.448 239.02C217.016 237.399 218.294 235.61 219.834 234.061C221.368 232.523 223.219 231.467 224.614 229.85C225.303 229.055 225.553 227.936 226.12 227.057C227.126 225.519 228.077 224.164 228.41 222.328C228.744 220.487 228.527 218.588 228.933 216.752C229.4 214.628 229.739 212.463 229.95 210.339C230.344 206.368 232.646 203.382 232.64 199.202C232.635 197.094 232.451 194.892 233.029 192.92C233.685 190.649 234.135 188.337 234.524 186.015C234.691 185.021 235.136 183.901 234.936 182.866C234.702 181.647 233.985 181.668 232.757 181.422C231.412 181.16 230.734 180.993 229.766 181.903C228.91 182.709 228.705 183.357 227.36 183.363C224.775 183.373 225.748 180.313 225.553 178.65C225.425 177.588 224.786 177.263 224.414 176.332C224.086 175.5 224.258 174.371 224.258 173.45C224.253 169.045 224.542 164.662 225.681 160.508C226.887 156.094 226.037 151.83 226.276 147.295C226.365 145.516 227.332 143.879 228.071 142.242C228.955 140.275 228.755 138.245 228.355 136.258C227.954 134.28 229.155 132.601 229.049 130.634C228.949 128.715 228.56 126.664 228.043 124.828C226.948 120.947 224.981 116.955 224.419 112.975C224.125 110.914 224.419 108.622 224.419 106.535C224.414 105.416 224.597 104.16 224.408 103.057C224.241 102.052 223.68 101.205 223.246 100.279C222.357 98.3802 221.19 96.7742 220.056 94.9591C219.011 93.28 217.155 91.9879 216.137 90.1884C215.198 88.525 214.403 86.7935 213.586 85.0569C213.225 84.2774 213.025 83.4248 212.458 82.7238C211.752 81.8503 210.518 81.4318 209.745 80.6001C208.85 79.6376 208.333 78.3507 207.761 77.1999C206.877 75.4266 206.232 73.533 205.866 71.6342C205.187 68.1974 203.431 64.0545 200.835 61.4861C199.451 60.1103 197.656 59.1792 195.849 58.3109C194.06 57.4582 192.531 56.0249 190.925 54.8689C189.168 53.5978 187.695 52.3842 186.673 50.4958C185.778 48.8323 184.338 47.8646 183.171 46.4104C180.631 43.2457 180.842 39.1446 179.725 35.5038C179.141 33.6259 178.402 31.4969 177.651 29.7079C176.995 28.1438 175.867 26.7628 175.361 25.136C174.9 23.6556 174.705 22.3008 173.677 20.9983C173.032 20.177 172.382 19.3296 171.882 18.4351C170.876 16.6409 170.314 14.7211 169.364 12.9321C168.274 10.8868 167.707 8.74736 166.813 6.61312C165.973 4.61489 165.729 2.31326 164.723 0.445801C164.734 0.487649 158.186 12.8171 157.741 13.0315Z" fill="white"/>
</mask>
<g mask="url(#mask0)">
<mask id="path-8-inside-1" fill="white">
<path d="M236.412 205.704L227.945 206.096C227.787 206.107 227.63 206.133 227.483 206.181L222.732 207.743C222.433 207.838 222.118 207.854 221.814 207.785L213.358 205.911C212.643 205.752 211.888 205.884 211.28 206.276L203.455 211.295C203.106 211.518 202.678 211.592 202.267 211.497L198.067 210.544C197.223 210.353 196.35 210.528 195.669 211.031L191.109 214.366C191.013 214.435 190.895 214.472 190.776 214.472H182.686C182.613 214.472 182.546 214.456 182.472 214.43L175.514 211.624C175.261 211.523 174.985 211.481 174.714 211.502C167.722 212.084 155.64 213.069 154.695 213.069C154.115 213.069 152.752 212.81 150.962 212.354C150.692 212.286 150.523 212.026 150.579 211.767L151.694 206.684C151.84 206.006 151.508 205.329 150.861 204.995L138.897 198.864C138.847 198.837 138.802 198.806 138.768 198.769L133.217 193.257C133.239 193.156 133.262 193.051 133.273 192.945L134.224 182.509C134.36 182.472 134.489 182.419 134.613 182.35L142.861 177.585C143.362 177.294 143.655 176.77 143.621 176.214L143.362 171.994C143.334 171.571 143.12 171.179 142.771 170.909L138.407 167.573C138.301 167.494 138.239 167.372 138.233 167.24L137.574 150.695C137.557 150.345 137.417 150.012 137.169 149.752L135.908 148.418C135.852 148.36 135.812 148.286 135.795 148.211L135.255 145.734C135.215 145.554 135.294 145.368 135.463 145.268L138.301 143.536C138.768 143.25 139.044 142.753 139.032 142.234C138.987 140.725 138.897 138.104 138.773 137.469C138.644 136.818 139.624 136.246 139.928 136.087C140.434 135.817 141.808 136.161 142.844 136.648C143.936 137.162 146.171 136.479 146.588 136.214C146.864 136.039 147.089 135.902 147.466 131.195C147.483 130.988 147.646 130.824 147.866 130.787L153.068 129.961C154.593 129.659 157.256 129.204 157.926 129.273C158.185 129.299 158.709 129.644 159.345 130.533C159.598 130.888 160.004 131.121 160.454 131.179L161.524 131.317C161.935 131.37 162.346 131.269 162.683 131.041L166.804 128.219C167.21 127.939 167.452 127.51 167.463 127.039C167.491 125.89 167.61 122.051 167.863 120.939C168.066 120.203 172.057 115.449 177.8 109.101C177.884 109.006 177.963 108.905 178.036 108.794C180.153 108.741 182.399 108.72 182.805 108.773C183.024 108.852 183.767 109.011 187.331 109.503C187.432 109.519 187.528 109.524 187.629 109.524C187.753 109.524 187.877 109.514 188.001 109.493L188.361 109.429C191.311 108.916 195.252 108.222 195.455 108.185C195.652 108.148 195.843 108.111 198.107 106.057C198.259 105.914 198.461 105.829 198.675 105.818C200.212 105.712 204.007 105.442 206.011 105.204C208.195 104.939 209.349 105.797 209.383 105.824L210.661 106.872C211.033 107.179 211.511 107.348 212.007 107.348H214.073C214.726 107.348 215.345 107.052 215.728 106.554C217.276 104.542 218.008 103.854 218.199 103.764C219.14 103.362 226.464 99.4225 226.774 99.2583L226.216 98.3371C223.593 99.7455 218.447 102.493 217.732 102.8C217.53 102.89 216.983 103.123 214.822 105.935C214.653 106.157 214.371 106.289 214.078 106.289H212.012C211.787 106.289 211.573 106.215 211.404 106.078L210.121 105.024C210.059 104.976 208.584 103.833 205.87 104.156C203.894 104.394 200.122 104.659 198.596 104.765C198.118 104.796 197.667 104.987 197.324 105.299C196.029 106.475 195.365 107.025 195.156 107.163C194.464 107.285 189.763 108.105 188.159 108.386L187.798 108.45C187.697 108.465 187.601 108.471 187.5 108.455C184.893 108.095 183.491 107.862 183.238 107.793C183.058 107.714 182.467 107.613 178.03 107.735C177.918 107.587 177.771 107.465 177.636 107.364C174.979 105.474 168.415 102.578 168.122 102.451C167.277 102.102 166.27 101.646 165.971 101.461C165.926 101.233 165.898 100.54 166.022 99.0783C166.067 98.5595 165.825 98.0618 165.374 97.7494L164.339 97.0294C164.018 96.807 163.624 96.7064 163.23 96.7382L157.059 97.2994C156.096 97.3417 147.99 97.7124 146.672 97.813C146.21 97.5006 144.606 95.7587 142.016 92.5026C141.712 92.1214 141.239 91.899 140.727 91.899C139.933 91.899 138.841 91.9996 138.16 92.4655C137.923 92.6243 137.214 93.1114 135.863 99.1366C135.823 99.3219 135.66 99.4595 135.463 99.486C132.479 99.846 130.402 100.063 129.912 100.063C129.439 100.037 127.446 98.766 125.774 97.5323L127.272 85.7891C127.294 85.625 127.283 85.4609 127.249 85.302C126.613 82.3053 125.521 76.9791 125.464 76.0419C125.448 75.7348 125.926 74.9777 127.35 73.8447C127.739 73.5376 127.953 73.0823 127.936 72.6058C127.919 72.1293 127.677 71.6951 127.272 71.4092L125.926 70.4668C125.645 70.2709 125.296 70.1597 124.941 70.1597H119.182C118.129 70.1597 114.931 69.0426 110.624 67.1683C110.376 67.0624 110.258 66.7977 110.354 66.5489L115.044 54.4191C115.1 54.2709 115.134 54.1174 115.139 53.9638C115.241 51.9519 115.364 47.1392 114.278 45.9691C113.726 45.3761 112.944 43.7984 112.189 41.7388C112.003 41.2411 111.57 40.8652 111.029 40.7434C110.236 40.5581 108.642 40.161 106.897 39.5416C105.557 39.0704 105.417 36.2378 105.726 33.7441C105.805 33.114 105.473 32.5052 104.882 32.2034C102.596 31.028 98.4524 29.0637 96.4875 29.1961C94.4326 29.3285 92.3721 26.9883 91.8035 25.6435C91.1054 24.0393 81.9062 22.8956 77.9822 22.4827L77.8583 23.5363C83.6289 24.1451 90.199 25.2888 90.7507 26.0459C91.415 27.6025 93.7739 30.4456 96.5551 30.2656C97.9963 30.1862 101.509 31.6951 104.336 33.1458C104.521 33.2411 104.628 33.437 104.606 33.6329C104.324 35.8672 104.195 39.7322 106.497 40.5475C108.293 41.1829 109.937 41.5958 110.754 41.7864C110.928 41.8288 111.063 41.94 111.12 42.1041C111.598 43.4013 112.533 45.7256 113.422 46.6839C113.946 47.2504 114.193 50.2947 114.008 53.9321C114.008 53.9797 113.996 54.0274 113.98 54.075L109.29 66.2047C108.991 66.9724 109.363 67.8037 110.146 68.1425C112.797 69.2967 117.498 71.2292 119.176 71.2292H124.935C125.048 71.2292 125.155 71.261 125.25 71.3245L126.596 72.2669C126.776 72.3887 126.804 72.5581 126.81 72.6481C126.816 72.8017 126.748 72.9446 126.619 73.0452C125.031 74.3106 124.288 75.3113 124.333 76.1108C124.406 77.3073 125.847 84.1584 126.14 85.5191C126.151 85.5668 126.151 85.6197 126.146 85.6726L124.614 97.7071C124.603 97.7971 124.569 97.8818 124.507 97.9506C119.823 103.568 114.588 109.757 113.371 111.012C113.062 110.859 112.493 110.594 111.429 110.107C110.872 109.853 110.224 109.906 109.729 110.25L99.4657 117.318C99.3194 117.419 99.1279 117.445 98.959 117.376C97.4897 116.82 93.8246 115.523 91.5276 115.46C90.2271 115.422 87.6993 115.841 84.7774 116.328C81.3038 116.905 77.3629 117.556 74.745 117.556V118.615C77.4642 118.615 81.4558 117.953 84.9745 117.371C87.7162 116.916 90.3003 116.487 91.4995 116.518C93.6726 116.577 97.439 117.943 98.5368 118.356C98.6494 118.398 98.762 118.424 98.8802 118.44L103.896 125.503C103.93 125.546 103.947 125.593 103.964 125.646C104.628 128.23 104.921 129.882 104.87 130.178C104.707 130.872 101.785 136.331 101.115 136.791C100.412 137.194 100.417 138.374 103.424 147.984C103.75 149.032 104.009 149.858 104.077 150.139C104.319 151.129 106.238 152.145 110.703 153.659C110.968 153.749 111.159 153.813 111.243 153.845C111.632 153.998 112.786 155.576 113.152 156.566C113.259 156.942 112.572 158.71 111.091 161.257C110.962 161.479 110.894 161.728 110.894 161.977V168.749C110.894 169.056 110.894 169.575 114.323 171.55C114.424 171.608 114.497 171.698 114.531 171.804L117.234 180.503C117.25 180.561 117.279 180.614 117.301 180.672C112.921 182.721 106.407 185.707 105.338 186.041C105.118 185.892 104.611 185.336 103.913 184.23C103.857 184.14 103.812 184.039 103.784 183.933L103.305 182.229C103.226 181.943 103.086 181.678 102.9 181.445L101.746 180.016C101.155 179.28 100.158 178.967 99.2124 179.211L88.1835 182.091C87.705 182.213 87.1983 182.064 86.8774 181.704L84.9745 179.544C84.6198 179.142 84.1244 178.867 83.5839 178.771L79.2771 178.009C78.7141 177.908 78.1286 178.004 77.6388 178.274L66.4016 184.373L66.9646 185.289L78.1961 179.205C78.4551 179.062 78.7647 179.015 79.0631 179.062L83.37 179.825C83.6571 179.878 83.9161 180.021 84.1019 180.233L86.0047 182.393C86.6015 183.07 87.5755 183.356 88.4763 183.123L99.5051 180.248C100.001 180.116 100.53 180.286 100.839 180.672L101.994 182.102C102.095 182.223 102.162 182.361 102.207 182.515L102.686 184.219C102.742 184.421 102.827 184.606 102.934 184.786C104.414 187.137 105.039 187.137 105.304 187.137C105.929 187.137 112.561 184.092 118.129 181.477C118.292 181.546 118.467 181.588 118.652 181.599L133.082 182.541L132.136 192.86C132.113 193.119 132.001 193.368 131.815 193.564L127.598 198.059C127.531 198.133 127.452 198.197 127.373 198.25L120.257 202.951C119.795 203.258 119.463 203.703 119.311 204.211L116.068 215.335C115.916 215.859 115.967 216.421 116.215 216.918L119.654 223.722C119.829 224.061 119.818 224.468 119.638 224.802L116.474 230.605C116.243 231.028 115.759 231.288 115.257 231.266L105.433 230.832C105.158 230.822 104.882 230.853 104.617 230.928L98.2553 232.744C98.1033 232.786 97.9513 232.802 97.7937 232.791L86.3031 232.087C85.7908 232.055 85.3461 231.743 85.1715 231.288L83.2799 226.432C82.9308 225.538 82.0188 224.934 81.0054 224.934H80.6282C79.9132 224.934 79.2377 225.231 78.776 225.739L77.8471 226.771C77.498 227.163 76.9182 227.306 76.4058 227.126L75.2968 226.75C75.0603 226.665 74.852 226.522 74.7056 226.332L73.5121 224.818C73.0279 224.198 72.2454 223.854 71.429 223.896L63.7386 224.294C62.9617 224.336 62.2467 224.722 61.8301 225.342L56.1102 233.744C55.8737 234.099 55.4628 234.305 55.018 234.305H52.3663C52.0173 234.305 51.6851 234.173 51.4374 233.94L46.2636 228.984L45.4585 229.726L50.6323 234.681C51.0827 235.115 51.7133 235.364 52.3607 235.364H55.0124C55.8456 235.364 56.6056 234.973 57.056 234.316L62.7759 225.914C63.0011 225.585 63.384 225.374 63.8006 225.352L71.491 224.955C71.9301 224.934 72.3467 225.119 72.6057 225.448L73.7992 226.962C74.0807 227.317 74.4635 227.587 74.9027 227.74L76.023 228.132C76.9745 228.466 78.061 228.196 78.7141 227.465L79.643 226.432C79.8907 226.157 80.251 225.998 80.6339 225.998H81.0111C81.5515 225.998 82.0413 226.321 82.2327 226.798L84.1244 231.653C84.4565 232.5 85.2841 233.088 86.2412 233.146L97.7261 233.85C98.0189 233.866 98.306 233.84 98.5875 233.755L104.949 231.939C105.09 231.896 105.236 231.881 105.388 231.886L115.212 232.32C115.398 232.331 115.578 232.309 115.759 232.283L117.369 243.608C117.532 244.751 118.213 245.779 119.232 246.419L124.761 249.892C125.324 250.247 125.74 250.745 125.971 251.338L129.58 260.63L130.638 260.264L127.03 250.973C126.714 250.162 126.146 249.485 125.386 249.008L119.857 245.535C119.103 245.064 118.602 244.307 118.483 243.46L116.834 231.828C117.098 231.626 117.324 231.378 117.487 231.081L120.651 225.278C120.994 224.648 121.006 223.896 120.685 223.261L117.245 216.458C117.11 216.193 117.082 215.891 117.166 215.61L120.409 204.487C120.488 204.211 120.668 203.973 120.916 203.809L128.032 199.108C128.184 199.007 128.33 198.885 128.454 198.753L132.671 194.258L137.946 199.499C138.064 199.621 138.205 199.722 138.357 199.796L150.32 205.927C150.529 206.033 150.636 206.255 150.59 206.472L149.476 211.555C149.301 212.365 149.825 213.164 150.669 213.376C152.026 213.72 153.822 214.128 154.7 214.128C155.894 214.128 171.669 212.815 174.821 212.556C174.911 212.545 174.996 212.561 175.08 212.593L182.039 215.399C182.247 215.483 182.467 215.526 182.692 215.526H190.782C191.148 215.526 191.508 215.409 191.801 215.198L196.361 211.862C196.772 211.56 197.301 211.454 197.808 211.571L202.008 212.524C202.723 212.688 203.483 212.556 204.091 212.164L211.917 207.145C212.26 206.922 212.693 206.848 213.099 206.938L221.555 208.812C222.067 208.924 222.602 208.902 223.103 208.738L227.855 207.176C227.9 207.16 227.95 207.15 228.007 207.15L236.468 206.758L236.412 205.704ZM118.315 180.217L115.612 171.518C115.5 171.158 115.252 170.851 114.914 170.655C112.944 169.516 112.184 168.886 112.026 168.68V161.988C112.026 161.914 112.043 161.839 112.082 161.776C113.782 158.853 114.503 156.99 114.216 156.233C113.856 155.264 112.566 153.225 111.677 152.881C111.581 152.844 111.373 152.775 111.086 152.675C105.788 150.88 105.219 150.107 105.174 149.911C105.096 149.599 104.848 148.799 104.504 147.698C103.728 145.22 101.695 138.718 101.847 137.601C103.007 136.601 105.811 131.121 105.974 130.411C106.092 129.903 105.782 128.219 105.062 125.408C105.017 125.239 104.944 125.074 104.837 124.926L100.068 118.207C100.091 118.197 100.113 118.186 100.13 118.176L110.393 111.107C110.551 110.996 110.759 110.98 110.934 111.06C112.837 111.933 113.107 112.082 113.141 112.098C113.715 112.452 113.715 112.452 119.17 106.014C121.833 102.875 124.609 99.5496 125.391 98.6018C126.754 99.5919 129.006 101.122 129.901 101.122C130.65 101.122 133.791 100.757 135.598 100.534C136.274 100.455 136.82 99.9784 136.961 99.3537C137.805 95.5999 138.52 93.5879 138.818 93.3232C139.156 93.0955 139.849 92.9632 140.727 92.9579C140.885 92.9579 141.025 93.0214 141.115 93.1379C145.76 98.983 146.284 98.9248 146.666 98.8771C147.117 98.8242 153.163 98.5383 157.144 98.3583L163.342 97.7971C163.46 97.7865 163.579 97.8183 163.669 97.8818L164.705 98.6018C164.84 98.6971 164.913 98.8401 164.896 98.9936C164.66 101.741 164.918 101.985 165.11 102.165C165.465 102.499 167.018 103.155 167.655 103.415C167.722 103.446 174.388 106.385 176.949 108.211C176.989 108.243 177.023 108.264 177.045 108.285C177.023 108.317 176.989 108.36 176.933 108.418C172.434 113.384 167.018 119.552 166.754 120.717C166.489 121.887 166.365 125.509 166.332 127.012C166.326 127.15 166.258 127.277 166.135 127.362L162.013 130.184C161.912 130.252 161.788 130.284 161.67 130.263L160.6 130.125C160.465 130.109 160.347 130.041 160.274 129.94C159.745 129.204 158.934 128.309 158.039 128.219C156.98 128.119 153.253 128.844 152.854 128.923L147.674 129.744C146.948 129.861 146.396 130.422 146.34 131.115C146.132 133.694 145.946 134.991 145.839 135.388C145.321 135.6 143.852 135.939 143.345 135.7C142.906 135.494 140.643 134.493 139.376 135.166C138.109 135.838 137.484 136.749 137.67 137.67C137.749 138.078 137.839 139.798 137.912 142.271C137.918 142.43 137.833 142.573 137.692 142.657L134.855 144.389C134.298 144.728 134.022 145.347 134.157 145.956L134.697 148.434C134.754 148.693 134.883 148.937 135.069 149.133L136.33 150.467C136.403 150.546 136.448 150.642 136.448 150.747L137.107 167.293C137.124 167.727 137.338 168.135 137.698 168.405L142.061 171.74C142.163 171.82 142.23 171.936 142.236 172.063L142.495 176.283C142.506 176.447 142.416 176.606 142.27 176.691L134.022 181.456C133.937 181.503 133.836 181.53 133.74 181.519L118.742 180.54C118.54 180.529 118.365 180.397 118.315 180.217Z"/>
</mask>
<path d="M236.412 205.704L227.945 206.096C227.787 206.107 227.63 206.133 227.483 206.181L222.732 207.743C222.433 207.838 222.118 207.854 221.814 207.785L213.358 205.911C212.643 205.752 211.888 205.884 211.28 206.276L203.455 211.295C203.106 211.518 202.678 211.592 202.267 211.497L198.067 210.544C197.223 210.353 196.35 210.528 195.669 211.031L191.109 214.366C191.013 214.435 190.895 214.472 190.776 214.472H182.686C182.613 214.472 182.546 214.456 182.472 214.43L175.514 211.624C175.261 211.523 174.985 211.481 174.714 211.502C167.722 212.084 155.64 213.069 154.695 213.069C154.115 213.069 152.752 212.81 150.962 212.354C150.692 212.286 150.523 212.026 150.579 211.767L151.694 206.684C151.84 206.006 151.508 205.329 150.861 204.995L138.897 198.864C138.847 198.837 138.802 198.806 138.768 198.769L133.217 193.257C133.239 193.156 133.262 193.051 133.273 192.945L134.224 182.509C134.36 182.472 134.489 182.419 134.613 182.35L142.861 177.585C143.362 177.294 143.655 176.77 143.621 176.214L143.362 171.994C143.334 171.571 143.12 171.179 142.771 170.909L138.407 167.573C138.301 167.494 138.239 167.372 138.233 167.24L137.574 150.695C137.557 150.345 137.417 150.012 137.169 149.752L135.908 148.418C135.852 148.36 135.812 148.286 135.795 148.211L135.255 145.734C135.215 145.554 135.294 145.368 135.463 145.268L138.301 143.536C138.768 143.25 139.044 142.753 139.032 142.234C138.987 140.725 138.897 138.104 138.773 137.469C138.644 136.818 139.624 136.246 139.928 136.087C140.434 135.817 141.808 136.161 142.844 136.648C143.936 137.162 146.171 136.479 146.588 136.214C146.864 136.039 147.089 135.902 147.466 131.195C147.483 130.988 147.646 130.824 147.866 130.787L153.068 129.961C154.593 129.659 157.256 129.204 157.926 129.273C158.185 129.299 158.709 129.644 159.345 130.533C159.598 130.888 160.004 131.121 160.454 131.179L161.524 131.317C161.935 131.37 162.346 131.269 162.683 131.041L166.804 128.219C167.21 127.939 167.452 127.51 167.463 127.039C167.491 125.89 167.61 122.051 167.863 120.939C168.066 120.203 172.057 115.449 177.8 109.101C177.884 109.006 177.963 108.905 178.036 108.794C180.153 108.741 182.399 108.72 182.805 108.773C183.024 108.852 183.767 109.011 187.331 109.503C187.432 109.519 187.528 109.524 187.629 109.524C187.753 109.524 187.877 109.514 188.001 109.493L188.361 109.429C191.311 108.916 195.252 108.222 195.455 108.185C195.652 108.148 195.843 108.111 198.107 106.057C198.259 105.914 198.461 105.829 198.675 105.818C200.212 105.712 204.007 105.442 206.011 105.204C208.195 104.939 209.349 105.797 209.383 105.824L210.661 106.872C211.033 107.179 211.511 107.348 212.007 107.348H214.073C214.726 107.348 215.345 107.052 215.728 106.554C217.276 104.542 218.008 103.854 218.199 103.764C219.14 103.362 226.464 99.4225 226.774 99.2583L226.216 98.3371C223.593 99.7455 218.447 102.493 217.732 102.8C217.53 102.89 216.983 103.123 214.822 105.935C214.653 106.157 214.371 106.289 214.078 106.289H212.012C211.787 106.289 211.573 106.215 211.404 106.078L210.121 105.024C210.059 104.976 208.584 103.833 205.87 104.156C203.894 104.394 200.122 104.659 198.596 104.765C198.118 104.796 197.667 104.987 197.324 105.299C196.029 106.475 195.365 107.025 195.156 107.163C194.464 107.285 189.763 108.105 188.159 108.386L187.798 108.45C187.697 108.465 187.601 108.471 187.5 108.455C184.893 108.095 183.491 107.862 183.238 107.793C183.058 107.714 182.467 107.613 178.03 107.735C177.918 107.587 177.771 107.465 177.636 107.364C174.979 105.474 168.415 102.578 168.122 102.451C167.277 102.102 166.27 101.646 165.971 101.461C165.926 101.233 165.898 100.54 166.022 99.0783C166.067 98.5595 165.825 98.0618 165.374 97.7494L164.339 97.0294C164.018 96.807 163.624 96.7064 163.23 96.7382L157.059 97.2994C156.096 97.3417 147.99 97.7124 146.672 97.813C146.21 97.5006 144.606 95.7587 142.016 92.5026C141.712 92.1214 141.239 91.899 140.727 91.899C139.933 91.899 138.841 91.9996 138.16 92.4655C137.923 92.6243 137.214 93.1114 135.863 99.1366C135.823 99.3219 135.66 99.4595 135.463 99.486C132.479 99.846 130.402 100.063 129.912 100.063C129.439 100.037 127.446 98.766 125.774 97.5323L127.272 85.7891C127.294 85.625 127.283 85.4609 127.249 85.302C126.613 82.3053 125.521 76.9791 125.464 76.0419C125.448 75.7348 125.926 74.9777 127.35 73.8447C127.739 73.5376 127.953 73.0823 127.936 72.6058C127.919 72.1293 127.677 71.6951 127.272 71.4092L125.926 70.4668C125.645 70.2709 125.296 70.1597 124.941 70.1597H119.182C118.129 70.1597 114.931 69.0426 110.624 67.1683C110.376 67.0624 110.258 66.7977 110.354 66.5489L115.044 54.4191C115.1 54.2709 115.134 54.1174 115.139 53.9638C115.241 51.9519 115.364 47.1392 114.278 45.9691C113.726 45.3761 112.944 43.7984 112.189 41.7388C112.003 41.2411 111.57 40.8652 111.029 40.7434C110.236 40.5581 108.642 40.161 106.897 39.5416C105.557 39.0704 105.417 36.2378 105.726 33.7441C105.805 33.114 105.473 32.5052 104.882 32.2034C102.596 31.028 98.4524 29.0637 96.4875 29.1961C94.4326 29.3285 92.3721 26.9883 91.8035 25.6435C91.1054 24.0393 81.9062 22.8956 77.9822 22.4827L77.8583 23.5363C83.6289 24.1451 90.199 25.2888 90.7507 26.0459C91.415 27.6025 93.7739 30.4456 96.5551 30.2656C97.9963 30.1862 101.509 31.6951 104.336 33.1458C104.521 33.2411 104.628 33.437 104.606 33.6329C104.324 35.8672 104.195 39.7322 106.497 40.5475C108.293 41.1829 109.937 41.5958 110.754 41.7864C110.928 41.8288 111.063 41.94 111.12 42.1041C111.598 43.4013 112.533 45.7256 113.422 46.6839C113.946 47.2504 114.193 50.2947 114.008 53.9321C114.008 53.9797 113.996 54.0274 113.98 54.075L109.29 66.2047C108.991 66.9724 109.363 67.8037 110.146 68.1425C112.797 69.2967 117.498 71.2292 119.176 71.2292H124.935C125.048 71.2292 125.155 71.261 125.25 71.3245L126.596 72.2669C126.776 72.3887 126.804 72.5581 126.81 72.6481C126.816 72.8017 126.748 72.9446 126.619 73.0452C125.031 74.3106 124.288 75.3113 124.333 76.1108C124.406 77.3073 125.847 84.1584 126.14 85.5191C126.151 85.5668 126.151 85.6197 126.146 85.6726L124.614 97.7071C124.603 97.7971 124.569 97.8818 124.507 97.9506C119.823 103.568 114.588 109.757 113.371 111.012C113.062 110.859 112.493 110.594 111.429 110.107C110.872 109.853 110.224 109.906 109.729 110.25L99.4657 117.318C99.3194 117.419 99.1279 117.445 98.959 117.376C97.4897 116.82 93.8246 115.523 91.5276 115.46C90.2271 115.422 87.6993 115.841 84.7774 116.328C81.3038 116.905 77.3629 117.556 74.745 117.556V118.615C77.4642 118.615 81.4558 117.953 84.9745 117.371C87.7162 116.916 90.3003 116.487 91.4995 116.518C93.6726 116.577 97.439 117.943 98.5368 118.356C98.6494 118.398 98.762 118.424 98.8802 118.44L103.896 125.503C103.93 125.546 103.947 125.593 103.964 125.646C104.628 128.23 104.921 129.882 104.87 130.178C104.707 130.872 101.785 136.331 101.115 136.791C100.412 137.194 100.417 138.374 103.424 147.984C103.75 149.032 104.009 149.858 104.077 150.139C104.319 151.129 106.238 152.145 110.703 153.659C110.968 153.749 111.159 153.813 111.243 153.845C111.632 153.998 112.786 155.576 113.152 156.566C113.259 156.942 112.572 158.71 111.091 161.257C110.962 161.479 110.894 161.728 110.894 161.977V168.749C110.894 169.056 110.894 169.575 114.323 171.55C114.424 171.608 114.497 171.698 114.531 171.804L117.234 180.503C117.25 180.561 117.279 180.614 117.301 180.672C112.921 182.721 106.407 185.707 105.338 186.041C105.118 185.892 104.611 185.336 103.913 184.23C103.857 184.14 103.812 184.039 103.784 183.933L103.305 182.229C103.226 181.943 103.086 181.678 102.9 181.445L101.746 180.016C101.155 179.28 100.158 178.967 99.2124 179.211L88.1835 182.091C87.705 182.213 87.1983 182.064 86.8774 181.704L84.9745 179.544C84.6198 179.142 84.1244 178.867 83.5839 178.771L79.2771 178.009C78.7141 177.908 78.1286 178.004 77.6388 178.274L66.4016 184.373L66.9646 185.289L78.1961 179.205C78.4551 179.062 78.7647 179.015 79.0631 179.062L83.37 179.825C83.6571 179.878 83.9161 180.021 84.1019 180.233L86.0047 182.393C86.6015 183.07 87.5755 183.356 88.4763 183.123L99.5051 180.248C100.001 180.116 100.53 180.286 100.839 180.672L101.994 182.102C102.095 182.223 102.162 182.361 102.207 182.515L102.686 184.219C102.742 184.421 102.827 184.606 102.934 184.786C104.414 187.137 105.039 187.137 105.304 187.137C105.929 187.137 112.561 184.092 118.129 181.477C118.292 181.546 118.467 181.588 118.652 181.599L133.082 182.541L132.136 192.86C132.113 193.119 132.001 193.368 131.815 193.564L127.598 198.059C127.531 198.133 127.452 198.197 127.373 198.25L120.257 202.951C119.795 203.258 119.463 203.703 119.311 204.211L116.068 215.335C115.916 215.859 115.967 216.421 116.215 216.918L119.654 223.722C119.829 224.061 119.818 224.468 119.638 224.802L116.474 230.605C116.243 231.028 115.759 231.288 115.257 231.266L105.433 230.832C105.158 230.822 104.882 230.853 104.617 230.928L98.2553 232.744C98.1033 232.786 97.9513 232.802 97.7937 232.791L86.3031 232.087C85.7908 232.055 85.3461 231.743 85.1715 231.288L83.2799 226.432C82.9308 225.538 82.0188 224.934 81.0054 224.934H80.6282C79.9132 224.934 79.2377 225.231 78.776 225.739L77.8471 226.771C77.498 227.163 76.9182 227.306 76.4058 227.126L75.2968 226.75C75.0603 226.665 74.852 226.522 74.7056 226.332L73.5121 224.818C73.0279 224.198 72.2454 223.854 71.429 223.896L63.7386 224.294C62.9617 224.336 62.2467 224.722 61.8301 225.342L56.1102 233.744C55.8737 234.099 55.4628 234.305 55.018 234.305H52.3663C52.0173 234.305 51.6851 234.173 51.4374 233.94L46.2636 228.984L45.4585 229.726L50.6323 234.681C51.0827 235.115 51.7133 235.364 52.3607 235.364H55.0124C55.8456 235.364 56.6056 234.973 57.056 234.316L62.7759 225.914C63.0011 225.585 63.384 225.374 63.8006 225.352L71.491 224.955C71.9301 224.934 72.3467 225.119 72.6057 225.448L73.7992 226.962C74.0807 227.317 74.4635 227.587 74.9027 227.74L76.023 228.132C76.9745 228.466 78.061 228.196 78.7141 227.465L79.643 226.432C79.8907 226.157 80.251 225.998 80.6339 225.998H81.0111C81.5515 225.998 82.0413 226.321 82.2327 226.798L84.1244 231.653C84.4565 232.5 85.2841 233.088 86.2412 233.146L97.7261 233.85C98.0189 233.866 98.306 233.84 98.5875 233.755L104.949 231.939C105.09 231.896 105.236 231.881 105.388 231.886L115.212 232.32C115.398 232.331 115.578 232.309 115.759 232.283L117.369 243.608C117.532 244.751 118.213 245.779 119.232 246.419L124.761 249.892C125.324 250.247 125.74 250.745 125.971 251.338L129.58 260.63L130.638 260.264L127.03 250.973C126.714 250.162 126.146 249.485 125.386 249.008L119.857 245.535C119.103 245.064 118.602 244.307 118.483 243.46L116.834 231.828C117.098 231.626 117.324 231.378 117.487 231.081L120.651 225.278C120.994 224.648 121.006 223.896 120.685 223.261L117.245 216.458C117.11 216.193 117.082 215.891 117.166 215.61L120.409 204.487C120.488 204.211 120.668 203.973 120.916 203.809L128.032 199.108C128.184 199.007 128.33 198.885 128.454 198.753L132.671 194.258L137.946 199.499C138.064 199.621 138.205 199.722 138.357 199.796L150.32 205.927C150.529 206.033 150.636 206.255 150.59 206.472L149.476 211.555C149.301 212.365 149.825 213.164 150.669 213.376C152.026 213.72 153.822 214.128 154.7 214.128C155.894 214.128 171.669 212.815 174.821 212.556C174.911 212.545 174.996 212.561 175.08 212.593L182.039 215.399C182.247 215.483 182.467 215.526 182.692 215.526H190.782C191.148 215.526 191.508 215.409 191.801 215.198L196.361 211.862C196.772 211.56 197.301 211.454 197.808 211.571L202.008 212.524C202.723 212.688 203.483 212.556 204.091 212.164L211.917 207.145C212.26 206.922 212.693 206.848 213.099 206.938L221.555 208.812C222.067 208.924 222.602 208.902 223.103 208.738L227.855 207.176C227.9 207.16 227.95 207.15 228.007 207.15L236.468 206.758L236.412 205.704ZM118.315 180.217L115.612 171.518C115.5 171.158 115.252 170.851 114.914 170.655C112.944 169.516 112.184 168.886 112.026 168.68V161.988C112.026 161.914 112.043 161.839 112.082 161.776C113.782 158.853 114.503 156.99 114.216 156.233C113.856 155.264 112.566 153.225 111.677 152.881C111.581 152.844 111.373 152.775 111.086 152.675C105.788 150.88 105.219 150.107 105.174 149.911C105.096 149.599 104.848 148.799 104.504 147.698C103.728 145.22 101.695 138.718 101.847 137.601C103.007 136.601 105.811 131.121 105.974 130.411C106.092 129.903 105.782 128.219 105.062 125.408C105.017 125.239 104.944 125.074 104.837 124.926L100.068 118.207C100.091 118.197 100.113 118.186 100.13 118.176L110.393 111.107C110.551 110.996 110.759 110.98 110.934 111.06C112.837 111.933 113.107 112.082 113.141 112.098C113.715 112.452 113.715 112.452 119.17 106.014C121.833 102.875 124.609 99.5496 125.391 98.6018C126.754 99.5919 129.006 101.122 129.901 101.122C130.65 101.122 133.791 100.757 135.598 100.534C136.274 100.455 136.82 99.9784 136.961 99.3537C137.805 95.5999 138.52 93.5879 138.818 93.3232C139.156 93.0955 139.849 92.9632 140.727 92.9579C140.885 92.9579 141.025 93.0214 141.115 93.1379C145.76 98.983 146.284 98.9248 146.666 98.8771C147.117 98.8242 153.163 98.5383 157.144 98.3583L163.342 97.7971C163.46 97.7865 163.579 97.8183 163.669 97.8818L164.705 98.6018C164.84 98.6971 164.913 98.8401 164.896 98.9936C164.66 101.741 164.918 101.985 165.11 102.165C165.465 102.499 167.018 103.155 167.655 103.415C167.722 103.446 174.388 106.385 176.949 108.211C176.989 108.243 177.023 108.264 177.045 108.285C177.023 108.317 176.989 108.36 176.933 108.418C172.434 113.384 167.018 119.552 166.754 120.717C166.489 121.887 166.365 125.509 166.332 127.012C166.326 127.15 166.258 127.277 166.135 127.362L162.013 130.184C161.912 130.252 161.788 130.284 161.67 130.263L160.6 130.125C160.465 130.109 160.347 130.041 160.274 129.94C159.745 129.204 158.934 128.309 158.039 128.219C156.98 128.119 153.253 128.844 152.854 128.923L147.674 129.744C146.948 129.861 146.396 130.422 146.34 131.115C146.132 133.694 145.946 134.991 145.839 135.388C145.321 135.6 143.852 135.939 143.345 135.7C142.906 135.494 140.643 134.493 139.376 135.166C138.109 135.838 137.484 136.749 137.67 137.67C137.749 138.078 137.839 139.798 137.912 142.271C137.918 142.43 137.833 142.573 137.692 142.657L134.855 144.389C134.298 144.728 134.022 145.347 134.157 145.956L134.697 148.434C134.754 148.693 134.883 148.937 135.069 149.133L136.33 150.467C136.403 150.546 136.448 150.642 136.448 150.747L137.107 167.293C137.124 167.727 137.338 168.135 137.698 168.405L142.061 171.74C142.163 171.82 142.23 171.936 142.236 172.063L142.495 176.283C142.506 176.447 142.416 176.606 142.27 176.691L134.022 181.456C133.937 181.503 133.836 181.53 133.74 181.519L118.742 180.54C118.54 180.529 118.365 180.397 118.315 180.217Z" fill="#404040" stroke="#4A4A4A" stroke-width="2" mask="url(#path-8-inside-1)"/>
</g>
<g opacity="0.4">
<circle cx="76.3482" cy="127.076" r="16.0118" fill="url(#paint0_radial)"/>
<circle cx="103.399" cy="255.162" r="10.386" fill="url(#paint1_radial)"/>
<circle cx="165.164" cy="243.954" r="13.848" fill="url(#paint2_radial)"/>
<circle cx="95.2171" cy="309.704" r="13.848" fill="url(#paint3_radial)"/>
<circle cx="80.4962" cy="242.929" r="19.4738" fill="url(#paint4_radial)"/>
<circle cx="104.152" cy="156.379" r="37.6493" fill="url(#paint5_radial)"/>
<circle cx="85.2559" cy="207.3" r="26.542" fill="url(#paint6_radial)"/>
<circle cx="85.1115" cy="89.7353" r="30.7253" fill="url(#paint7_radial)"/>
<circle cx="130.021" cy="45.4995" r="13.897" fill="url(#paint8_radial)"/>
<circle cx="185.777" cy="184.209" r="25.5323" fill="url(#paint9_radial)"/>
</g>
<circle cx="86.2654" cy="72.427" r="1.87525" fill="#3CC55E"/>
<circle cx="88.1272" cy="105.027" r="1.87525" fill="#3CC55E"/>
<circle cx="73.4788" cy="102.849" r="1.87525" fill="#3CC55E"/>
<circle cx="77.322" cy="89.1589" r="1.87525" fill="#3CC55E"/>
<circle cx="87.9963" cy="130.992" r="1.87525" fill="#3CC55E"/>
<circle cx="75.3567" cy="127.165" r="1.87525" fill="#3CC55E"/>
<circle cx="95.2634" cy="147.488" r="1.87525" fill="#3CC55E"/>
<circle cx="108.033" cy="161.641" r="1.87525" fill="#3CC55E"/>
<circle cx="117.799" cy="172.892" r="1.87525" fill="#3CC55E"/>
<circle cx="189.548" cy="176.575" r="1.87525" fill="#3CC55E"/>
<circle cx="91.1702" cy="198.212" r="1.87525" fill="#3CC55E"/>
<circle cx="75.3567" cy="202.289" r="1.87525" fill="#3CC55E"/>
<circle cx="69.3474" cy="210.272" r="1.87525" fill="#3CC55E"/>
<circle cx="85.3997" cy="206.579" r="1.87525" fill="#3CC55E"/>
<circle cx="79.6301" cy="242.93" r="1.87525" fill="#3CC55E"/>
<circle cx="103.309" cy="255.207" r="1.87525" fill="#3CC55E"/>
<circle cx="165.124" cy="243.661" r="1.87525" fill="#3CC55E"/>
<circle cx="95.1721" cy="309.073" r="1.87525" fill="#3CC55E"/>
<circle cx="179.397" cy="190.313" r="1.87525" fill="#3CC55E"/>
<circle cx="187.659" cy="200.111" r="1.87525" fill="#3CC55E"/>
<circle cx="129.828" cy="45.3074" r="1.87525" fill="#3CC55E"/>
<circle cx="87.9963" cy="90.8904" r="1.87525" fill="#3CC55E"/>
<ellipse cx="84.0757" cy="81.6587" rx="1.99322" ry="1.87525" fill="#3CC55E"/>
<ellipse cx="114.079" cy="130.992" rx="1.99327" ry="1.87525" fill="#3CC55E"/>
<circle cx="71.8396" cy="79.6389" r="1.87525" fill="#3CC55E"/>
<circle cx="66.6472" cy="83.678" r="1.87525" fill="#3CC55E"/>
<defs>
<radialGradient id="paint0_radial" cx="0" cy="0" r="1" gradientUnits="userSpaceOnUse" gradientTransform="translate(76.3482 127.076) rotate(90) scale(29.7762)">
<stop offset="0.213542" stop-color="#85E79B" stop-opacity="0.1"/>
<stop offset="1" stop-color="#ADFFC1"/>
</radialGradient>
<radialGradient id="paint1_radial" cx="0" cy="0" r="1" gradientUnits="userSpaceOnUse" gradientTransform="translate(103.399 255.162) rotate(90) scale(19.3143)">
<stop offset="0.213542" stop-color="#85E79B" stop-opacity="0.1"/>
<stop offset="1" stop-color="#ADFFC1"/>
</radialGradient>
<radialGradient id="paint2_radial" cx="0" cy="0" r="1" gradientUnits="userSpaceOnUse" gradientTransform="translate(165.164 243.954) rotate(90) scale(25.7524)">
<stop offset="0.213542" stop-color="#85E79B" stop-opacity="0.1"/>
<stop offset="1" stop-color="#ADFFC1"/>
</radialGradient>
<radialGradient id="paint3_radial" cx="0" cy="0" r="1" gradientUnits="userSpaceOnUse" gradientTransform="translate(95.2171 309.704) rotate(90) scale(25.7524)">
<stop offset="0.213542" stop-color="#85E79B" stop-opacity="0.1"/>
<stop offset="1" stop-color="#ADFFC1"/>
</radialGradient>
<radialGradient id="paint4_radial" cx="0" cy="0" r="1" gradientUnits="userSpaceOnUse" gradientTransform="translate(80.4962 242.929) rotate(90) scale(36.2143)">
<stop offset="0.213542" stop-color="#85E79B" stop-opacity="0.1"/>
<stop offset="1" stop-color="#ADFFC1"/>
</radialGradient>
<radialGradient id="paint5_radial" cx="0" cy="0" r="1" gradientUnits="userSpaceOnUse" gradientTransform="translate(104.152 156.379) rotate(90) scale(70.0144)">
<stop offset="0.213542" stop-color="#85E79B" stop-opacity="0.1"/>
<stop offset="1" stop-color="#ADFFC1"/>
</radialGradient>
<radialGradient id="paint6_radial" cx="0" cy="0" r="1" gradientUnits="userSpaceOnUse" gradientTransform="translate(85.2559 207.3) rotate(90) scale(49.3588)">
<stop offset="0.213542" stop-color="#85E79B" stop-opacity="0.1"/>
<stop offset="1" stop-color="#ADFFC1"/>
</radialGradient>
<radialGradient id="paint7_radial" cx="0" cy="0" r="1" gradientUnits="userSpaceOnUse" gradientTransform="translate(85.1115 89.7353) rotate(90) scale(57.1382)">
<stop offset="0.213542" stop-color="#85E79B" stop-opacity="0.1"/>
<stop offset="1" stop-color="#ADFFC1"/>
</radialGradient>
<radialGradient id="paint8_radial" cx="0" cy="0" r="1" gradientUnits="userSpaceOnUse" gradientTransform="translate(130.021 45.4995) rotate(90) scale(25.8435)">
<stop offset="0.213542" stop-color="#85E79B" stop-opacity="0.1"/>
<stop offset="1" stop-color="#ADFFC1"/>
</radialGradient>
<radialGradient id="paint9_radial" cx="0" cy="0" r="1" gradientUnits="userSpaceOnUse" gradientTransform="translate(185.777 184.209) rotate(90) scale(47.481)">
<stop offset="0.213542" stop-color="#85E79B" stop-opacity="0.1"/>
<stop offset="1" stop-color="#ADFFC1"/>
</radialGradient>
</defs>
</svg>
