<svg width="136" height="129" viewBox="0 0 136 129" fill="none" xmlns="http://www.w3.org/2000/svg">
<path d="M89.8939 72.6483C85.8876 72.6483 82.4743 75.2832 81.272 78.935H62.2167L52.3118 64.5336L59.7556 34.4235C60.1349 32.8982 59.2271 31.3487 57.7303 30.9331L47.3331 28.1005C45.8121 27.6848 44.2305 28.5968 43.819 30.1342C43.4075 31.6716 44.3112 33.2654 45.8363 33.681L53.5182 35.7712L44.3919 72.6765C39.7078 73.0356 36 76.9981 36 81.8201C36 86.8842 40.0749 90.996 45.0939 90.996C50.113 90.996 54.1879 86.8801 54.1879 81.8201C54.1879 78.5718 52.4934 75.719 49.9637 74.0888L50.4801 71.9865L58.3798 83.4745C58.9164 84.2492 59.7879 84.7133 60.728 84.7133H81.2841C82.4865 88.353 85.8997 91 89.906 91C94.921 91 99 86.8842 99 81.8241C98.9879 76.7641 94.8968 72.6483 89.8939 72.6483ZM45.0859 85.2257C43.23 85.2257 41.721 83.7005 41.721 81.8282C41.721 79.9559 43.234 78.4306 45.0859 78.4306C46.9418 78.4306 48.4507 79.9559 48.4507 81.8282C48.4507 83.7005 46.9418 85.2257 45.0859 85.2257ZM89.8939 85.2257C88.038 85.2257 86.5291 83.7005 86.5291 81.8282C86.5291 79.9559 88.0421 78.4306 89.8939 78.4306C91.7499 78.4306 93.2507 79.9559 93.2507 81.8282C93.2507 83.7005 91.7499 85.2257 89.8939 85.2257Z" fill="white"/>
<path d="M27.5181 21.6269C38.1419 11.0277 52.6685 5.01691 67.7071 5.01691C74.8837 5.01691 82.1853 6.38702 89.2208 9.27588C96.3813 12.217 102.61 16.4639 107.755 21.6229L110.855 19.0313C105.3 13.3942 98.5383 8.75757 90.7569 5.56335C67.312 -4.06754 41.2222 2.0718 24.4136 19.0313L27.5181 21.6269Z" fill="#F7DC52"/>
<path d="M113.967 29.0198C124.696 44.2837 127.647 64.5138 120.007 82.9841C111.685 103.106 92.9576 115.887 72.5728 117.699V121.725C94.5421 119.9 114.77 106.187 123.732 84.5149C131.965 64.6183 128.716 42.8092 117.064 26.4282L113.967 29.0198Z" fill="#F7DC52"/>
<path d="M62.8965 117.723C57.2398 117.253 51.5631 115.927 46.0476 113.657C17.1678 101.796 3.35882 68.7327 15.2607 39.9525C16.8896 36.011 18.9256 32.3547 21.2883 29.0078L18.1838 26.4122C15.5671 30.0765 13.3254 34.0904 11.5353 38.4217C-1.21728 69.247 13.5754 104.665 44.5114 117.373C50.535 119.848 56.7318 121.279 62.9005 121.753V117.723H62.8965Z" fill="#F7DC52"/>
<path d="M111.314 23.6426L108.966 7.89038L96.5459 21.1354L111.314 23.6426Z" fill="#F7DC52"/>
<path d="M21.0912 24.6272L6.95508 29.7973L21.7228 39.3949L21.0912 24.6272Z" fill="#F7DC52"/>
<path d="M67.9951 118.65L80.7938 128.001V109.295L67.9951 118.65Z" fill="#F7DC52"/>
</svg>
