<svg width="176" height="176" viewBox="0 0 176 176" fill="none" xmlns="http://www.w3.org/2000/svg">
<circle cx="88" cy="88" r="88" fill="#6AF38C"/>
<circle cx="88.0001" cy="57.9764" r="30.0235" fill="#00A743"/>
<path d="M73.5059 55.9059L86.9647 68.3294L103.529 47.6235" stroke="white" stroke-width="3" stroke-linecap="round" stroke-linejoin="round"/>
<path d="M43.0775 127.448C41.4775 127.448 39.9202 127.149 38.4055 126.552C36.9122 125.955 35.5895 125.101 34.4375 123.992L37.1575 120.728C38.0109 121.517 38.9602 122.157 40.0055 122.648C41.0722 123.117 42.1282 123.352 43.1735 123.352C44.4109 123.352 45.3495 123.107 45.9895 122.616C46.6295 122.125 46.9495 121.464 46.9495 120.632C46.9495 120.184 46.8642 119.811 46.6935 119.512C46.5229 119.213 46.2775 118.947 45.9575 118.712C45.6589 118.477 45.2855 118.264 44.8375 118.072C44.4109 117.88 43.9309 117.667 43.3975 117.432L40.2295 116.088C39.6322 115.832 39.0455 115.523 38.4695 115.16C37.8935 114.797 37.3815 114.36 36.9335 113.848C36.4855 113.315 36.1229 112.717 35.8455 112.056C35.5682 111.373 35.4295 110.595 35.4295 109.72C35.4295 108.76 35.6322 107.864 36.0375 107.032C36.4429 106.179 37.0082 105.453 37.7335 104.856C38.4589 104.237 39.3229 103.757 40.3255 103.416C41.3282 103.053 42.4269 102.872 43.6215 102.872C45.0082 102.872 46.3522 103.139 47.6535 103.672C48.9549 104.184 50.0855 104.931 51.0455 105.912L48.6455 108.888C47.8989 108.269 47.1202 107.789 46.3095 107.448C45.4989 107.107 44.6029 106.936 43.6215 106.936C42.5762 106.936 41.7442 107.16 41.1255 107.608C40.5069 108.035 40.1975 108.643 40.1975 109.432C40.1975 109.859 40.2935 110.221 40.4855 110.52C40.6989 110.819 40.9655 111.085 41.2855 111.32C41.6269 111.555 42.0215 111.768 42.4695 111.96C42.9175 112.152 43.3975 112.344 43.9095 112.536L47.0135 113.848C47.7389 114.147 48.3895 114.488 48.9655 114.872C49.5629 115.256 50.0642 115.704 50.4695 116.216C50.8962 116.728 51.2162 117.325 51.4295 118.008C51.6642 118.669 51.7815 119.427 51.7815 120.28C51.7815 121.24 51.5789 122.157 51.1735 123.032C50.7895 123.907 50.2242 124.675 49.4775 125.336C48.7309 125.976 47.8135 126.488 46.7255 126.872C45.6589 127.256 44.4429 127.448 43.0775 127.448ZM55.5903 109.08H60.2623V127H55.5903V109.08ZM57.9583 106.2C57.1476 106.2 56.4756 105.965 55.9423 105.496C55.4089 105.005 55.1423 104.387 55.1423 103.64C55.1423 102.872 55.4089 102.253 55.9423 101.784C56.4756 101.315 57.1476 101.08 57.9583 101.08C58.7689 101.08 59.4303 101.315 59.9423 101.784C60.4756 102.253 60.7423 102.872 60.7423 103.64C60.7423 104.387 60.4756 105.005 59.9423 105.496C59.4303 105.965 58.7689 106.2 57.9583 106.2ZM65.309 109.08H69.149L69.469 111.48H69.597C70.3437 110.691 71.1544 110.019 72.029 109.464C72.9037 108.909 73.9277 108.632 75.101 108.632C76.381 108.632 77.4157 108.909 78.205 109.464C78.9944 109.997 79.6024 110.765 80.029 111.768C80.8397 110.893 81.693 110.157 82.589 109.56C83.5064 108.941 84.5517 108.632 85.725 108.632C87.645 108.632 89.053 109.272 89.949 110.552C90.845 111.811 91.293 113.571 91.293 115.832V127H86.589V116.408C86.589 115.021 86.3864 114.051 85.981 113.496C85.5757 112.941 84.9464 112.664 84.093 112.664C83.069 112.664 81.917 113.336 80.637 114.68V127H75.933V116.408C75.933 115.021 75.7304 114.051 75.325 113.496C74.9197 112.941 74.2904 112.664 73.437 112.664C72.413 112.664 71.261 113.336 69.981 114.68V127H65.309V109.08ZM96.1528 109.08H99.9928L100.313 110.936H100.441C101.187 110.296 102.009 109.752 102.905 109.304C103.822 108.856 104.761 108.632 105.721 108.632C106.83 108.632 107.811 108.856 108.665 109.304C109.539 109.731 110.275 110.339 110.873 111.128C111.491 111.917 111.961 112.877 112.281 114.008C112.601 115.139 112.761 116.387 112.761 117.752C112.761 119.288 112.547 120.664 112.121 121.88C111.694 123.075 111.129 124.088 110.425 124.92C109.721 125.731 108.91 126.36 107.993 126.808C107.075 127.235 106.126 127.448 105.145 127.448C104.355 127.448 103.587 127.277 102.841 126.936C102.094 126.595 101.379 126.115 100.697 125.496L100.825 128.44V133.88H96.1528V109.08ZM104.089 123.576C105.177 123.576 106.083 123.107 106.809 122.168C107.555 121.229 107.929 119.779 107.929 117.816C107.929 116.088 107.641 114.776 107.065 113.88C106.51 112.963 105.614 112.504 104.377 112.504C103.758 112.504 103.161 112.664 102.585 112.984C102.03 113.283 101.443 113.741 100.825 114.36V122.232C101.401 122.723 101.966 123.075 102.521 123.288C103.075 123.48 103.598 123.576 104.089 123.576ZM116.747 127V101.464H121.419V127H116.747ZM134.616 127.448C133.358 127.448 132.184 127.235 131.096 126.808C130.03 126.381 129.091 125.773 128.28 124.984C127.491 124.173 126.862 123.192 126.392 122.04C125.944 120.867 125.72 119.544 125.72 118.072C125.72 116.621 125.955 115.32 126.424 114.168C126.894 112.995 127.512 112.003 128.28 111.192C129.07 110.36 129.966 109.731 130.968 109.304C131.971 108.856 133.006 108.632 134.072 108.632C135.31 108.632 136.387 108.845 137.304 109.272C138.243 109.699 139.022 110.296 139.64 111.064C140.28 111.832 140.76 112.739 141.08 113.784C141.4 114.829 141.56 115.971 141.56 117.208C141.56 117.635 141.539 118.051 141.496 118.456C141.454 118.84 141.4 119.139 141.336 119.352H130.296C130.488 120.824 131.022 121.944 131.896 122.712C132.792 123.459 133.912 123.832 135.256 123.832C136.003 123.832 136.696 123.725 137.336 123.512C137.998 123.299 138.648 122.989 139.288 122.584L140.888 125.464C139.992 126.083 139 126.573 137.912 126.936C136.846 127.277 135.747 127.448 134.616 127.448ZM137.528 116.248C137.528 115.032 137.251 114.072 136.696 113.368C136.142 112.643 135.288 112.28 134.136 112.28C133.198 112.28 132.355 112.621 131.608 113.304C130.862 113.965 130.403 114.947 130.232 116.248H137.528Z" fill="#00A743"/>
</svg>
