<svg width="92" height="92" viewBox="0 0 92 92" fill="none" xmlns="http://www.w3.org/2000/svg">
<circle cx="46" cy="46" r="46" fill="#E2F9E2"/>
<rect x="29.1929" y="19.4617" width="30.0769" height="38.9231" rx="1" fill="#3CC55E"/>
<path d="M45.3923 74.449C44.9993 74.8555 44.3477 74.8555 43.9546 74.449L20.6485 50.3491C20.0348 49.7145 20.4845 48.6539 21.3673 48.6539L67.9796 48.6539C68.8625 48.6539 69.3122 49.7145 68.6985 50.3491L45.3923 74.449Z" fill="#3CC55E"/>
<path d="M56.4185 48.7391H53.8185L52.3365 57.4491H48.5665L47.9945 54.5891C47.8212 53.7571 47.6305 52.8298 47.4225 51.8071C47.2145 50.7671 47.0152 49.7444 46.8245 48.7391H44.6925C44.5018 49.7444 44.3025 50.7671 44.0945 51.8071C43.9038 52.8298 43.7218 53.7571 43.5485 54.5891L42.9765 57.4491H39.3365L37.7765 48.7391H35.1245V46.7371H37.4125L35.8785 38.1051H39.2845L40.4805 46.7371H42.8205C43.0112 45.8184 43.3665 44.1111 43.8865 41.6151L44.3805 39.2491H47.3965L47.8645 41.6151C48.3845 44.1111 48.7398 45.8184 48.9305 46.7371H51.2965L52.4145 38.1051H55.5865L54.1305 46.7371H56.4185V48.7391ZM41.4425 53.7051C41.4598 53.6184 41.4945 53.4278 41.5465 53.1331C41.6158 52.8211 41.7458 52.1711 41.9365 51.1831C42.1445 50.1778 42.3178 49.3631 42.4565 48.7391H40.7405C40.7752 49.0684 40.8705 49.8484 41.0265 51.0791C41.1998 52.2924 41.3212 53.1678 41.3905 53.7051H41.4425ZM46.4345 46.7371L45.7845 43.1751L45.0565 46.7371H46.4345ZM50.9845 48.7391H49.2945C49.4158 49.3631 49.5285 49.9524 49.6325 50.5071C49.7538 51.0618 49.8578 51.5644 49.9445 52.0151C50.0312 52.4484 50.1438 53.0118 50.2825 53.7051H50.3865C50.4385 53.1678 50.6378 51.5124 50.9845 48.7391Z" fill="#E2F9E2"/>
<mask id="path-5-inside-1" fill="white">
<path fill-rule="evenodd" clip-rule="evenodd" d="M71.6546 61.9233H50.4238V72.5387H50.4241C50.4241 74.9815 55.1767 76.9618 61.0394 76.9618C66.9022 76.9618 71.6548 74.9815 71.6548 72.5387C71.6548 72.529 71.6547 72.5193 71.6546 72.5096V61.9233Z"/>
</mask>
<path fill-rule="evenodd" clip-rule="evenodd" d="M71.6546 61.9233H50.4238V72.5387H50.4241C50.4241 74.9815 55.1767 76.9618 61.0394 76.9618C66.9022 76.9618 71.6548 74.9815 71.6548 72.5387C71.6548 72.529 71.6547 72.5193 71.6546 72.5096V61.9233Z" fill="#0DA834"/>
<path d="M50.4238 61.9233V60.9233H49.4238V61.9233H50.4238ZM71.6546 61.9233H72.6546V60.9233H71.6546V61.9233ZM50.4238 72.5387H49.4238V73.5387H50.4238V72.5387ZM50.4241 72.5387L51.4241 72.5387L51.424 71.5387H50.4241V72.5387ZM71.6546 72.5096H70.6546V72.5174L70.6547 72.5251L71.6546 72.5096ZM50.4238 62.9233H71.6546V60.9233H50.4238V62.9233ZM51.4238 72.5387V61.9233H49.4238V72.5387H51.4238ZM50.4241 71.5387H50.4238V73.5387H50.4241V71.5387ZM61.0394 75.9618C58.2071 75.9618 55.6898 75.4815 53.9179 74.7432C53.0297 74.3731 52.3762 73.9579 51.9601 73.548C51.5474 73.1415 51.4241 72.8011 51.4241 72.5387L49.4241 72.5387C49.4241 73.4978 49.8948 74.3209 50.5565 74.9728C51.2147 75.6212 52.1158 76.159 53.1486 76.5894C55.2187 77.4519 58.0091 77.9618 61.0394 77.9618V75.9618ZM70.6548 72.5387C70.6548 72.8011 70.5315 73.1415 70.1188 73.548C69.7027 73.9579 69.0492 74.3731 68.161 74.7432C66.389 75.4815 63.8718 75.9618 61.0394 75.9618V77.9618C64.0698 77.9618 66.8602 77.4519 68.9303 76.5894C69.9631 76.159 70.8642 75.6211 71.5224 74.9728C72.1841 74.3209 72.6548 73.4978 72.6548 72.5387H70.6548ZM70.6547 72.5251C70.6548 72.5296 70.6548 72.5341 70.6548 72.5387H72.6548C72.6548 72.5239 72.6547 72.509 72.6545 72.4941L70.6547 72.5251ZM70.6546 61.9233V72.5096H72.6546V61.9233H70.6546Z" fill="#E2F9E2" mask="url(#path-5-inside-1)"/>
<mask id="mask0" mask-type="alpha" maskUnits="userSpaceOnUse" x="50" y="61" width="22" height="14">
<rect x="50.4238" y="61.9233" width="21.2308" height="12.3846" fill="#28B94C"/>
</mask>
<g mask="url(#mask0)">
<path d="M71.6546 64.5771C71.6546 67.0199 66.9019 69.0002 61.0392 69.0002C55.1765 69.0002 50.4238 67.0199 50.4238 64.5771" stroke="#E2F9E2" stroke-linecap="round"/>
<path d="M71.6546 68.1157C71.6546 70.5585 66.9019 72.5388 61.0392 72.5388C55.1765 72.5388 50.4238 70.5585 50.4238 68.1157" stroke="#E2F9E2" stroke-linecap="round"/>
</g>
<path d="M71.1546 61.9233C71.1546 62.3598 70.9444 62.821 70.4695 63.2888C69.9928 63.7583 69.2775 64.2042 68.3531 64.5894C66.5066 65.3587 63.9211 65.8464 61.0392 65.8464C58.1574 65.8464 55.5718 65.3587 53.7253 64.5894C52.801 64.2042 52.0856 63.7583 51.6089 63.2888C51.134 62.821 50.9238 62.3598 50.9238 61.9233C50.9238 61.4868 51.134 61.0257 51.6089 60.5579C52.0856 60.0883 52.801 59.6424 53.7253 59.2573C55.5718 58.4879 58.1574 58.0002 61.0392 58.0002C63.9211 58.0002 66.5066 58.4879 68.3531 59.2573C69.2775 59.6424 69.9928 60.0883 70.4695 60.5579C70.9444 61.0257 71.1546 61.4868 71.1546 61.9233Z" fill="#0DA834" stroke="#E2F9E2"/>
</svg>
