<svg width="175" height="186" viewBox="0 0 175 186" fill="none" xmlns="http://www.w3.org/2000/svg">
<path d="M144.628 186H29.1474C18.1486 186 9.23096 177.101 9.23096 166.125V19.875C9.23096 8.89904 18.1486 0 29.1474 0H144.628C155.627 0 164.545 8.89904 164.545 19.875V166.111C164.545 177.101 155.627 186 144.628 186Z" fill="#D5F2D1"/>
<path d="M75.0649 86.6679C74.111 83.9131 69.6739 82.3554 69.6739 82.3554L51.5063 74.8122L48.3989 70.1391C48.3266 69.0718 48.2977 67.9612 48.3266 66.8651C48.9914 66.1151 49.584 65.2785 50.0465 64.3699C50.9137 62.6824 51.2895 60.4756 51.593 58.1535C51.9977 58.0381 52.4168 57.7641 52.8504 57.4035C53.92 56.4804 54.3825 51.1439 54.686 49.1535C54.9028 47.7401 54.1801 47.2641 53.1395 47.4372C54.1223 41.8843 52.677 37.5285 51.7375 35.8554C51.4196 35.2929 51.0438 35.0189 50.6535 34.8891C51.0293 32.7689 43.7738 29.5381 39.2645 29.6968C32.0234 29.942 30.3324 31.8458 29.6675 34.2256C28.8293 33.8074 27.4996 33.7064 26.6613 34.5429C25.5918 35.6103 22.1953 39.8362 23.7707 48.3026C22.6433 48.0429 21.8339 48.5045 22.0652 50.0045C22.3687 51.9949 22.8312 57.3314 23.9007 58.2545C24.6667 58.9179 25.4472 59.2497 26.0398 58.9901C26.5168 60.9083 27.0371 62.6102 27.5285 63.7064C28.0488 64.8458 28.7136 65.8699 29.4797 66.7929C29.5086 67.9612 29.4941 69.1583 29.4507 70.341L26.7769 74.7833L8.78272 81.591C8.78272 81.591 5.96435 82.6728 4.1577 84.7064C3.50731 85.442 1.26707 88.8891 0.12527 100.514C-0.279419 104.567 2.19207 108.36 6.05107 109.687L29.6386 117.764C37.3711 120.418 45.7973 120.216 53.3997 117.23L72.1599 109.846C75.7732 108.418 78.0279 104.812 77.7243 100.947C76.8282 89.5093 75.3829 87.6054 75.0649 86.6679Z" fill="#848484"/>
<path d="M172.291 87.3463C171.351 84.6492 167.001 83.1203 167.001 83.1203L149.195 75.7357L147.547 73.2549C150.886 73.2838 153.979 72.6059 156.002 72.0145C156.913 71.7405 157.317 70.6299 156.71 69.8944C156.089 69.1155 155.525 67.9328 155.482 66.1588C155.381 62.0915 154.701 49.2838 153.545 45.1155C152.374 40.9472 151.406 31.8319 139.164 30.8655C132.097 30.303 129.423 32.0915 128.411 33.7069C128.238 33.952 128.093 34.2405 128.006 34.5434C127.977 34.6155 127.963 34.6876 127.949 34.7597C127.934 34.803 127.934 34.8319 127.92 34.8751C127.761 35.5242 127.818 35.9857 127.818 35.9857C127.818 35.9857 127.761 35.9569 127.645 35.9136C127.472 35.8415 127.284 35.7838 127.081 35.7405C125.838 35.4376 123.295 35.3078 121.777 38.7261C119.71 43.3847 115.692 57.2165 118.54 62.3944C120.476 65.9136 118.511 69.3174 116.906 71.0482C116.4 71.5963 116.718 72.4761 117.456 72.577C119.407 72.8222 122.572 73.7309 126.099 73.8751L125 75.7069L107.367 82.3847C107.367 82.3847 104.607 83.4376 102.843 85.428C102.207 86.1492 100.011 89.5242 98.8977 100.918C98.5074 104.885 100.921 108.606 104.708 109.904L127.818 117.822C135.392 120.418 143.645 120.231 151.088 117.289L169.458 110.048C172.999 108.649 175.21 105.116 174.907 101.337C174.025 90.1299 172.609 88.2549 172.291 87.3463Z" fill="#848484"/>
<path d="M40.174 136.501C37.4857 136.501 34.8986 135.361 33.0775 133.4C31.2564 131.438 30.3314 128.755 30.5482 126.087C32.0658 107.669 35.3322 95.5968 36.7341 94.0103C39.4802 90.8949 43.6572 89.2795 43.8306 89.2074L68.8202 79.7314L72.1589 74.1929C72.2022 72.866 72.2167 71.5103 72.1878 70.1256C71.1327 68.7987 70.251 67.3564 69.5573 65.842C68.9503 64.5295 68.3288 62.6112 67.6639 60.116C66.7534 59.9862 65.785 59.4958 64.8022 58.6449C63.4147 57.4478 62.7643 54.1593 61.9838 48.1016C61.8827 47.3228 61.7959 46.6304 61.7092 46.1112C61.5069 44.7843 61.7381 43.7314 62.3885 42.967C62.6776 42.6353 63.1401 42.2458 63.8627 42.0728C62.2295 30.4622 67.0424 24.592 68.6178 23.0199C69.4706 22.1689 70.6557 21.7074 71.9565 21.7074C72.1733 21.7074 72.3901 21.7218 72.6069 21.7362C72.8526 20.5535 73.3585 19.5583 74.1389 18.7651C75.5987 17.2939 77.9257 16.5728 81.2788 16.5728C83.0999 16.5728 85.1956 16.7747 87.7105 17.1929C89.3581 17.467 91.0347 17.8564 92.6679 18.217C95.1683 18.7939 97.5386 19.3276 99.1863 19.3276C100.704 19.3276 100.776 18.9093 100.819 18.6929C100.993 17.7554 101.716 17.3372 102.366 17.3372C102.713 17.3372 103.219 17.4526 103.667 17.9862C104.418 18.8804 105.228 21.3612 105.141 23.7122C105.632 24.0728 106.052 24.5631 106.398 25.1833C106.789 25.8612 109.954 31.8468 108.783 40.9478C109.39 41.1497 109.795 41.4814 110.055 41.7843C110.705 42.5343 110.937 43.5872 110.72 44.9141C110.633 45.4333 110.546 46.1256 110.445 46.9189C109.665 52.9766 109.029 56.2651 107.627 57.4622C107.164 57.866 106.687 58.1833 106.225 58.4285C105.762 61.8468 105.17 64.616 103.999 66.8804C103.392 68.0631 102.626 69.217 101.716 70.2987C101.701 71.4237 101.73 72.6353 101.802 73.9045L105.748 79.8324L131.041 90.3324C131.677 90.5487 137.95 92.8564 139.482 97.2843C140.103 99.0728 142.17 108.246 143.413 126.217C143.601 128.871 142.661 131.51 140.84 133.457C139.019 135.404 136.447 136.515 133.787 136.515H40.174V136.501Z" fill="#5B5B5B"/>
<path d="M81.2647 17.9859C82.9702 17.9859 85.0225 18.1879 87.4507 18.5917C91.6421 19.2984 96.2093 20.7552 99.1577 20.7552C100.82 20.7552 101.976 20.2792 102.222 18.9379C102.236 18.808 102.28 18.7504 102.337 18.7504C102.771 18.7504 104.043 21.8369 103.566 24.4907C104.115 24.6782 104.65 25.0821 105.098 25.8609C106.428 28.2263 108.48 34.385 107.078 42.2455C107.266 42.2167 107.454 42.2023 107.627 42.2023C108.798 42.2023 109.535 42.9379 109.26 44.683C108.827 47.4955 108.177 55.0532 106.659 56.3513C106.052 56.8705 105.445 57.2455 104.881 57.4186C104.462 60.7071 103.927 63.8369 102.699 66.2167C102.034 67.5004 101.21 68.683 100.256 69.7504C100.213 71.2936 100.256 72.8657 100.357 74.3802L104.751 81.0004L130.463 91.6734C130.463 91.6734 136.736 93.8802 138.095 97.7744C138.557 99.1157 140.682 107.885 141.954 126.332C142.286 131.063 138.514 135.087 133.773 135.087H40.1743C35.3759 135.087 31.6036 130.991 31.9938 126.231C33.5692 107.149 36.879 96.0436 37.8185 94.9763C40.3622 92.0917 44.3513 90.5773 44.3513 90.5773L69.8033 80.9282L73.5901 74.6398C73.6479 72.9811 73.6623 71.2792 73.619 69.6205C72.5494 68.3225 71.61 66.8657 70.8729 65.2648C70.1791 63.7359 69.442 61.3129 68.7627 58.6013C68.5604 58.6879 68.358 58.7311 68.1412 58.7311C67.4186 58.7311 66.5803 58.284 65.742 57.5629C64.2244 56.2648 63.574 48.7071 63.1404 45.8946C62.8658 44.1494 63.6029 43.3994 64.7736 43.3994C65.0193 43.3994 65.2795 43.4282 65.5541 43.4859C63.3283 31.5148 68.1268 25.5436 69.6299 24.0292C70.2658 23.3946 71.1186 23.135 71.9569 23.135C72.6506 23.135 73.3444 23.308 73.8791 23.5821C73.8358 19.9619 75.8592 17.9859 81.2647 17.9859ZM81.2647 15.1013C77.5069 15.1013 74.8475 15.9667 73.0987 17.7263C72.3904 18.4475 71.8701 19.284 71.5088 20.2504C69.9912 20.3513 68.6037 20.9571 67.592 21.9667C65.9443 23.6109 61.0158 29.5965 62.2877 41.1494C61.9119 41.3802 61.5795 41.6686 61.2904 42.0004C60.64 42.7504 59.9463 44.1061 60.2787 46.2984C60.351 46.8177 60.4377 47.4955 60.5389 48.26C61.3916 54.9523 62.0709 58.1975 63.8486 59.7119C64.7303 60.4619 65.6119 60.9956 66.4791 61.284C67.0717 63.4619 67.6643 65.1782 68.2279 66.4186C68.9072 67.8898 69.7455 69.3032 70.7283 70.6157C70.7428 71.683 70.7283 72.7359 70.6994 73.76L67.8233 78.5484L43.3107 87.8369C43.1083 87.909 38.6134 89.6542 35.636 93.0292C33.5981 95.3369 30.4763 109.111 29.0888 125.943C28.8286 129.015 29.8981 132.087 31.9938 134.351C34.0896 136.616 37.0669 137.928 40.1599 137.928H133.759C136.823 137.928 139.771 136.645 141.867 134.409C143.963 132.173 145.047 129.145 144.83 126.087C143.572 107.957 141.462 98.6254 140.826 96.7792C139.106 91.8609 132.588 89.3369 131.504 88.933L106.673 78.635L103.19 73.3994C103.147 72.4907 103.118 71.6109 103.132 70.7744C103.971 69.7215 104.679 68.6254 105.271 67.5004C106.543 65.034 107.136 62.0484 107.541 59.2648C107.873 59.0484 108.205 58.7888 108.538 58.5148C110.316 57.0004 110.995 53.7552 111.848 47.0629C111.949 46.284 112.035 45.6061 112.108 45.0869C112.44 42.8946 111.746 41.5532 111.096 40.8032C110.85 40.5148 110.576 40.2696 110.272 40.0677C110.923 33.26 109.333 27.5052 107.598 24.433C107.266 23.8561 106.905 23.3946 106.529 23.0196C106.471 20.6109 105.662 18.1302 104.722 17.0196C103.869 16.01 102.843 15.8513 102.309 15.8513C101.022 15.8513 99.9382 16.6446 99.4901 17.8273C99.389 17.8417 99.2733 17.8417 99.1288 17.8417C97.6401 17.8417 95.3565 17.3225 92.9429 16.7744C91.2952 16.3994 89.5897 16.01 87.9132 15.7215C85.3405 15.3177 83.1725 15.1013 81.2647 15.1013Z" fill="#D5F2D1"/>
<path d="M55.3363 175.125H41.5913C37.9636 175.125 35.0151 172.183 35.0151 168.563V154.846C35.0151 151.226 37.9636 148.284 41.5913 148.284H55.3363C58.964 148.284 61.9125 151.226 61.9125 154.846V168.563C61.9125 172.183 58.964 175.125 55.3363 175.125Z" fill="#00A743"/>
<path d="M48.4555 155.106C44.4809 155.106 41.2578 158.322 41.2578 162.289C41.2578 166.255 44.4809 169.471 48.4555 169.471C51.8375 169.471 54.6704 167.149 55.4364 164.019H52.4012C51.7364 165.534 50.2188 166.601 48.4555 166.601C46.0707 166.601 44.134 164.668 44.134 162.289C44.134 159.909 46.0707 157.976 48.4555 157.976H52.777H54.2223H55.6676V155.106H48.4555Z" fill="white"/>
<path d="M55.6528 159.664H49.7559V162.606H55.6528V159.664Z" fill="white"/>
<path d="M69.9482 150.779H74.1975L80.2534 161.841L82.3346 166.341H82.4791C82.3635 165.26 82.2479 164.062 82.1323 162.779C82.0166 161.481 81.9444 160.255 81.9444 159.072V150.779H85.8612V171.562H81.6409L75.6139 160.442L73.5037 155.971H73.3592C73.4459 157.096 73.5615 158.279 73.6772 159.534C73.7928 160.788 73.8651 162.014 73.8651 163.211V171.548H69.9482V150.779Z" fill="#3CC55E"/>
<path d="M98.7539 171.952C97.3664 171.952 96.109 171.707 94.9672 171.202C93.8254 170.711 92.857 169.99 92.0188 169.038C91.1949 168.086 90.559 166.947 90.1109 165.606C89.6629 164.264 89.4316 162.75 89.4316 161.062C89.4316 159.375 89.6629 157.875 90.1109 156.533C90.559 155.192 91.1949 154.082 92.0188 153.158C92.8426 152.235 93.8254 151.543 94.9672 151.067C96.109 150.591 97.3664 150.346 98.7539 150.346C100.127 150.346 101.384 150.591 102.526 151.082C103.668 151.572 104.651 152.264 105.475 153.173C106.298 154.082 106.934 155.207 107.382 156.533C107.831 157.86 108.062 159.375 108.062 161.062C108.062 162.75 107.831 164.264 107.382 165.606C106.934 166.947 106.298 168.086 105.475 169.038C104.651 169.99 103.668 170.711 102.526 171.202C101.37 171.707 100.113 171.952 98.7539 171.952ZM98.7539 168.36C99.52 168.36 100.228 168.187 100.85 167.856C101.486 167.524 102.006 167.033 102.454 166.399C102.888 165.764 103.234 165 103.466 164.091C103.697 163.197 103.813 162.187 103.813 161.091C103.813 158.841 103.364 157.096 102.454 155.841C101.543 154.586 100.315 153.952 98.7539 153.952C97.193 153.952 95.9645 154.586 95.0539 155.841C94.1434 157.096 93.6809 158.841 93.6809 161.091C93.6809 162.202 93.7965 163.197 94.0277 164.091C94.259 164.985 94.6059 165.764 95.0395 166.399C95.4731 167.033 96.0078 167.524 96.6438 167.856C97.2797 168.187 97.9735 168.36 98.7539 168.36Z" fill="#3CC55E"/>
<path d="M113.582 171.952C112.845 171.952 112.238 171.692 111.747 171.173C111.255 170.654 111.01 170.019 111.01 169.255C111.01 168.491 111.255 167.842 111.747 167.337C112.238 166.817 112.845 166.558 113.582 166.558C114.334 166.558 114.955 166.817 115.447 167.337C115.938 167.856 116.184 168.491 116.184 169.255C116.184 170.019 115.938 170.668 115.447 171.173C114.955 171.692 114.334 171.952 113.582 171.952Z" fill="#3CC55E"/>
<path d="M127.963 150.548V168.418H131.591V171.562H120V168.418H124.104V157.009L124.22 155.192L120.78 158.307L118.569 155.769L124.654 150.548H127.963Z" fill="#3CC55E"/>
</svg>
