<svg width="172" height="184" viewBox="0 0 172 184" fill="none" xmlns="http://www.w3.org/2000/svg">
<path d="M80.7671 122.655L58.3979 181.955C58.1022 182.739 57.0312 182.834 56.6028 182.113L48.1439 167.893C47.905 167.491 47.4198 167.308 46.9753 167.453L31.2238 172.574C30.4263 172.834 29.683 172.055 29.9789 171.271L52.0381 112.767" fill="#00A743"/>
<path d="M90.145 122.479L112.602 181.956C112.898 182.74 113.969 182.834 114.397 182.114L122.856 167.893C123.095 167.491 123.581 167.308 124.025 167.453L139.776 172.574C140.573 172.834 141.317 172.055 141.021 171.27L118.94 112.767" fill="#00A743"/>
<path d="M85.4892 122.633C119.392 122.633 146.875 95.2032 146.875 61.367C146.875 27.5308 119.392 0.101074 85.4892 0.101074C51.5868 0.101074 24.1035 27.5308 24.1035 61.367C24.1035 95.2032 51.5868 122.633 85.4892 122.633Z" fill="#F7DC52"/>
<path d="M85.4889 104.685C109.459 104.685 128.891 85.2909 128.891 61.3671C128.891 37.4433 109.459 18.0493 85.4889 18.0493C61.5184 18.0493 42.0864 37.4433 42.0864 61.3671C42.0864 85.2909 61.5184 104.685 85.4889 104.685Z" stroke="white" stroke-width="3" stroke-miterlimit="10"/>
<path d="M91.7331 39.2788V77.5755H99.5222V84.3143H74.6546V77.5755H83.4586V53.1088L83.7014 49.2108L76.3315 55.8836L71.5654 50.4661L84.606 39.2788H91.7331Z" fill="white"/>
<path d="M156.676 16.2356C153.542 19.1303 151.568 23.3912 150.507 26.305C150.163 27.2317 148.827 27.2317 148.493 26.305C147.422 23.3912 145.458 19.1399 142.324 16.2356C141.892 15.8344 141.892 15.1656 142.324 14.7644C145.458 11.8697 147.432 7.60883 148.493 4.69502C148.837 3.76833 150.173 3.76833 150.507 4.69502C151.578 7.60883 153.542 11.8601 156.676 14.7644C157.108 15.1561 157.108 15.8344 156.676 16.2356Z" fill="white"/>
<path d="M171.762 34.0437C169.464 36.1833 168.016 39.3326 167.238 41.4863C166.986 42.1712 166.007 42.1712 165.762 41.4863C164.976 39.3326 163.536 36.1903 161.238 34.0437C160.921 33.7471 160.921 33.2529 161.238 32.9563C163.536 30.8167 164.984 27.6674 165.762 25.5137C166.014 24.8288 166.993 24.8288 167.238 25.5137C168.024 27.6674 169.464 30.8097 171.762 32.9563C172.079 33.2458 172.079 33.7471 171.762 34.0437Z" fill="white"/>
<path d="M13.6974 78.7036C10.7728 81.4725 8.92993 85.5481 7.93975 88.3352C7.61886 89.2216 6.37197 89.2216 6.06025 88.3352C5.0609 85.5481 3.22724 81.4816 0.302554 78.7036C-0.100851 78.3198 -0.100851 77.6802 0.302554 77.2964C3.22724 74.5275 5.07007 70.4519 6.06025 67.6648C6.38114 66.7784 7.62803 66.7784 7.93975 67.6648C8.9391 70.4519 10.7728 74.5184 13.6974 77.2964C14.1009 77.671 14.1009 78.3198 13.6974 78.7036Z" fill="white"/>
</svg>
