<svg width="178" height="187" viewBox="0 0 178 187" fill="none" xmlns="http://www.w3.org/2000/svg">
<path d="M106.617 79.863H0.578125V162.344H106.617V79.863Z" fill="#4A4A4A"/>
<path d="M106.617 79.8628H37.9854V162.344H106.617V79.8628Z" fill="#848484"/>
<path d="M106.617 79.8628H37.9854V104.201H106.617V79.8628Z" fill="#4A4A4A"/>
<path d="M102.396 83.7607H42.2222V100.302H102.396V83.7607Z" fill="white"/>
<path d="M58.4146 112.825H50.876V120.23H58.4146V112.825Z" fill="white"/>
<path d="M70.191 112.825H62.6523V120.23H70.191V112.825Z" fill="white"/>
<path d="M81.9654 112.825H74.4268V120.23H81.9654V112.825Z" fill="white"/>
<path d="M93.7272 112.825H86.1885V120.23H93.7272V112.825Z" fill="white"/>
<path d="M58.4146 123.918H50.876V131.323H58.4146V123.918Z" fill="white"/>
<path d="M70.191 123.918H62.6523V131.323H70.191V123.918Z" fill="white"/>
<path d="M81.9654 123.918H74.4268V131.323H81.9654V123.918Z" fill="white"/>
<path d="M93.7272 123.918H86.1885V131.323H93.7272V123.918Z" fill="white"/>
<path d="M58.4146 135.025H50.876V142.431H58.4146V135.025Z" fill="white"/>
<path d="M70.191 135.025H62.6523V142.431H70.191V135.025Z" fill="white"/>
<path d="M81.9654 135.025H74.4268V142.431H81.9654V135.025Z" fill="white"/>
<path d="M93.7272 135.025H86.1885V142.431H93.7272V135.025Z" fill="white"/>
<path d="M58.4146 146.134H50.876V153.539H58.4146V146.134Z" fill="white"/>
<path d="M70.191 146.134H62.6523V153.539H70.191V146.134Z" fill="white"/>
<path d="M81.9654 146.134H74.4268V153.539H81.9654V146.134Z" fill="white"/>
<path d="M93.7272 146.134H86.1885V153.539H93.7272V146.134Z" fill="white"/>
<path d="M33.431 164.06C33.431 167.251 30.8377 169.825 27.6564 169.825H10.9055C7.70908 169.825 5.13086 167.251 5.13086 164.06V78.1621C5.13086 74.9712 7.70908 72.3975 10.9055 72.3975H27.6564C30.8528 72.3975 33.431 74.9863 33.431 78.1621V164.06Z" fill="#848484"/>
<path d="M177.42 177.485C177.42 182.558 173.304 186.667 168.208 186.667H93.0624C87.9813 186.667 83.8501 182.558 83.8501 177.485V9.18132C83.8501 4.10901 87.9662 0 93.0624 0H168.208C173.289 0 177.42 4.10901 177.42 9.18132V177.485Z" fill="#4A4A4A"/>
<path d="M173.982 22.5317H87.3179V164.15H173.982V22.5317Z" fill="#333333"/>
<path d="M172.821 23.6758H88.4634V163.006H172.821V23.6758Z" fill="#9CE99E"/>
<path opacity="0.2" d="M88.4634 162.991V23.6758H172.821L88.4634 162.991Z" fill="white" fill-opacity="0.55"/>
<path d="M140.435 12.4775H120.85C119.945 12.4775 119.222 13.2 119.222 14.1031C119.222 15.0062 119.945 15.7286 120.85 15.7286H140.42C141.325 15.7286 142.049 15.0062 142.049 14.1031C142.064 13.2 141.325 12.4775 140.435 12.4775Z" fill="#333333"/>
<path d="M130.65 5.49316C129.746 5.49316 129.022 6.21563 129.022 7.11871C129.022 8.02179 129.746 8.74425 130.65 8.74425C131.555 8.74425 132.279 8.02179 132.279 7.11871C132.264 6.21563 131.54 5.49316 130.65 5.49316Z" fill="#333333"/>
<path d="M130.65 167.897C126.504 167.897 123.126 171.254 123.126 175.408C123.126 179.547 126.489 182.918 130.65 182.918C134.796 182.918 138.159 179.562 138.159 175.408C138.159 171.269 134.796 167.897 130.65 167.897Z" fill="#333333"/>
<path d="M130.651 169.387C127.319 169.387 124.62 172.082 124.62 175.408C124.62 178.734 127.319 181.429 130.651 181.429C133.983 181.429 136.682 178.734 136.682 175.408C136.667 172.082 133.968 169.387 130.651 169.387Z" fill="#4A4A4A"/>
<path d="M130.65 47.3132C121.661 47.3132 114.377 54.5843 114.377 63.5578C114.377 72.5313 121.661 79.8023 130.65 79.8023C138.288 79.8023 144.684 74.553 146.443 67.4593H139.585C138.075 70.8998 134.647 73.3116 130.65 73.3116C125.267 73.3116 120.879 68.949 120.879 63.5578C120.879 58.1843 125.249 53.804 130.65 53.804H140.42H143.671H146.922V47.3132H130.65Z" fill="white"/>
<path d="M146.904 57.6167H133.58V64.267H146.904V57.6167Z" fill="white"/>
<path d="M62.4855 97.4274C61.8372 97.4274 61.2341 97.307 60.6611 97.0813C60.0882 96.8555 59.5907 96.5093 59.1685 96.0728C58.7463 95.6363 58.4146 95.0794 58.1734 94.4322C57.9321 93.785 57.8115 93.0324 57.8115 92.1745C57.8115 91.3316 57.9321 90.5941 58.1885 89.9319C58.4448 89.2696 58.7916 88.7127 59.2137 88.2461C59.651 87.7795 60.1485 87.4334 60.7214 87.1925C61.2944 86.9517 61.9126 86.8313 62.5458 86.8313C63.1941 86.8313 63.7821 86.9668 64.2797 87.2226C64.7923 87.4785 65.1994 87.7946 65.5311 88.1408L64.4606 89.4352C64.2043 89.1944 63.9178 88.9836 63.6163 88.8181C63.3148 88.6525 62.968 88.5773 62.576 88.5773C62.1839 88.5773 61.8372 88.6525 61.5055 88.8181C61.1738 88.9836 60.8873 89.2094 60.6461 89.5104C60.4048 89.8115 60.2239 90.1877 60.0731 90.6092C59.9374 91.0457 59.862 91.5273 59.862 92.0842C59.862 92.6411 59.9223 93.1378 60.043 93.5743C60.1636 94.0108 60.3445 94.3871 60.5858 94.7031C60.827 95.0192 61.0984 95.245 61.4301 95.4106C61.7618 95.5761 62.1236 95.6514 62.5307 95.6514C62.968 95.6514 63.36 95.5611 63.7068 95.3654C64.0535 95.1848 64.3551 94.9289 64.6416 94.6429L65.712 95.9073C65.2899 96.4039 64.8074 96.7802 64.2646 97.0361C63.7218 97.292 63.1489 97.4274 62.4855 97.4274Z" fill="#4A4A4A"/>
<path d="M70.0097 97.4272C69.3162 97.4272 68.6528 97.2917 68.0045 97.0359C67.3561 96.78 66.7832 96.4037 66.2856 95.9371L67.4617 94.5374C67.8235 94.8835 68.2457 95.1545 68.698 95.3501C69.1503 95.5608 69.6027 95.6662 70.055 95.6662C70.5827 95.6662 70.9898 95.5608 71.2762 95.3501C71.5627 95.1394 71.6833 94.8534 71.6833 94.4922C71.6833 94.2965 71.6532 94.146 71.5778 94.0106C71.5024 93.8751 71.3969 93.7697 71.2612 93.6644C71.1255 93.559 70.9596 93.4687 70.7787 93.3934C70.5827 93.3182 70.3716 93.2128 70.1454 93.1225L68.7734 92.5506C68.5171 92.4452 68.2608 92.3098 68.0195 92.1442C67.7783 91.9937 67.5521 91.798 67.3561 91.5722C67.1601 91.3465 67.0094 91.0906 66.8887 90.8046C66.7681 90.5186 66.7078 90.1875 66.7078 89.8112C66.7078 89.4048 66.7983 89.0135 66.9641 88.6523C67.13 88.291 67.3863 87.975 67.6878 87.7191C68.0045 87.4632 68.3663 87.2525 68.8036 87.102C69.2408 86.9515 69.7082 86.8762 70.2208 86.8762C70.8239 86.8762 71.3969 86.9816 71.9547 87.2073C72.5126 87.4331 73.0101 87.7642 73.4172 88.1857L72.3769 89.465C72.0603 89.1941 71.7135 88.9985 71.3667 88.8479C71.0199 88.6974 70.6279 88.6222 70.2058 88.6222C69.7534 88.6222 69.3916 88.7125 69.1353 88.9081C68.8639 89.0888 68.7282 89.3597 68.7282 89.7059C68.7282 89.8865 68.7734 90.0521 68.8639 90.1725C68.9543 90.3079 69.075 90.4133 69.2106 90.5186C69.3463 90.624 69.5273 90.7143 69.7233 90.7896C69.9193 90.8799 70.1304 90.9551 70.3414 91.0454L71.6833 91.6174C72 91.7529 72.2864 91.8883 72.5277 92.0539C72.7689 92.2194 72.9951 92.4151 73.176 92.6258C73.3569 92.8366 73.4926 93.1075 73.5831 93.3934C73.6735 93.6794 73.7338 94.0106 73.7338 94.3868C73.7338 94.7932 73.6434 95.1996 73.4775 95.5759C73.3117 95.9522 73.0554 96.2833 72.7387 96.5542C72.4221 96.8402 72.0301 97.0509 71.5627 97.2165C71.1255 97.3519 70.5978 97.4272 70.0097 97.4272Z" fill="#4A4A4A"/>
<path d="M75.0302 48.1791C75.0302 39.3741 67.8836 32.2397 59.0633 32.2397H16.8468C8.02654 32.2397 0.879883 39.3741 0.879883 48.1791C0.879883 56.9841 8.02654 64.1185 16.8468 64.1185H54.1934V73.5707L70.4467 59.3321C73.2813 56.4573 75.0302 52.5139 75.0302 48.1791Z" fill="#9CE99E" fill-opacity="0.4"/>
<path d="M17.6462 50.0306C17.2994 50.0306 16.9828 49.9553 16.7265 49.8198C16.4702 49.6844 16.2139 49.5339 15.9877 49.3683C15.7616 49.2027 15.5505 49.0522 15.3394 48.9017C15.1283 48.7662 14.9021 48.691 14.6609 48.691C14.1935 48.691 13.7713 49.0221 13.4095 49.6844L12.2485 48.8114C12.6405 48.1943 13.0476 47.7428 13.4547 47.4869C13.8618 47.231 14.2991 47.1106 14.7212 47.1106C15.068 47.1106 15.3695 47.1859 15.6409 47.3213C15.9123 47.4568 16.1536 47.6223 16.3797 47.7879C16.6059 47.9535 16.817 48.104 17.0281 48.2394C17.2391 48.3749 17.4502 48.4502 17.6915 48.4502C18.1589 48.4502 18.581 48.119 18.9429 47.4718L20.1038 48.3448C19.7269 48.9619 19.3198 49.3984 18.8976 49.6543C18.4755 49.9101 18.0684 50.0306 17.6462 50.0306Z" fill="#3CC55E"/>
<path d="M29.301 48.6305C29.301 49.6239 29.1954 50.4969 28.9843 51.2194C28.7733 51.9418 28.4717 52.5589 28.0948 53.0255C27.7179 53.5072 27.2655 53.8533 26.7529 54.0942C26.2403 54.3199 25.6824 54.4403 25.0793 54.4403C24.4913 54.4403 23.9334 54.3199 23.4359 54.0942C22.9383 53.8684 22.5011 53.5072 22.1091 53.0255C21.7321 52.5439 21.4306 51.9418 21.2346 51.2194C21.0235 50.4969 20.918 49.6239 20.918 48.6305C20.918 47.6221 21.0235 46.7491 21.2346 46.0266C21.4457 45.3042 21.7321 44.6871 22.1091 44.2205C22.486 43.7388 22.9233 43.3927 23.4359 43.1518C23.9334 42.9261 24.4913 42.8057 25.0793 42.8057C25.6824 42.8057 26.2403 42.9261 26.7529 43.1518C27.2655 43.3776 27.7179 43.7388 28.0948 44.2205C28.4717 44.7021 28.7733 45.3042 28.9843 46.0266C29.1954 46.7491 29.301 47.6221 29.301 48.6305ZM27.2052 48.6155C27.2052 47.8178 27.1449 47.1404 27.0243 46.6136C26.9037 46.0869 26.7529 45.6654 26.5569 45.3644C26.3609 45.0634 26.1347 44.8376 25.8784 44.7172C25.6221 44.5968 25.3507 44.5215 25.0793 44.5215C24.823 44.5215 24.5667 44.5817 24.3104 44.7172C24.0691 44.8376 23.843 45.0634 23.647 45.3644C23.451 45.6654 23.3002 46.0869 23.1796 46.6136C23.059 47.1404 22.9986 47.8027 22.9986 48.6155C22.9986 49.4132 23.059 50.0755 23.1796 50.6023C23.3002 51.129 23.451 51.5354 23.647 51.8515C23.843 52.1676 24.0541 52.3783 24.3104 52.4987C24.5667 52.6191 24.8079 52.6793 25.0793 52.6793C25.3507 52.6793 25.6221 52.6191 25.8784 52.4987C26.1347 52.3783 26.3609 52.1676 26.5569 51.8515C26.7529 51.5354 26.9037 51.129 27.0243 50.6023C27.1449 50.0755 27.2052 49.4132 27.2052 48.6155Z" fill="#3CC55E"/>
<path d="M34.4725 42.7607C35.0002 42.7758 35.4827 42.8511 35.9048 43.0166C36.3421 43.1822 36.7039 43.3929 37.0055 43.6638C37.307 43.9347 37.5482 44.2508 37.699 44.6121C37.8649 44.9733 37.9403 45.3646 37.9252 45.7861C37.9252 46.4333 37.7593 46.945 37.4276 47.3514C37.0959 47.7427 36.7039 48.0588 36.2214 48.2996C36.8848 48.5555 37.3673 48.9017 37.6689 49.3382C37.9704 49.7747 38.1212 50.3316 38.1212 50.9938C38.1061 51.5658 38.0006 52.0775 37.7744 52.514C37.5482 52.9505 37.2618 53.3268 36.8999 53.6278C36.5381 53.9288 36.1159 54.1546 35.6334 54.3051C35.1509 54.4556 34.6383 54.5309 34.1257 54.5309C33.5528 54.5309 33.0401 54.4556 32.6029 54.3202C32.1656 54.1847 31.7887 53.974 31.4721 53.7031C31.1555 53.4321 30.8841 53.1161 30.6579 52.7247C30.4317 52.3334 30.2357 51.8969 30.085 51.4002L31.9244 50.6777C31.9696 50.8283 32.0299 51.0089 32.1355 51.2196C32.241 51.4303 32.3466 51.626 32.4672 51.7915C32.5878 51.9571 32.7235 52.1076 32.8743 52.2431C33.025 52.3785 33.206 52.499 33.402 52.5893C33.598 52.6796 33.8241 52.7247 34.0955 52.7247C34.4272 52.7247 34.7137 52.6796 34.97 52.5742C35.2113 52.4839 35.4223 52.3484 35.5882 52.1979C35.754 52.0474 35.8747 51.8668 35.9651 51.6561C36.0556 51.4454 36.0857 51.2497 36.0857 51.039C36.0857 50.7831 36.0556 50.5423 36.0104 50.3165C35.9651 50.0907 35.8445 49.9101 35.6636 49.7446C35.4827 49.594 35.2113 49.4736 34.8645 49.3833C34.5177 49.293 34.0503 49.2629 33.4623 49.2629V47.7578C33.9598 47.7427 34.3669 47.6976 34.6836 47.6223C35.0002 47.5471 35.2565 47.4267 35.4374 47.2761C35.6183 47.1256 35.739 46.9601 35.8144 46.7644C35.8897 46.5687 35.9199 46.343 35.9199 46.1021C35.935 45.5753 35.7993 45.184 35.5128 44.9281C35.2263 44.6723 34.8494 44.5368 34.3518 44.5368C33.8995 44.5368 33.5226 44.6572 33.2361 44.883C32.9497 45.1087 32.7386 45.4098 32.6029 45.771C32.5275 45.9968 32.4823 46.2225 32.437 46.4784C32.1204 46.4333 31.7887 46.3731 31.457 46.2978C31.1253 46.2376 30.7936 46.1774 30.4619 46.1172C30.6881 44.9883 31.1404 44.1455 31.8339 43.5886C32.5275 43.0317 33.4171 42.7607 34.4725 42.7607Z" fill="#3CC55E"/>
<path d="M45.2838 51.3548H41.6501L40.8661 54.2296H38.6045L42.1929 43.0615H44.8314L48.4349 54.2296H46.0979L45.2838 51.3548ZM44.8013 49.6239L44.4696 48.4047C44.3037 47.8177 44.1379 47.2157 43.972 46.5986C43.8062 45.9815 43.6554 45.3644 43.4745 44.7623H43.4142C43.2785 45.3794 43.1277 45.9965 42.9618 46.6136C42.796 47.2307 42.6301 47.8328 42.4643 48.4198L42.1326 49.639H44.8013V49.6239Z" fill="#3CC55E"/>
<path d="M49.7153 43.0471H52.188L54.0878 48.2699C54.2084 48.6161 54.329 48.9773 54.4345 49.3386C54.5401 49.6998 54.6607 50.061 54.7662 50.4223H54.8567C54.9773 50.061 55.0979 49.6998 55.2035 49.3386C55.309 48.9773 55.4296 48.6161 55.5503 48.2699L57.4048 43.0471H59.8775V54.2152H57.8571V49.5493C57.8571 49.2934 57.8722 48.9924 57.8872 48.6763C57.9023 48.3602 57.9325 48.0442 57.9476 47.713C57.9777 47.3819 58.0079 47.0658 58.0229 46.7497C58.0531 46.4337 58.0833 46.1477 58.1134 45.8768H58.0531L57.1485 48.5108L55.4296 53.2068H54.1481L52.4142 48.5108L51.5246 45.8768H51.4643C51.4945 46.1326 51.5246 46.4337 51.5548 46.7497C51.5849 47.0658 51.6151 47.3819 51.6452 47.713C51.6754 48.0442 51.7055 48.3602 51.7206 48.6763C51.7357 48.9924 51.7508 49.2784 51.7508 49.5493V54.2152H49.7304V43.0471H49.7153Z" fill="#3CC55E"/>
<path opacity="0.6" d="M116.387 129.703H110.583V135.497H116.387V129.703Z" fill="#00A743"/>
<path opacity="0.6" d="M125.991 116.683H120.186V135.498H125.991V116.683Z" fill="#00A743"/>
<path opacity="0.6" d="M135.596 101.677H129.791V135.497H135.596V101.677Z" fill="#00A743"/>
<path opacity="0.6" d="M145.2 88.4016H139.395V135.497H145.2V88.4016Z" fill="#00A743"/>
<path opacity="0.6" d="M154.805 91.7439H149V135.498H154.805V91.7439Z" fill="#00A743"/>
<path opacity="0.6" d="M162.041 135.498H103.013V88.4021" stroke="#00A743" stroke-miterlimit="10"/>
</svg>
