<svg width="30" height="32" viewBox="0 0 30 32" fill="none" xmlns="http://www.w3.org/2000/svg">
<g opacity="0.4">
<path d="M22.5 0.544922H7.5C3.35786 0.544922 0 3.9799 0 8.21716V23.5616C0 27.7989 3.35786 31.2339 7.5 31.2339H22.5C26.6421 31.2339 30 27.7989 30 23.5616V8.21716C30 3.9799 26.6421 0.544922 22.5 0.544922Z" fill="#404040"/>
<path d="M15.0002 21.71C18.1425 21.71 20.6899 19.104 20.6899 15.8894C20.6899 12.6748 18.1425 10.0688 15.0002 10.0688C11.8579 10.0688 9.31055 12.6748 9.31055 15.8894C9.31055 19.104 11.8579 21.71 15.0002 21.71Z" stroke="white" stroke-width="2" stroke-linecap="round" stroke-linejoin="round"/>
<path d="M22.6641 8.19312V8.19412" stroke="white" stroke-width="2.75" stroke-linecap="round" stroke-linejoin="round"/>
</g>
</svg>
