<svg width="92" height="92" viewBox="0 0 92 92" fill="none" xmlns="http://www.w3.org/2000/svg">
<circle cx="46" cy="46" r="46" fill="#E8F6F9"/>
<path d="M46.0002 18.5769L69.7493 32.2884V59.7115L46.0002 73.4231L22.2511 59.7115V32.2884L46.0002 18.5769Z" stroke="#4CA9FC" stroke-width="2" stroke-linecap="round" stroke-linejoin="round"/>
<circle cx="46.0001" cy="19.4615" r="5.30769" fill="#4CA9FC"/>
<circle cx="46.8848" cy="73.4232" r="5.30769" fill="#4CA9FC"/>
<circle cx="22.1153" cy="32.7308" r="5.30769" fill="#4CA9FC"/>
<circle cx="22.1153" cy="59.2691" r="5.30769" fill="#4CA9FC"/>
<circle cx="69.8848" cy="32.7308" r="5.30769" fill="#4CA9FC"/>
<circle cx="69.8848" cy="59.2691" r="5.30769" fill="#4CA9FC"/>
<path d="M43.3968 31.5872C44.1714 28.3941 48.7137 28.3941 49.4883 31.5872C49.6045 32.0669 49.8324 32.5123 50.1533 32.8873C50.4742 33.2623 50.8792 33.5562 51.3351 33.7451C51.7911 33.934 52.2853 34.0126 52.7774 33.9745C53.2695 33.9363 53.7456 33.7825 54.167 33.5256C56.9727 31.8163 60.1858 35.0276 58.4765 37.8351C58.22 38.2564 58.0664 38.7322 58.0283 39.224C57.9903 39.7157 58.0688 40.2095 58.2575 40.6652C58.4462 41.1209 58.7397 41.5257 59.1143 41.8466C59.4889 42.1675 59.9339 42.3954 60.4131 42.512C63.6062 43.2866 63.6062 47.8289 60.4131 48.6035C59.9334 48.7198 59.488 48.9476 59.113 49.2685C58.738 49.5895 58.4441 49.9944 58.2552 50.4504C58.0663 50.9064 57.9877 51.4005 58.0258 51.8926C58.064 52.3847 58.2178 52.8608 58.4747 53.2822C60.184 56.088 56.9727 59.3011 54.1652 57.5918C53.7439 57.3352 53.2681 57.1816 52.7764 57.1436C52.2846 57.1055 51.7908 57.184 51.3351 57.3727C50.8794 57.5614 50.4746 57.855 50.1537 58.2295C49.8328 58.6041 49.6049 59.0491 49.4883 59.5284C48.7137 62.7214 44.1714 62.7214 43.3968 59.5284C43.2805 59.0487 43.0527 58.6032 42.7318 58.2282C42.4108 57.8532 42.0059 57.5593 41.5499 57.3704C41.0939 57.1815 40.5998 57.1029 40.1077 57.1411C39.6156 57.1792 39.1395 57.333 38.7181 57.59C35.9123 59.2992 32.6992 56.088 34.4085 53.2804C34.6651 52.8592 34.8187 52.3833 34.8567 51.8916C34.8948 51.3998 34.8163 50.906 34.6276 50.4503C34.4389 49.9946 34.1453 49.5899 33.7708 49.269C33.3962 48.9481 32.9512 48.7201 32.4719 48.6035C29.2789 47.8289 29.2789 43.2866 32.4719 42.512C32.9516 42.3958 33.3971 42.1679 33.7721 41.847C34.1471 41.5261 34.441 41.1211 34.6299 40.6652C34.8188 40.2092 34.8974 39.715 34.8592 39.2229C34.8211 38.7308 34.6673 38.2547 34.4103 37.8333C32.7011 35.0276 35.9123 31.8145 38.7199 33.5238C40.5383 34.6293 42.8949 33.651 43.3968 31.5872Z" fill="#168EFA"/>
<path d="M46.4419 51.0128C49.4547 51.0128 51.8971 48.5705 51.8971 45.5577C51.8971 42.5449 49.4547 40.1025 46.4419 40.1025C43.4292 40.1025 40.9868 42.5449 40.9868 45.5577C40.9868 48.5705 43.4292 51.0128 46.4419 51.0128Z" fill="#E8F6F9"/>
</svg>
